<mxfile host="app.diagrams.net" modified="2021-12-04T05:53:55.472Z" agent="5.0 (Windows NT 10.0; Win64; x64) AppleWebKit/537.36 (KHTML, like Gecko) Chrome/96.0.4664.45 Safari/537.36" etag="h1pkwVKAEqDueVydVeDR" version="15.8.9" type="github">
  <diagram id="Ee9zWIt57XZh-d4IZo1E" name="Page-1">
    <mxGraphModel dx="1185" dy="588" grid="1" gridSize="10" guides="1" tooltips="1" connect="1" arrows="1" fold="1" page="1" pageScale="1" pageWidth="850" pageHeight="1100" math="0" shadow="0">
      <root>
        <mxCell id="0" />
        <mxCell id="1" parent="0" />
        <mxCell id="f1r1_VTixNU1GJfMMUWN-1" value="&lt;span class=&quot;WACImageContainer NoPadding DragDrop BlobObject SCXW198942429 BCX0&quot; style=&quot;margin: 0px; padding: 0px; position: relative; cursor: move; left: 0px; top: 2px; display: inline-block; text-indent: 0px; color: rgb(0, 0, 0); font-family: &amp;quot;segoe ui&amp;quot;, &amp;quot;segoe ui web&amp;quot;, arial, verdana, sans-serif; font-size: 12px; font-style: normal; font-weight: 400; letter-spacing: normal; text-align: center; text-transform: none; word-spacing: 0px; background-color: rgb(255, 255, 255); width: auto; height: auto; transform: rotate(0deg);&quot;&gt;&lt;img class=&quot;WACImage SCXW198942429 BCX0&quot; src=&quot;data:image/png;base64,iVBORw0KGgoAAAANSUhEUgAAAc4AAAEoCAYAAADR+xEvAAAAAXNSR0IArs4c6QAAAARnQU1BAACxjwv8YQUAAAAJcEhZcwAADsMAAA7DAcdvqGQAAP+lSURBVHhe7P0JrGbJdd8Jnve9fV/y5VqZWUvWRrJYpERqsdC2tYsDuz3ACPAA3Q3C3dOWAc+4Z8ZDUBjAQFuAgQE1NY1BY9Ajy3DDpuXuHk3b6G7YGEkW2zLlJiWZWy1k7ZX79vLly7fvy/x//xPxfd/LWjK5VKmovOd78e69ceNGnDgR9/zjxHZ7Lv23f/ug1TcYB62B+ON/943Y3t6N4eGR2N/ZiJ797eg92ImD3Y3Y2d2Li1dvxo/9xE/F/v5+JPVEHBzE5tZWrK6uRKvVisnJSd0/iN2dndjd3VUQhRGtr6/FwsKdGB4YjDOnTvnRtQ3Fu78Xq+vrMTA0FKsb63H0+LEYHR+L8YmJGB0Zjf29/ejr64utjc24cvmyouuJkcHB6Nndjp69vcqCaWNzM5aWl+LEyVMxMDDgfOBaer63tzfmb9+O3b3dGB+f8HWIzz5FsCdeby8sxOuvv25+Z47MJN9yfX0KJ+pp9cbOznYMj47GmbNn9HxfLC0tKZ/bks9O7CgvW9tb0Sf/UYXp6xfPm1vK97pktxOD4nltdc35GtP9AzFNXjjuSZ6bm9ux39MX2+Ll5IkTyveu5L8XB3s7sam4d5Xfzc2NuHNnIZ588slYW1d6Snt0Ytw8KbZYFD9baxsxJB52Fe/A6HD0Dw7Eru4ODPTH9sZW3LhyNcYGhmK0fzD2VD6Dg0MxMCx5DvbHHZXhnbWVOPfEEzHY0x+tg54YGh2JQcWzrzgWFu/EouR0bOZI7Cj9od5+lcOBy+j27YW4rWcHVXbHzjwUw5PjsSFeYnsv1ldXY3ll2ektLy4qjjsxP38rJhT25PHjMSBZjQ4Px9bWZrz6yivx2COPxKTKqKcVKqvx2KU+7aW8lpeXldbtmJqasuwo5349z5H7V5Q/6MiRIyreffG2p3rZGysrqzE5MRUvvPBiTE9Px5Tc7NGj0ertUZ3fidGxUZfRovhbW1uNkydPqix7Y31tzRVsS3V8U3VwV2kMqwyPzs6q3uxGr3hUDVL9XJfbiAvn31I92VG9G47BoeHoE19bO3vRL5mPTUzGOnGoLI/PTEVrX/JYWYkdpb8t2cDHrmR5/sLF+PGf+Akl26N3S/VC+c/jftyYm/M7elxy21xfVZmuxfFjR2NM/PP8t7/z7Xj00ceUt1nXPfjuVf3flRx4N5aXFuMnP/3pGBsZ9juwo3R3trf9ru4oP5t6h/B/7LFHnd6W0uXd3hNf+F+8eNHyRYbU9/7+gRhTGY2OjUmWfZbf9Rs3XW68A/BAOfWLh3XJaEXld/bM6Xj66aflvx+LK4sqX9VzpbWrtOZv3XL9mJmeiUHFTZq9Kj+JwvlY1PMKHVMzM9YT23q3tlSvd+Q2VSepU6++9qrLx++xqFeFhA6BP96Tl178jstmS/LaU70aHhnR/YFQRXH5jA71xdnTJ2J4UPVyRO+G4hgeUf6KnvyTf/dNP9voyQdXT7a2JMw1vYgHYmZ3Vwzut1Rhean69dLsxLoKG2Wx3+rRyz9gJdTX129HhqjMwypMBLGtF5D7+8oIL2qPnqHSUoF29VLyovT2tcxcrwS9p0wPDw2qso/7xWopvg0V/LaE0xMt+fXb6dWJPinywb4hKZtWbK/r/n5P9FATVKi90rAOp+f3lJcd8byvzG6oEm5urivjWyrSPSu5PnhqHSitfTkddb1PPAhQfFUFTB7gm4IfUcUcVyUlr1SKPeWNI47KiuMZXoh8dj+VoeTBOTJpiUfqLX5Qf7+ASeFxKDcq6sHBrirQqq43rPSz0qg8VGiDKkR5KW2elkTEF89C8KpqpWvFS/6kZQ70AqOIUOLkjfDwz8vR0suAI+4DRbgrXnskx0HkTflRVuLboCSZUG57+1IMqlq7kuXu7mYMSKkMD0vZSI6kj4LdB9xUbuJAXKk+bO0KsFYsX8p2Vy8G8tnmJVKc5BsgBJB4caBBpYkSgO9NvVDz87cVz7ZlMDY27pdZiapMs2x2lU+xqvB7VoLIekBKZ0iKEZm1Wn3ypzx2BdDIkJd8SPKWMlec24rnphTFml7mll6KfVWSbcpPeRLT0UP9pSzk1686i4KgLJEN9Ze6sGceUl7kj7quJ0u9UFiVNTzxjuC3KhBflVxW9AJvK488o5aJ5LAlJSIlrHexv3dQ+RRgHLQk+5byR1Xn+VEp3+24dOmmAB5QW4+hwWG9R6MCs5k4Mj2r8g7HA9oMKI9DQ2r8kFfJYGlxxXJDZlxv6x1HGa2vbfoZ5DcyPGq59bb0TunIOf7I3cpe+SWCIcliqL9X7+Oa371NAzVgpPdd4faphzwnV5WyxOG6urdH3dyUTARqarwMS3ENSf680zR2UFaAOO8ACpU6BAxx7BOgHigiypC4AZ5+xT2qxgDvFY2MHd3aoFyU1x3Jc1UNuDXVxzXlUZrJwEfeZianYkDHfdXFA7mW6qYiFJNKzS+U6o94P6Qnlf1GTz7YerK1rwxQmyUaRY0D3XXA6VxPubWHxYEio4WEEBHckAqT1r4zKn8UXDd14nk3qjfrUQnpNJ/jhCMqqPx0LhFa6LRCETJhEDovGwoXDyqWW6qqAWSP+6nk9AKqlY9keZR7CD0d5/BQSTfvJofJQN1BUSbmwcoi46sVBNcrx/V7Uz5DsopBcSg+nHlXoamCo5BcGF2U/HS75Bz44ng4dFLGT3rIQOE48eP6pzwAEqR7oHP7tcMpjF4iO9UIWnbbAhwUHBWayrelCo8CBgR4ntY8L/yg6gr3bYHIf0T+tvxkOY5I4WGhDam1OSDHy2Knykv9csUtrLQdGSk5NIsUaLmuv/Z1ube8tOyXm7oL0KN8VmRRXr9xQ1behbh9504Mig94RqEtq2VJ65hyoP6QVzcopORpobvFLB5R7FvIQGXkeidlZ1mJ3Ohw+SGbLaW5YbcqK5wygBfqKzQocLV1pfxsID/nVQpGAAFYbUnx47+m1jKACfBhmVE2pM37Bz/EQf79vGRN48egKiucd9ZysQBTNuk4r7LKe3mgHue7xtvnZ8o9FLKdIrNyLsQZbk9+e0rfoCfHj6ySDjoE52uFdRw8zHkJU91hImRSHjOf2YDZdVnxzmHJALA0jgaxqEbHYlhW8ZDKnzLuLw0ZwCSBRfWd56UcARODtxQteZC2kJUDU0VPqjFT000mzHCjJys5TAbqDvpnSU9SdTue8rXCFCNQ+lNJHNaVAKWA4GkRUEGM1HrOLQopuwyrwGaUO5l4SQ+Pu/w4r8fq3zn3A4Uqn1QE0qM1ALnlZoHRGlGmeHHEp1u4Cu9uIN2v3SIUGvkmXBYk1b2m16F8sXlBCj/dfFU/OdKn0KiUpOVYJE5XBvFQW1r3IuevnDteyRmFiYyRN8fDPHTCcs49qDstx9nlnABhHUeGqYQfyiJlmS1JZFXTacdRCIXqFqFePFrT1A8rI8mevNPyJu90sayursW6AGNMyuvxJx6Pj3/843Hu3Dl3KdKtR1cpgIXFSZxVbrQAaZG/GznvhcwfGXQ+87ybZ9KnRX/9+o24eOmSAWxUaSK3CwLOl19+Oe4sLCi9rF9YksTP81b+euFpGADAdCtn+eb7wTNcA348ax5EPFdf6Nq6zi67NYFzdq8RlvwOqwEBUY83NtZd9q63uqYsqNN0yR47Nhtnz56ORx85G7OzRwxndIXRVUWdTeWXlgvdznSLY1UA7nSbUUchK07yAO/lXekmrskT4TJ/HVl2EyVQ6167PHSolmOtS76lx9vvBWVL3PLLY55DHOyKR71PAH53U9bdfF9Iy70MSru+N5Q1vRv0gNBtv6aGC93wa2rI0ZjD0QCkfOszHb5TX1QeyEb6N3oSehD1ZHnrEXJG0haQAmckGZDM8vIQIwK1gNWKzoqaqIwAzZzorrRE+Dg7nZsl7N2haSUnH5nxGqf5EQ9+maWw4Jl7vCQUCC8O14RDqVsAosovLxLhahhczW/mmXQ69/hB9udPR5/62HE8e/glS17Np3nNinsv0iP+53SVTo0X6wc5c94tKqXu9PK8/iukKODhbiLu7mBJGc7plQqYL1hWcChlUttnSsrpIqtsJQ7SDUXF7wI5XkrLpOQDBT07OxtPPvGkxx8YRxwfG48hxgOxNMtLnml16pKJ80PXlYfOMZ+rx7vPE5yw+hhHgi+s3FOnTsWjjz4ak7J8lwSIb771ll8+W8A0BmS18CxpkB/GYy5dvhRXr16NBVmoa2vr5sVhAX1Zd5S5+UM+yVjyINlYSchRF12mlm/KjzjojsIaRv43ZQlfv35N7nrMzd2MhYXbUvarliXjr1joNFhIh/wA5ii9jc0NxwMHw8NDMTU55S60yckcm4UXeELWbSee8v0260mEgV+UvRzys/UCSR6Wu13bqxxdM80TdTcVZfpBpE88VeFWR3rvdl7JZ/zruo8egD8YIC0aGpQhjQYaCtXdUXkxBruysmygdNef5AyfRGp+Xe+xOKteKJmCSlpQ3mv0pF2WSvrzp6NPfew4niXeGgdP8bz5NK8/PHrSb0Hy0WGCSuOMwVx5UbBE6JrjxSQoVoHHbaiwepDWNC88lDx2BJbnxZ+j//l/CVOP+OUxhYsjruSvKh6chXZ3hmtYHNkpFcpxcV6c81jM+7yX+W1HIKrpmeDrPV0JVtwhgs1yvCeRJowT1o7rzqOZTqbn85JYnsu/evBcnjk+X/GHp1zlOyPINPy8ZEO3I1aZHQrE4bJVaLlbJryIdCduuk7Q9QTgonCwarL1ntYdAQEUgAjFm+kKVGVtGGiwLv3y5tgGiscvt1ynDmTO7Hje1xlPjQ/lkPXVuSVXnWs57gOCOMDyKQH39My0+XrooYfi6aeeihMnTljJEacbBOTVf8QIpQIhf4y9zt2cM6CtSkHn3ZQTrPG+VN4ASt4TGgdDAjIAkq5EJsUwUYM4eZdQdmuyNLd3t3W/N06cPB6nxdvDZ8/Eww8/HGdOn5a1edQTYAZ0v6cHZSjrwXU4ld6mwBPrinzAC3JmAgWWFt3D5k9UZVJb+lkGKSvLFxkU3gljq5QwlklHqXB0aTiv9ehT38u7+o9/ucd5+iYPNV2S7pwXx6/rWv/SzzEVkh9K1+nIZZ7EawlFngcHB9y1Xt0IbmTEPQ7pxwShBF+z6pigeoTb5A8/645GT7bTM8HXe7oSrLhDBJvleE8iTRgnrB3XnUcznUzP5yWxPJd/9eC5PHN8vuIPT7nKd0aQafh5ycalbW/5OoiEU196/KjYEIKDHFkRdNtxnU87Yo4cuNf2qvftkWf5D2qf5L2qLIurVK0bFExNl9zQgsuKkjnmCVpXtECy9UE43zLxbLv1hasVw+kRAiHhSA+WOry8zRFaYWr6VY78A3RqBUzP96bKYso9Kz7Kqio3lEFGw3/S1lFp5HnxFjmb5t9n9tCVT9JH4cvLVoNA8NmxODtdVZB5KvmrlF0/amGTlssgx+fcinfkyVJt/aO819bWbPURN/IrbDkfTr+UicuDRCBOdP9tspfzbY7wcMglz20nWTKpgXPGVk+ePGUZrwhMmDBx9NixOHH8uED1ISs7rBEaBJkXRrkyv4xVMSOSMmHMEwtmWdaMLUXl0xOFSv2F75q2waeWo+IHROF+g248PaOAfh7Hg/AwKH6ZWXj0yJE4JVA/cfxYTE6Mi5cDgeCyLNAF8chYKLKgjiV4Um9oIAxJYdP1TT7pMuXdJl1IXCVf1C/XsapoOwTv+Jl38Y31gp8J5rsdh/ZR/OhHyPrOcuGg+tcek5I88beMcPx8Xt7ztn+HfF7+HQojR+Tkg8YQ3f8TsrAZQ2ds9+jRY3JH3eNB+TPuztCAu1WVP9Ks71pbFo43ARGCf6fDeeGfvOL3w6knUw82etJn9tCVT9JH4S1jB2sTfLYcXdedmgkewsuR6pLuAJji5UGAtT/ZLXT9kvEcADePPuv8x6/t7MVTHf/0yhN4gDl3kxS/LKCOS+XK/DgKI1uYHg/TPZ7lflX+pIN/fRnIH4oEJeNCVfgsYCelMJ30dFbupXOgrmsc8fqFEx9uQesp3yt8mAdd34sIgSMG0uYFRubZamWGXqdFXAPX0/TsEDxUSo58kv94rh080+IShZZyw9qsFp/u6JEqj3Q8h5JC4eSYjhW9lDJjO1BW4OSXscXl5RW1xHOWZKbHS6k09GI6OpFlVhgjTFo7qnM6ttkVHTqv4e3MqJ/F+dx3Mz7GXD2JSfkjFvhhnAsFCP9jsuQATx6lbrf50V8qocwrinh6esoAypgm/uTFyzqwAOVR0804ClAU2XLsZXaj8lZlTWNiVbwQPmdl1lmE1XIBDLEMqb+y7GVZbso6pR6jiPawMBWQGZOA69TUZIzIuqUOIW3qD5NUiMOkOK10dL8bKCpxZjnK3/W7HO3nEJRg18/FkOeVEpj1HM+UuPO9Lu+FeM/n8n7HZdrlxM+RaPrxl2Eq4U86Tk8yxaIfHR3zeDrLGgBKygrrElClntJ4QW6k7+5dW4hZR6gL1F3qdyp5VwGXTb34s6En8x1s9GRScuST/Mdz7eCZFpfoSfcrdZjtZDJT0cMOnH7tQuKOb5l1R57InK2tjKecHjqvRIw+lH8Zv68ysnJdwhUiP7WgausHygKholPgVF4KIgv8UBgVWHYrdKwb0qkO/27KPJqdNiccHbSSLtxarcpHjocI5zRUaVGM9fn3pBIx+av8UtFrpeDYxYXPTG2GOs/rv899dD6yrPjzs/WZGkyEDAye4hnecSkXgjkSn3OFN/dRDI5T9YLb1Y9rnkUeWGl0hU1IiaG48GfCBMBFGbRbyMXVF4z8spSD63uSn+WQceR1l1MQLEvAAoCDRysU3aM7E2XLUhfKEUUnb/Pql1DnKGbGYFlegOKdnJzyGO3xE8edL8rHikwNgWQnecaPVntVoIyR0sVNuoAn0gVsGZd0V6ryPTQ45DTdIFGazr7frz3xTz56Y3howA4++xQAxY+SR3EcEVAcEbAzvolSQjEyHjpSZE8N0GN+F2qdtSMyuVIzfI5fO0y5bt8/RMW33tQR5dgeP9V5+qteVIUtB9V77TDijlOu7KV/WYK+42M38RxAaKWMElV58t6QrnngKNf9aEZLvhQj/Ml13rMCnCh4nnPorM8Q/zn3tb10X+nwXuGX706GhX/44+fgjZ50GsibhwjnNH7I9GQLodQLuqbo+mGdHS8zkTAJgYxxn7A4GMO5m0NHksCfBdgec1FY81TixRGGFxtyq9tdfFl4boGVcBQ0YzTMPCQ+ZgpaOYs4EgPKVIF1RmVM4aQQMj2Ema2pUmkU1MIo963gXIEzzfrSuMIoHochz678WQE5t4VFPPqDzzqYTZ7rZAIUFflEQRMPcerE17YOFBfx1DRwyVmJU7yQn7ymwmZlTl5TgdeWIuRKCH/8dN/xyhVxmDfkVsvO55K9c6ZANW345pruVFs6O7vugmQ8z4pI4OeWs/wBwtrK42VYX1v34nb4ouvyzTffjCtXr5R4pLSHsuusdnHWFiZEHF5yonzgZ8AsVhHWq2UuvvyCFLklSCjfClOtGQNbsRbImy05Oc4RDFYmZd7dpewWuMI7fjmWxUCMQ8nT55QfaTqM8sw5kfKiki+WeZA3/N06l7whK+QSL0eXi/JNObl+kC8UmNyO8k19R3GQLHzC4KCAcWAAGcMr1U71o+cgxkaH49jskZg9orTHRg2uEqru6xnJoL38QX4sK8Ci2paFeqD6xLuDjKqskCN85TtZ390Ov+gDCD2Af80Tcq31yXVb51kf0srBnzht6RbA9jCA/EizKjjKDYHyjMtL4bjvMtIdhgJc1iVt3gkInQHVZ6hT8FjrOmF5Z0nP3e6qu+gD5F/jIh88Ax/wicMfIk3CZvl36itp0UXf6MlOHXkQ9WSLimkPRUJF8FT5lVUrQAa5qwIgEyROqlXgJMo9JFQrMglyz1ITcV4Lxc+L6sQTXg7u8RI5jALxkmOJUBFcQRVfCuPA41FklvBmHj5QDnrGglAcZBp/ruEV53tUfgmY+5WfSuTNL7IchdmOS87pyPGsFZSy5XQVDy8LxGB/FXrNlwtdP+Ktz/AS4086rpSKH5cypPASOEifX40TYlcXCpf7ObaYCpprt97Iav3p+dqio3yRt+OUDDgnzio/qOaXuFhqQRhkz/rG69euSe45NslSDWakslsMrXImPUxMjFs28Eo8t27diue/9a148YUXY25uzpNf4IyXE34oT9JNBZ8TZdw1qXsAFjxgGcIPLxHPwCv+mXcpc8VR820A0n1kiiVoeUsWKMpUllnmnLtuig+eNVEupCuLDCUEsYgaf14QGgPkjTSpLj5KhqSHXKmn5IX4rOTgTelk93PWo8p7lTXvCUCCIj1QOj26x5FXxl3dCkc5s6ORLWPxtsPuLwJMO6WPpXlkZiqmGMNTY6SvDx6oA7lJA/Uj85/jn4iRnWI21AiicUA6XjOL3JWegdVpZT2xEhPfyKDKBflCrjdF5i4LPYcyRcbUCe5Rf2hw8SxliaUL8W4gM8oNmVgBk74yj/K37BQn72DmhzFbNiroACdyh0fS5LrWO54l7Vz6kRsMcJ88UDY4y0I/lwX3xBOOOkBdgx+fK30aizxP4w15HdKTAFWjJztxyTkduQdFTwo4E2nxpIJQIZkleE0K88aNm7ZCecG4RyRkhGfyxUQRZQH4ZayLq7uIvHb75EuRAuO5ZCyZo+KSfh2050WkNc85L+HinTtujVBhnGk9m8LsJJIZT5eJ84JYWiY/Q7giOITUDt9F5dEfKDk64uXwDnHDWbf3oSueuw+GeCYVQZGp5IwFR8UE6Fi874keXZXBLUaFR/YA2cio5K/y5N78/Hy88fobXufIVlVUTCok8VImbATAInzKiHLJlvhO3Lx5M9544w1XNOKBdXgiB4iaeuS0+Sn99jk3RbVscaQFYWlyHz6J11SKjTDc8wukROrLCj9MuHG87bhL/OZGjls6K7c7ZM905k9HXnbSz7Ty5YKYoQkocc37hGKwU33FwS/36lga+WdzgMKMlH4rN1aQ7OlipRxSgaW83dJVXaU263XxWCbHOFD6ZhwH6YhsFBb/Cg/tjQrsuCV/P6fk/e6VLjTkooixVshnfU/bpGd4lvD5jhaLSoBA/lzGen5NDSy6ntlqEZBxY0txoS/IE3WF+sN5+x3kV3hyuSCbmgP86y0Rt2r9OOx8txwPUyfufBaiXCgLHgA0eE9oPAHClAH5Z3vGRk82erJbT7ZYFEyFoDuDBClYiAXadNuhBCEerAxZARSFQGsDooXIy1OCmA4Vlv1hsrRaSFzPZMswX1oYdYUYyq2zyAxR3JDlw/6IN+du+iV3t6D4cUXSs1nITqBQFnDl1605FInILzb+koFbYdxTHg5XCp7LcCWK75sqL4fIyeif0yn3Oe/KSz3r9nsvUi7a+SCvtUsVebLGkJeLFmGmh/LutOaYiclGBJMTk/HYo495reUx9pJVJeJ5ZiKynILWWQUNnvMLXioY44KzR474RTZYqI7AjseTMH1EyB0gsMxL2XRk30VisSoQiJYocdZuMdKu+SU31GOAkutsFav1Kj8ccXSnQfa5T/wpioynOshx69chpaPw+LEWkHcHi4h6nPW1TPYpfNYGAUqz1jN4oTyIlXeLvVFZkL+kuJhEVa0QeCNugNY72QCeklOPt0CDd8pXslTc5kvnOMIQFldB0q7cr0Qq8FbLD56QK+m6LlBP5HgnufYzyMZnSlthvX0bR9UrjuS7xoUCv6HG0/m3zvv9Ne/ImwYCcUteHCHLqtQBRI+DKu/pT9rm2p7whKtlCCWfpTx97DiT4yl6AAGKqMP0EPCukK51oSw4rFYI/eQGQKMnSznlM0k8V2WcPt8vVV4OkZPRP6dT7nPelZd61u33XuTaVPLxvejJFq0SprzzMERgWlz09xMxlYWKxUuVAspEsoVKZSstK8ZH1boy6yVch8gOfllhYZDCbhemnCtEeelgHj+UM5uHf+Mb34ivf/3rsaBzun2yKyzj8svIi6M/5OCCtcLKLh9f81LKzzyUZyDi8YtThJJhfavwlfz9oMhx8ivHlItZb5PP9S/T90k5tu++J5FP8lQLmjxR+SHi6Za5bxFO8iFmKsyILEhml2I9MXX/5MkTcXT2qGeSTghQiZ+daLAoiZuu2xUpFmTFejiWdZw5ezaO6UiL3RNAFI46U5UVfHXzV3ngGjKflJN57TxXy0qe5tdyEeFH3aM7mZ1gAGvqEo6sU7fpmkSJWB48T9yqHxlHp55Ucjif5Hm6PGeCD5tdswECXTqpuIgnn+G8usxHvjOpnPdtnRKPu0bzAcfto35r6yzcX7TyZvszHOOT+mcne0ZxUZ9RZhU4M33LUnLiSKR4I73MZbru/HDt9w4FXBQFrq20JSdTecYPleva4LEugHddE5e7u0V1pyLKBTm4a1Y/ypFuO3SPQcXvYb6jitjPtkkM1npSbxGH+XT51XpS/BS+c95xEOWfDZPUHVCtU7aypSyx8ilfksOfseIrl6+Y10ZPdr2ztSzMV/L3gyLHya8cUy5mvU0+179M3yfl2L77nvT96skWlgFfiWDnFAoCBuhKYENtrl0h9ADKFPYpNC8klyLKgqOVtu1uC1pmXFeqCXf8suBpQXWYSm45pwC55+2qlDFeOLoKr127HnfuLKIWXGHqLjWOS8+44JylJMIRryuMrg+1pHhG4UmVMBaaHNLp8NLhHZ5/IFSj6YquO51Oeu9M3fl7LyIPHpejUqjC2zrUtSu+K0qOc9S8tyuN0qZsqRS0ppE75Ymc66JxtoRjUgzyLKLyS0UcdHOwyLyum4Nd1hm6e1U/ysgvLs+Qbn0RVS6Oz3F24uV5lBTlVQn5kA/G/tyNUmSGn60CKWmOtP7xh3ccCtETVEoacOG6Vl4O+KtKtcoG4sC9DqWCtNWhH+E4JwgyY2lKBZw6oYpz6jNdlfBMxviayNmHH46Pfuxj8VM/9VPx87/4C/GLn/nF+Lmf+7n4sR//sXjo9GnPQnbEKDN4okwpuy5ny1J5h0/vuQpPykOWdanv8oP4T15xkOPUz3Ki3MU3rvYc6IbDuHwUX0fBZFxcAwKAQX2/uIclWjcbIG7GOnGABYoZvUGZAkjIhzTMr/OTdcH5NgvJr3nFWR7c4F6+x2mNZTnius+7HVTj4Zp84gv/dKkTn+uJdAu9JnSXExflyzvT6MlGTzrfStuNGdY6EVi+nkUEUUlOnDgeMzMzFni+ILpXMyCh+mEEq7i4RxgUGvT2zPlB/jqk55KhzktjvvRLE5lP7LB12GawVdiZM6e9iBmlWJcJ1MKt6fFMJ7P5glDEqXAcucIrXFHgqQw6SqFSja8q5h8MKR7i41fi5Xc3dd9rn8vlPR/ekwhbZWIhy9WCd8ueCmJFVSoCz7wDJ8iPMvYnh2QhWanqGgBiXRxbt6HcJ6cmvX8qZYEVQffR2TNnvDsPYwVYnKTll11hIJePFa3Kqrys5qXwA8GRy1fP8Tz5QbERHkXBOffxJz9W0BtlF6NSn7lPdyLWFPWlnY6eyRZ4qTvkHl6K0oBSNvDEH//yHAuTeGggYIGgdHnJIPyrMq/l4DT0S4szJ2lgDVCHsTynprOhMa13jXMABwtiVZY8ZZLcZZ1OsMRCw8kS3ZWyJm3FqeQcnjxkowSeeAfIruLghAwUQgkiS/wBdMoXGSEX0kKGWO40fHjn0qLSe0QceobnAR2HNV/EjQ7JyRjMoGZ3HuoM4diakLpAnrNepQyIrr7/tU6m7EWFb/Na/LljmZT61JYxYeu98hxO/zrnjiPrEgAPwRt5xY+88o5AjOXT3cx2h0zAOqQnJX+o0ZMZ34OoJ1t0yfnTTmpZUYkgWl2sTaNiIHj6/FFW+RgJ0HfPbL8ceyFtLx1wQXa45jQzRKKVxAR/qsAV4Y32OtYXhGdIFyITvISPPfponD17xi8wERxSfETeSUBx4FJxdl9D2VJVYF2THhWHysL9DJPhoIy7K+Lvg9os1uiqR7l+W1pdp9D9soHSBlS83ECuvjg1buXSL4Dl7fyWdOW4zvJgyUkCJXJC5pQ/swjznuK08hvxmkPCkgZWBcBAq/zsmbMGzxzjzDJtl4flXitkyt+g5rsiha3ywMEThFVHOFrsdL3CQ71fFTtycz5qXdLLz8+Wr675QfYt8UO+Bz/1aM88cOTUTvd41vWzPE9+6Lq+dOmy12MSsL6EhK+tV94V+Kzdoq32OyO56JmqaOEdfpFXWgq45CvLjnEzlHyOpUJkA5eyzXdJD+S9yr2zmufcsiz0ENYXSrjOJCVOyrI6FL0BRv41/5lgdvMSWeUDC41n+EbkaVnO7ANMl3/ylpYQ5Ud9YkYqCr5bVslfspqucK973Hay+lddu0GWN3jAR+5xXsNBGU/Glc+onFRnSJsw1CMaYMwiZ5P9mn++NdroSY6UQTrdcDgo4+6K+PugNos1uupRrt+WVtcpdL9sfL96sjUxPuFWNC8PrWIKiheFCpOFjQDlL6HxEAKkUOoLQoGRIEotZ4tBFCrHTi4O2qeZsLvGQHY50mm/OHKkxaw+liy0W7BSxieOn3A47/WocO56cELpXJw8TzymTNR+vqvM04oi87rKMS+ly8eA/Ex9jiAZLmOAMo3vmbofPRSNLlJYh8gp492+9fYwleod6VaVY6+7h7D26rIRK2lABiVDWSqvVd5t8Ynszwtq5Z4ViXCUgQFQ5wN9LLxnX8+cKr6hli6WBJWPlxTFw4doIbq7eB5Cnuk6ZZQOqftft/hFCujwuUYQAqB5BssS8Klxkga8VCUB2U+O8Cie+g1QJ6iE4KM+D9lX97pZqCx1+2b84kEKEocciOP8+fPxyiuvuHEBuLPjj61Rg1x2B+I86URJ8g6lcqtdyv2u85zT2qWOkx+7ZNF8OF+SR7tMyFObP4ewH0eXq1y960tFhggISX7tj9xUP1gCk/fzHUfh4yhfyqDKk4gIR72iHBSB/SVVLz/yLFrVB6zyGVnTNLBQ+rznjAl6fZzC24IlTnQLf8SRLKW+IOPw77jt6/+QOLVir1aDrZ7in7967igcVcZP2csfT5HzJMc1n75jX1+W7ZAUXa2M7/ONx8N6kolmjZ6EHK9cxgBlGt8zdT96KBpdpLAOkVPGu33r7WEq1Ts/CD3Z2t+lxdlnJTc4yIbQrLWh4qgyEEqF09eSwkr9l8IrP3NAw42E6J7S0eMFOu7pAW8XVu6nRaEE+1TB1OryiycmKXi+H7erQt7b3vGHlIdQIj16kRX9gFrBx1R5Hz571l0/jMH5RVEm+VguH7Nlr09/QBddofCqov4OH4njxw4t6F5mMK7zseBtWs/Z+t1XPtmRpX+AGZGsJWN8DP5Yg0TFJW9SaG6Ns0NLUX6kIgallpUPSUo8WcD6UcG5RqnwQWS+6UfLekvx76oglKK/78dHb/clnz3JcRf51JIVFQkrXLdTeB1ZME8Bwz8fYkVuLfHaqwd4mfiqOVCDLPrVKu5VxaD4cLZyGFsiLv1Q7HTz0AW4hbVUQtItyKeqmNHZL3kM9w3GYM+AP5Ar6Srtodjc2Y91uX3Jd19x9uoF9kePFcOw/MaHhmNibFRlq1a6lMfK8pLrlOuaeJLASqVk7ZasMRUWHyHma/x8qLhXxx7FN0j3nuLna//IiLq1tLLic5R+r+Q8JIsA16+XgU0FCIOc2Egdt6N8Mj67p3yygUBfP40CxqWQJeCVAIU1jYN2lXeUFrMgUaKeDVl+jAuOia9hpYfi5SPKMzNTqkeywHr0jOIjjV471e99WW0HO5JRb6yurXi96+62+FJ++ZA3culTPUMWFDzWDIqX/AFc7i6l/gA2YhR5SI2qPlCXJEeE7ndL8pfL9aEoPoRUnEsmlSHP9+ldkoagtO2yTqR8kemgymliatJLZJAh8ie8N25QGr0ClJ5elaP0Q//gSIyOT/p7l7yXfHlfBysnGmFOR2XN+wOYADo0aNj1iD114Sytv8wr4Mt7sgUg0KD3j2yQlxJWZcPzw/08z8J5AaB+KEXf51mlSZwACzlnUtW26vmli+dj7sZ1NfRW/B7vs1b2QHVjbND1g3QUk3gb5QXV/S49KV3R6MkHW0+29nYkGGV4Z5st0NZkLSzFutzWxqoq1aqU3YquN2NtZcMZNtPUcpzOFa+P+JPAriL2SyJBUDlcq7hfKkSek1XeB5nLEhpfb6du8UXuQVXOAVWKXgpSmRvWSzWjVhTjaogJIfBSU0hkuE/3BwaH1VocjgG5Hvlvq9CoCPbTy42jcmzvqOKgoHEofLcmskJQqLULjEI9kOT3JGRehBaVU3yR2dpVxovRQ42VkkQGZNPy0ZHWJh60YAiPwqBiWIkrQgqLikCF0DuZzrk7TLUQa4VAxjji9AslOfFl8gPlq6U0kBkVYgen633Jt0cvA0rOH+SVo9Xrl9dgUXc1YQYf8sn9T5eXFn3clvVAZaOiDfSonA5UTlIgPftYJ6pkPXxdX3lQGrsqw5bicteHrkd05Kv+I2pd7+xIUUoRrgnsUGgoO1tu4kd/kiMvLuXBiyNFpHIFOClL1eAYksUyoIrtGqT8o7jvMOtU5bCuSux6Rl6pR5Jp1sWUFf68BCjv3j5e2l3VC7qhFaaUPaxUSzKdZCw+Ue6AFTxSf5Atrk/nAP/o8DA63UqZ/WH5csngIBaYFAN1Q45j/2CvXd8AvEQsLt/JDdo3BabKL8ctKao91VsrRx37lXeXl0EDXqmrZk35IC4Blu7tK/503FCGVY49uk+mUE+8+PAuD7sKpMgE5zpNnaQsdOtAvCM7y0zK12sFJftUIORJcSicXg2BtZ7nPaSBI9erdxGngogNGgRS0liafHeUd43HkV8FSCY0oQOQZ97LcMied4X0aBSgT8yb+ILffD91V+GUW8mKxpr8BJwE5BxQxfkj1chO8WGVkt6+gGren2m7pXq+pucZLyTWvRge6hNwjiisyoqYVNcP5Bo92ejJbj3Z4qbHVZCgqLa4UWZWFIrELRddtwnOC/cpAk50fAf/ctm+djeUKh8vB4KkUqBsmYnnlqkIxUHLGr5oedNFZ0Wm1gjJuPJLKBB8kTF3Gekea6rYsYZvF2Ih0DXiVrzD5oA65jnnu1gUitBjCHKcE79fXq5LGvdD5M85JIJCteJDymqbOPfrLwHYcd0d4H0m2KJ8qQxsdjA2OqaXJ5cQsJyD7xYyMYIuJmTOC8AL7vwUnlEslAvEy448Uejc45oc0vqEUGDZSt0O1llmnCU+uaxjqqRySJFy6CbKmDpJfeDck44UH8SYYq0rDqPyzXDJJ2RlTV32la75+eJwOvhRJ1wvSvnbiX/AEQVH3mr8ftHVsKBlnS9bWgeUqBWH6jrpsgbPXUKSN3mtFiZE/cQ6oKWNg2WWPtC1bFAp+aEu+ygZd/LY9U6+C7lu1ZNKRS5kH76twMi8qVMnnW/JgeCpF3JCFmCY72J+Ms5jz8ovfLOTTSV2tHFedHR4/WxlKU7k47JWGlig+a5Rd2gsYGHlGk8aYbU79lAeRGZZ//jdm0q+iiNOZEsdJg9WjChK/axTiszhhXLo1pOw0ejJB1tPql6oAkhICJ6F77NHZj2Yz/gEH79l4JtBZ2ZPmhBaniXp4i6fTJGD/YuoShAKFjM/Fac8JAkKmMK3UtFLxDgJhYWCYBYehZrPYfqrQiisW2oKw0vHgDxfdKcysGsGa8eoPFmB8sUkLMlZCCO0sHKHD5ggbipqMoQiQVlSQUrr756kMH60htVTXeemWvjFUQuoCu1rV4sPkArLlT2PF/nlyqUJ8G/lz8uCAi0ORWf5yOUatlSwvHS07CArF2WHeIiTc/xcJgI8dzfqQb+oupfgouexgIhPaeb9lEmKkvPksQPYB1biBGOyEHWY8R4UBOF40IpEZQ+4dcoEooz8v8SfRJo8C9hRzwB/jpmPvEfLs84HcGNADguIcNTZWp5uCChuuhCp8zvbAK+MQoVhLIpxM2ZrMpMWhchz8Fjly0tLHCivdDrnGj6Ku1+irvmoZyp/mXesCaWndC3zEoYTl7/KjQuPwUq28MC75Mliq2u6z1IOrOQcz6Ns2UQDveEvlJQjZcO7zIe3yZut+VIfsgssrQN4SJDIOkhZA7ZtvnEi7qWsKMSuAnw30mOEz5mze7K+BmydzcxMS/ZDBiFm0kKkn6AqoFGddJl36Uk+V9boyQdbTwo4UQTZb40g8MxWVL407QrqF6gTCfnt5JmXsONnb/kdcsow97KFm4qxxusCkKPgVthBRQUMPxQ8U6qp2ISjgCH440WmVUgcuypsrAHC89WKs2fPxlNPPQ0TTrMutK5p8QyVAD8KI9NHAWfhUBFQGmSEQrsXkYbzXIjrPGb6HLsLv+MUf/7L4wdGWQa8YOwugkO2tO55+dnEAAWBPFHUfgKZSGYougoWtMaVQ4NrzTSyw5EfWsYGMYVD+VXiHvUOpcQ58ve1wkGua8isyKWWMeHymjIMK25v8ScFw7Z68JQzGFPZk64nT0hJukUtX+LqFFY9z7rIEcsilWbHEkGJ01K3PHhp/OIkMLcVj56m4ZCNB/FNR5/OOYM/JkwxcYp7TJaZnpo2wMAr8QGeHPlySm1wuDsSeQoc7Hye8vV7ZJ7vg4roJbr2EZeWuOLqei8Ii4wtGstZMtcz5D3rQ5YXM2IvXbooq+WWZ8miyAnHUhs+uv3EE0/E4088Hk/qeO7cOb+TOL6DyjIeZAoQkTbycTpEIKLcqIsQjSk3ForczZvLq8OfwfMe5KcUlrKiLlEfWAaEo34wixY9Qd5Sv2TdpTy5PqQnxbN5kWv05IOpJ60VqQRknQqLgqitbCoOXSYcM3Ni2oXbIfyc/0MSycK/20HKutMjfghFnJWZgestT/mGwbQkWGTMpKWchcYLUgVHIVJoXLklpgrOdnAnTp6Ip55+ShXiKSmg7NagVZzP7LkLMqfD58uOcnPedJ/8wxc8wjBppWzug4ijOF2UYxcpSuIz/+VYXbZinOoHRvBHa5GXgtY2LypKCnmj2FiPidwBDluC4g6ZE74CJ3nGEReWBo6XrnZdQa5HcijJVEaqXzriX+sACq1aeI6Ll1dH5IF8KL/6UtcuS9aOImcmQtDiJ1y+2DjSL8rMZeFkfF2PeS8p/TNcjr+l8qvlAxHGCkXxZpmpXugWvKFcKD3ygKfjURwo1KrUsxsMHsmfGiCSOcrv4oUL3iqNMmCnHQCpyqe28DMNOZ9Xv/vvIoO3zIdcO0+8tygG3iMpaOISq52wUB4tnSoj/ec26fMuuauc8tLzBjm9L+xdjDV2ZEbH9sejc73qzJHc15hwvG88x3tZ5WR/OXjAka7fDcnPfg4FZRnWsr4n6VnH67g78ddz/UvZykHw5vLknvPe0ZOUTaMnH2w92eIGjHAjp1czmyo36kboiAp/zPzMMJFR4Oky9urHsePqvUqEQcA5/TcrRFUCkonuKy1VEK79IotcKcuLZuFJcNynpbUrnl2ICoMip6CpXMS5cPu2Kxi806WRz2Y3U44lZWUj/iyU2spkQD3TonLUivvehJTKmfLQzrsor5Hx4UrQdgQq5x8koTDILy8bcvCsPf2QH1YPMsDPVqMVRFEwJT8oW15a8ko9Qc4ofp6vec7lEggjZZ/yLS+d4uJeKs7SzVlkzbWpyMThqBMG2Cq73HCBepDdiVAJr+drHakgT12AE/NWS0uH5C/PSZc4CZ9KSi8LTueOA39ZR4SDD15kx6Y4XD/lV/OEbLCkmBjT18tOOmOyxsaUj4ilpZVYWLgTFy9dihdfeileffXVuDk3F3cEmqurK23ZmF/Hb/by3L/ku837fRLipIzhFeJxlKxdSY9ALmf9OY8Oi+WRXZmZ916vX2RbxexmZtck3tHedvch8kL5UieyDPKdowFF2dAIgWiIVH5I1HVDZ5lOvq8JdrXcuVt1DTKgMXNvOfBcre8MMRAvXZVsbcg5W02SnserlbZT4Z/yDo+kxWXNW6MnH2w92XKhi2GE5e4nka/FIAXBAwgdQWauKTkHM7lS2HFBpqrjHt618tjLLwEvjwfedY4oiZ9uBiovzFEI8MBDhMFigTf8uaZCUKkY18I64svuvDx8FxI+cXO35ly5KXwqRc0LwiduzvMDxNlqpKLBV/taDoFVmdyTFKd5zgufd65JtqsS4Iqc6vUHTaRJPmuXpMcNxQYKjZer8m5OFdbloJeYlrafkfzb4fTHOS+egVM/6lUqmAQ3K6OSb56hDAmLqy1k1wfdq3WyysVKQeVVJxtxb0kgwySmK1euymK7HnNzN73tGBYbE5yoAyhyvpnJOCJd0N1kvmH8EHXKjaTNr+oFL4/vyj+tI6Gf7lM3ursR8UwrE/4dnRQbz+HyHdAtH8kToILVST74ZBuyoiyIm7So95RRbWzkdbVy7lNZkYfiHHHJl0lpGHjMLwo4811uOX7Sg2gw8D4RlvIHMBlXgyhLlDLvLo/TDZtKPHnM9yqfYSyQMmGSBd2L8MKz5kl/yIVzyg+5Uz/QRfjxg6hf/olJW5xy9yKepYzghyP5QN58hgxQBxxJM+tjNgghwnV3Xbqsi9x9Lb4aPfng6clW7VZz5dTPGVElgXigVmRam135E+npcn3IG//2sTujhM80XPnkqjAocBYFM3OJl4s+ZOKsLUkqEeGxejhSiemmWFHLicXwWEi01GntkSJdEaSXrfyRfElZ46dKhBVUP/pKnnm5Kz9UglpR8x7H+6wQ3wVZMorfJ4V8/QERZWyFUBxKE0nX8mbMp4aplZoy6K5AOF68zAxdSdkS93iniLJDxrkNWVoqrlv6cY6fLTLiEJF/5F1fJhhy1PJPS0etbd1nfJAdiU49dCqeeeZj8bGPfjQ+/ekfMzC2rWLSkLIjbiwIFANdvYqYpNrkZODJySVQoxDII3Ul85nd1V4OIIfiMC96nvDVwTt+zqdeH+qVW+U6bimfK8vsUbqusC2Bx6QXqTOxZEJ8o5xQcsgeJeVxNcUJoOBHnTRolmu7AqDfKxG/S8P5r853Mk86q40C/BkbqxYncuZLOUePHs2ZhuIfGcEPVjmWJu8iMq+bKFAXXB5yfL/SWyTKER95UZKZJunpiDw8A1fhuQlPDlCp8EzJ3S8RnHhp3JBOli/fuNzzGDR8tYcbimzgL8s0rxPES72RP9ToSY4Plp5UflWBVPFdEKpEVCxacbykBGBLNWafUYn5xh61ovaZE0laFCwuZ5FsWgJM2GB/RxQN3Vy8QFUAhIWhWhmIhMKhiwzmsGT8wnhMJ2eD0bVAnz6TQQjDiwpvVC668IgX/pntRn54IclHVqAev+R0S7gS6D7Pwjcf9yV++MCSym6b0vVSeGT2Ha07iMoBT6RPXArSqVSKk/zTcqXiEQfPIwvyQ75x+OuGW2guAPFjOUA6ck46KFh4d6UkjM6RNy8myp388VKQJt2pPFeVAgHhzf/keMHhi7QpO7ewpSwIT/7hH4uidgd5xxFRtSj4AgpfjEDQcEpa5B/FQyuVfHjGpF5ElD5+lDtrAHk5uQ+xDRv3kT31hb1usTooJ15mFC4WAHwiH+RFWvpzecAb6R85MmuAAZgYMyPDfvmVHnXO46iWCfUtZcKLzvPcJxfINMd0WPPGWBuKkeUhWdaErcqRbrHKC2XrOHROeBoKyNLlqngBAS8bEODitbmxpTzTGGFv2jHJZU91nPrb5/G/p59+2hNpmJBFnpAH6XJOvcVCQ1ESP2Ms5J86X2VImi4Xy4m60zmv11mHaDmrzunc77fKBB5oGGCRU8eRhz/KrCjZk5gyJl2OhOej5QANdYZxL4716yekVWWEDIkPvm0F2a8sWVEZVws+ZQZYpixJh3yhoFyOerbOwK7WLnmugE6cWX+yoUFZ2BqS/KlLPM85RP0n/rpchnHXM2fOeNyVuoMMGNdH//AMcbp8lb71ndJr60mARf6Nnnxw9aTSggnHYYY9boRCcYziUfcRAC0SKxKnk0fI54RVJBxt8otpWpZUxFpwCBLnsIVIF8KvuxBQrhZWEVgNA8E8ArEFoJeYguSctOCRSohAUYYodgqTCk0enE/FQz4RXB7T4qFFidImGRRUTS9fkGxtKJTOk9d8ESTYEo57bpHoGplWoiAg/B1nCY5MXBGqEETts0PeHVnXNHiOuOANIr88lDx38eP/xUf/Mv30ocI5fVHKmPDlpzTozqGyVFkR1IpXZYKMcSgtKn8qMClLKQ8Ug1NQOrwsyJXnkVlW7EyX5ykbKwBdcz9lmXXAz/qanMEnDu5yDR31gPsof8CRuPHj2XSHZVJfKI6OqtzjNuEdty54UcgzlqrrseozZU29RrlV+ddn8qgzpyNSugCl+SPvct5NCdcDzwksPEe99XIUNSg6y2jUyNA98sPG6MgFsKs84Y+8rYB0j+QLC0n24FgcB/mZz3osfOOoqwa3Is/sluQdUb6dX2ScsoVQGi4rOXgC0AApzhXYeSAF+KSukKblztHyRSESU8o785XKEjlT51BO3COP1BOehSfI/Pv5TAPnvOiaZyhf6g75cP7k5O2ysFLUBfmlkQWIUBa127tObjIpnOPTL5U+8oLrRk82etK6DZTfs4LAquBF6BRcZp4w7kKSkrJCqvFmtvwj3/hxTrfA/PxtJ9SvFi2FtqOWNjtRpEJ7byJt0sWB/GQcRwFSCPBLPK7sSoNKQlrt1kmpSDl2cdBuUVNB8IdPvwj6ES/pWVGqkLmfrSSEn5+N4pqK4CzrP37IyeHKC+2b1X2vRPmUQoJHHPzTEkqHZ/rXE/PZ8bwvIo8oCcuvyMpOMsVR3rTSaAETP3LlPkQqKAlab1XeOHcdltY3LzThXdalcrvy1XPiKP/x4B7O6befVZ0iPfKlYPmS4cgrj/FM3kc2ydn3R8ixgjz1rtZBg0lRDDhTT7746cQv/MEQsYgnKw4ddVcyyfeGHVbohvMOLc4LL3N5zoeioOVPveS7p4x/YtG5zqm+1frKEaVUiWc7RBz54y+p+/57E0rHwKD3jfwwJsk4mcFH+Sc/KFgc1hm8oFipD/gdmrhC+VmyWT7lsrjszsflu516yPlUA4Z3OxW5coKredCzLvcu100Zffp1/ycO6iegkd20OfkG/3aDSPInj9XSRZe4MaB7bT25lZs6NHryQdaTYqAqhazsGTH/EQKZpiBonaEcechpO5iYdwErDhhTeApncXHJkzaWlpZdcHSdwTjPkPC9yC1NPUO3C2lmiziZJj6UTbdJzUt2SNEV8/rWrTnPGuMcfzKfLzwvDIO8vCTJFy8rjjR48eGXPNk01/PZkk0lmDLJNPyylUKs5KwiDzs80v9eVOMqVSKfF381nxwzqoy3HW09r+ndg8jj3ZXBeehypI2fwyjfpI8yZUJLbWkiG7cmzZdbYYfiRilhldKqR1nhBxEXMualom65TLtA2PzIQclH8livyWKyiaSw6nipffv7IiSf1pV4UT2uFnabLzkDpDf4Sh4IaycezY34SAWLjNTAcD1G+fdK0fKO8Ux2V0H5PE9m2XOPiJEp19WaQ47jY3SVZtcjzyFTnkvHY1l3fJVeOuikeHKeMrsfot5Rx/cNmnX/UxQJQIKC5VuUWC/ESThkhlVDvegoVUdll2WXF9WbRglnlnmRvTnkpuKtsrUCh/cu/onPeke6gOD8y/Q4yfuc209E/QRA0vrKLnfKFckQD/Fbt0j2CYpp7VfgbPRkoyedBzmVThamA6kA6Kum+41rGEIgtByoPNynQHiGhGHdUXAtxvHj2SVViGtXr7lSoGQtSBUAhWDFcA/iJamKCoWa3Xu4vE+eXfCloNvOlkGe8yLzUddbt+Z9pOVOC498tVuaJTbySaXnZUEw7ZfC8WSh26ISLygPwldlhyKhsrjw/POTvk7q+N6LOpVB//UIcbQrvvig4suTP5EDOEzGX1PJ/+9FpJMtUF6uUhlMJT7lH6WCy3qQy02wQD3hA6WoMPVFg58KbrgaH368gFmnpKRc9ryE2f1DPLy8Lm/dS6WcFZU4nH+F5X6tN5arnGUlxwvNy2n/75NgmzqXLwt5yfrn8+qnPJGSwyqv3S8VecPRgsdRmmxYjxKRCJVfrAGVowA0AYM49DxlwLkiJQ3OyTcTnnjvqK+5y82MuxiRE/Kkexc+qjOVC/+KZ7nqhLkH8Rz54h1ifBtlxNgm73bmpb4XySfn1Av0CKnR/Zj1gvqkvMrleTrKrJ4jX/QCeaSrn/qCFYs8ScfjupQ/MtKxZqEdn8KkUte5S6b7P8fy32LJcqLu13LzDd2HX5My1eGRS6VZwlU9iS5o9GTmxXccz4OlJ1WaHSXEjK3cKovPRlH42WVEq5eXxy0pFSgMJVP5HMda0ZhsQGGsrm75i+T0h3OfFh6WB4zcDzmbxElB26XSYVyBwnMlU4WpjtYWhUOhVT8Kni4kZpKxVAFHXtoiE+8IpQo9/Rnw7yhuiLj8guic1h33yE/1TxmICEABlQRcWPbL63uRq0OJK6PK/Lu1SOWXXDOqjLcdLef5QF7fk7LMIMXkdFAKWfG6xjPkSDfH+vA/DFC8HCgAlCqWBnXGclIYwvolK3y7fuiX4JBWCwoin8kX32XoFy/lD8ETyoByzeuMB1nhn2nVLrPvj4gilQyt5KxzHH0u//STgnVaSl95rfUtFVbySL4JhxJEHijV9fVNKVZa4IBB1mXI9QflovwSH7LgGrlZCXfJBBBKmRJHfkGkU5bII2WW/5PsZ+er4u6Hkgcmm9BVTLpZI9jubdOTgm7LSqE7mfuLi7m/MeCBfMgX6VIuvMd+vzi3y3P80rLh005lHE7vLNcMBRCGPXsTNFFenTzqVjsOx2fP6riZ9znnoCeLrPM9br/z5Vj54yZpGKSVFHXN/jraX47Zp42efLD1pDdAQIgcESB99DlzjG6MVIS2DMQMAqiZJzxUr4mMisAztJRHRwfV6k4rhXv58kuY91Eh6H6g9QmQ22IRXxSAW726B2+ptNN5ALzbKQxhZ2eP5DIFFSJ5WF4qSkDnrlTihYqPQCkMF7ryxYxIv2CWTakMOrelJf445yUn6y4k5Q+/6hxhmyxy/+5FyLJduXhCcdWCqs5xO6oSX73Uf45O/p7UibsqNSqcXzg7vXTKK1YmeaYFhwyYbEAZEr6Or1WeK9/ES3ieoys2lSmL4tNKRa6UEV19WE/Ium1xStbURdJyfPAnxyl+NX79uT4TxumpDMjT90vElUsncoyIc8uBc/yQheTk5JU2SilBnzpSyq2wYStK+aR+LKreATJefqFrlGeWpeKo+eWKOEveuU85wBPEMg9mS1o5yx/5Ex9h9WcHcV098tx/cuWci/skeGE5EemQLlY0suYIoLJJOB/wBizpbsQ6ZacZ0jWgKA6XVxFKll2Wn/MlRz2gPtQ6hXxIl3eY+gBVmZj5dgZqXFmPiavzy/vd/3mMeCAaQVk/cwKYy5R4xANAWi050oSfOpZZ9SSWfqMnH2w9WYAz92BEEYyMjAZr5SxoCZUuCZgkOQTjcyIqCWcG0q92u/Hl94ceesiF4cpUMyLXyfC7E+Friykd/eq5+wiVjKnLhKl5z5jvJizo4ZiamnY3F2vmyA/p4xAArTpXCBEvBa0x4qUS1hZffXnhg69a8BIRhnxaiYivVNyHCfkgk++K3iabLLB2a1IvNRmlLHyXcrCH/n8XSWVZZZyAHC4tqpQ1eeWe+RdLfkGl4HDIjun2fE/y1twtAUJuOrCyuuqXP5VHKiIez2M6iOeRHXWpGyTTvwBR8YN4Lu/LL33s0s8BxCvp+eb3TUSZaSv+ct5Oy/86hL95Lkduwy+gyZgkVgXfFwVg2FaPtYI8g4JKeXTeKRLL+Eg3gZOGhe/Lj/exPSFLz2P1MPbYoQ5vnHWuOvROfu9EpE8jCauKJUXwlY0JtjzMdwa+4BF/8so53Y3MBCYh56mL2nWgFhTXOqDsCQrossxhRVYPCpv3rq6hJf9VLjXWjOquOCFO7Z/32/eUCDzhh26xHjFwZmOA94wjjRrqoIFfdc6NQL0TPFf1JPw0evLB1pM9c//iCwe8HLQon//WN/1B3tHhoVhcuB1bm+txoEDrqsyDqiRvnL8SH3v2k1KQG7ZGeLlglgLKrpv5ePTRR/3V9wsXLnoXfuIeH5/wbi4U5uzMVJyYnXHeaUEze5NxIFr3dD0xvkFFmlSLbmSMxdV8h1Etbimg8xfOe5svf5eOCrO9qTuKSBnckFXDlmW0fs89/rgqd68VOWuWqBDLUuwvv/yyK/js7FGnPdyvF0Sxr+iF5YX59jfXYnb4Z6Nv9yOxtXIk9jZmVTvvPdbQUEMNNfRhop7WXgxNLMXg5EIMT12JsROXYnhy7geiJ1948aU4febhOHrsuHCD9Ze9bmSh1NmGkPgFObo/63jocXKzQVixJRzgCy0M8Rw/cTx7dQRIfJ+WhiH6/qYamafUoDh1+iFbewYtARYbOLDyo7fF7ONd74UMHtLLYfAVYPKx/OWytpgPDGyoQcZMYPcQCNsg1tDu7B7E2Phk7InnIeFMr6x2vgWKhb4tLJy7ejUUKMblT5MBNzI2Gj3icVmY1YIpAK9fwunv61WmlpX4HbX61GrY2VLrYVUtalBXLYjYi83tDUmAQWJmWK4JgdmRZVum63YM9Us8e1sxf/OaWsOtmD3Crij97jvf3NqI7b3S7SfgY4IELWo+DgtoIwFaM7R21EhxS4oMbwkct3hW6e7peSGZWjFq1fUqPB+fFW8UEiA+NDTgc1qII6NstTZqwdICY9H5MRU0MwEBW67pPlhauBO9O7Oxev4zMbH492L7yi/H+o2Pxt7a8QY0G2qooR9K4uPbG4szsXjx8bj+/E/HhS//ctx46acEBjPfs54clNU5IIyYVPgh4cWODKs96eceYcOusMKGlsBxfHRMxs1ATIxNRW/PQIyNYsnOKk42LWHSmbDkYM+6HisZsMMytZUs4MU6hTeHE17QfQ5hbNkSFlAzY31HGJJgvdN2TMAbm5iUvyxhWcM7AtzhkVFsK2HKgcMI+wWQzLFgSIEeLhligRuQHOT2GY6iR6zPmAje9LTYfKNl63x0ZBwMYwswdjQhYUx7ZkzBD6bvri1OkBwwg9L8rY4M7StB3J7dgcCt52BXAmZGJX3w/TGogqLL5dBsM//PSDPOu6mTDrx0p+fPoOtR8+QoOmFtlttUf6fujnwAIZJJfpvzT8TNF/9K3HnzZwX6fD29oYYaaujPFu1sjMbcd34qrn/jl2JLOu+71ZMCBoNij8P7rh09tb29zFFIfex7cnSdMhFue4uv/mzL8tsWxuSEOKKFancwseV5+ifVUPUIJVJgeTIDmK5fQHRd1/A4OTktw+wgrl+/UbYDTpxJTmvkOoc/5WNP+JbgTN7IImPaui/QPNB5Bs8YEnccpagVLcZd2A2E7ZrqFkw5oyy35movBC592fekwhR99liSddCbQWJ2l6GV8T2RmS4C5kcOfJ23EamzqLSrq+G5kX4SEP7l+fVbZ2Pp/C/F2vxTGUlDDTXU0J9hWr1xLpbe+PnYWXrC+h2Hcn0vPQnRr4ffnhzP8BTPgQt1QpPnJyi8gtiiZJzTvYabWKP51RwANffirfMZ5Bh6KwZVhzh/u+PHpCyGA8cnxo0zy7JYmVELvrD2FCPtXgTOma8t9rHmSzfF2uWIxcuY8zuMyVZqzd+ej5tzNz1GyT6ORnFl3nJEgGLIAQFOeH8PQjD0VTPjjvFNjss6Asj0c9fJI/ckp3M4MQTWJp1yZT6rP+XhigDPDPTnTFDCUMgUugtcR347y0di4fWfjO3ls/l8Qw011NADQNtLZ2L3+i/E1tJMW0+iUcE0dCQ7XCU4FvCsehRnUEzHNfc8M1zg5wlc+FVV7aO1LwrYurkdr8ICmkwqYka9J/+1wbM6SEeiMKUf/DJZ6cb16/HKK6948h3YxUfVr169ahy6F5FuTngc9uQ2XN2GsTqG/96NWgAZO1hgHZIgfcqVUYTEqYXXlsa7E4JhzRoDrMzO4usJJ44fj6OzRz14TGYBrntTCj8LwakXmVU+dCyFmQHhUz9AUc6zn8RLfZ67WWgJqtDypadi7cZjPm+ooYYaepBof+mZWLz4kUN6Eh3KjNQ0mNClGdagJovSY4tStnh7iQbO93neIX0OgAJMjB+i8730xbOnc7Y4D+X6UlyCJ2Do9boo83sQcVy7ds3fsr1y5YonFI1PTBjDWBPL0q97EfzTm0rDAcxLfCA/NdPtf+9ILQCOdUA5/ZoWRQIPgkshKDOlJXG/BJITb37x/UhMz0wH+yCyrOH+qSs9pe1f8eIIP21HWOWXAk8BpMuWVFKCqvzlNhdmY+XSk+VOQw011NCDR6tXPhIrt6ZlObY8e8S6fw8dmQCKTgU0sSZ7ZQx5jorOddv6tRoouAxb9TLdsIAnS6dkHTLxVA71TVjAiXDV4jRoVowh0HtSrhFm5i3Di7NHZ+Pxc+fi1MmTXo/KV2+69f67ET2pdemdP1wgAMUvGwyAiUM57DtRC6sQh0XovmGFrV9AIDPeQkkZvB8i40wpzq25cq0PDEHEYRBGOPcgy8+uCNOe5VCu673ibWqDI+nqvIaxHLiHtam/9ZunY3ulmQjUUEMNPbi0s3Yklq6flq6Uzhf2MUmVyTXuqpUfYIq6BTgH+oei1SerEeCUJ98rIKytNgAUMGwbWcSeuljK2BNM9+USaNHBqZdzjLOMjcrhl4q+OIWz6/YTeR6OwrIG9sknn4zjJ04YbzDWPvKRj8Tx48cd7r3Iy1xoJMCTDaoETH73Qy0+M0OCY+NjCZzizRlUZLQcPF2XKVP3QZja7CbhJSUSIhms+1amoO4POO+m+kh9liNnvm5Hl1muIMlJ3idACqUKZ23+lJ9oqKGGGnqQaXXuZOzs98SOAGqbWbBCxB0AUQ59uo/+FKj56y10twro8DPwSK/jdgVAhAZUAU5moqLzWanBhJuc37Luaz1WCCuzujI5CIdCN2ASBt192PE8G67w/drHHn3M6zMZbly4c8dzaFiLOjk5obD3IEVkA6s4W5tEXvhrs/kuZEQEYNi6ib5omGM2ES0DLM4c9E3Aq923xM/R/n4irwHbXYASQRYJccRZwLpXgbT7HoBLLPWZjFH3KbwSphJn3c8TtvKU/ClT4oswHLnhVo6odgdszp/wdUMNNdTQg0wb0oWbexGbO/uxsXsg4JThJFjYP2ANJKsjWO8pA0gqVBrVeID2PRDYSdva5XyTTncrjm5QrLnsDmV9Ze6+RDgMUbatY92o9T56m7h1j2PqdENT+xksSnQ8ViKzYR86dcrdtDxL/MzgZYYss2I9wZV4y7NgAtjE8/AGYQwyRAnmETezgukCro7tCemahtxtLcr4eF7HzS//Vwe3Fxa8q8Kf/PEfxcb6aowOD8TeznYciBmhYPSxTmdgKL72wnfi45/8VOyoFbGr+4P9ygyLX3W9trLibcX49NFRmcp8hmhrZ1eNh94YHBpRC2ZfrYLF6BUTx2Zmgq2aYITd+CkMcre6tmrLl52GnCm1cDz2qkwCvAwEsziXRg0LcA/gsQhzdW0tbi/c9pqex86dU3S9cVxh8XffvAp6/vbt2N7sjQv/4m8pX83mBg8y/YV/9ql4+pFy0UXbX7sS/+hv3NTZ8fjLf3A6To2n/yG6MB+/+csXy0XSs3//k/GTn36HOnVX2MPpbsYrn/p2fLlcxX/+sfiVv5Jf0V/8n74ev/1rPn0Huh/e7gqj9/OPfvq1eKFcdvjdi2v/xbfiX/zT9G/oAaPWXjzyH/wTbzLjyTzSxSzvkPKPwb5+48CA9P/OzoaObIPYH9/4+tfjodMPpW6WLp6cYM/dEUFF9lSy9eLFixfjiSee8DgkW/NhyLAkcm2F7TrnnPTDDz8So2Nj1tsodfAA8Lx85XKcffjhOHlK1rAwiO0l6Q1lX2T2ROZ7tkdmjghjhCuAptID0PZ0zq5Bc3M3nYfHHz8Xmxvr3luY3e0mhCvMlL2zuODhyLHx8Vjb3I6e/uEYGB6Lnr6BGBpWPna24tb1qzEiO3KgpYaDrGV2Txodn4zxqZlYXN2IVq7fXLN1BvoysQfgYjouQnGLQYxhLSrf9yRMdp4B+f2MBIbQbG2q1UH3bTfVFkA5HCJaDe90o/qQ1rvzdBDLK2w8ve5000o9iL4BtXIa0Hxw6T98Mv7a1wt4ATKf+npx87Eor4FPn4y//B8S8Gb8i5/u+JsAH8J2g2aJzyBU7xf3R19TXX9kNv7a33+3MZeheOxd770X3Sdv3SQl8fR/Xs4baqiSdOGt5bVYWN2K5Y3dWN2WRadqu7Mny7K3X4AyGoOj49E/OBIHssp26E3EspQhYotMQLclcGUdZEcbc8SKzHPsUo6suGDzgvX1jVhf27BRw9Z4XLOlKtvoYURhDOHYtYj9itNqZFJQfnINgHWMBIKACX4KU917EWF5to6V0hjAUGM5CpNYwb6h4WFbouaf+LviNcCzl+DYqNBWnpi6tBpAZUCUAGSGVkQ34JnxQw7PvAcAA5IIsoItYTze+Q7ACSVDyRSZajOZf+3rjr+ODi2qPPjXRQpD/zd93jgEwgQltnJq6EElWWF/fZyNtUSytP55N8hcjN8W8LxyoVzeFz0cf/Vvl/jusuigF/7Gt+I3/yf2U3536gD1+09Tf+Vj8RfKeUMNVdptCZwGRmO/bzj2egZiS2C6trMXKxvbscbOP3vS3z29sb17EBvesq7H+8syAsbkoLqBQFv/dpSzTo0AOtJVmkYU262CK3x5B8Ck2xaNzqRSeg/5OsvKymoO6+kaYF1dZS8ANinYdhx1f4E2GRa6MAKvu87zJB0f414XaCcmZTduxTP8NmSpkj6BAW4PSyqOGqYFs/ULCAAnX75gPYytNAKodeGxQlEFqLdT+hMHgJtjlvmpGbpkuxOEuK6um3ydf7BbrrvC+siB4iA+UinESUnD6dSjiILB8qRLgPU/DTX0bvTlX77/bstn//50TJXz7VeXDoFmm37t26Xr927ajGtYpNEbp/43D6fX+0UC9WtuEHyvFm5Df5ZpXVYmlubq1n4srm3F7eX1uHl7Oa7NLcTVm/Nx6erNeOWN8/Hmxctx89Z8rAjIlgVkAAs7wtFlSk+lFbcJLLBCzvNypGuXNZfueh1kCWR+kg3nPWBlwBEPk4VYuohBR3cqE07BlZHhkWAyK9Gh2w2g1vWZdAJcF14Uquf2L0xiIIJxPJ9feDGi+BqDb0N55D6Pch8sS9zJtFvs1QfBGH3RRAwa0wdMfzfAmtso8YjITNdjJsQ1RyLOPWkz45zn99h4Pq3RNH875MyIOVxSZrq6ivSHXYarzCRvZLtD7XMFrunCDztENPSg0s249Grt8RBg/e1Pxa98HffJ78nqm5qtdXkv5r/8TuD43rT8N+5kV+sj0++71Xnpn68EX1Ad+PRsY3U2dIhkVHpS0JYsyq29HlmXfQIEAdjASPQNj8X49JE49+RH4iMff1buk/HURz4a09Mz0RLguScRy/BuCxCq4Okju/W0POkGnMGhj9HN1TgDgwAsPi3HV7OwYrEyMeT8TdjNDflt5aqPNmgSP2pecRgb0jqEjBVdeJKe6V9nBYML/mapeAHU6ZnE0W2bWKV4WY+q8xovSbYAODIBgfb073rQV5khY2SmLuPgiYSneqzUOcfarCCFo3sUBAeg6b/OAeWuzDhDneu8TP+2X/ev+JmXLhZ8br+Ow6xnK6b6GTSI1ktDDy698Deux7WVctGmDoi++3jk/RGTbhKMO+7d47wYv+2uXKX/15+MZ9Pz/aF/+lp8wxbuUDz9z95nC7ehHyralJG0sS0ra0dOR5anHLRk8PQNRu/AsEBCICo3ODIe4xNTMT0z66UpUscGk25Q6WBB9zGdd+aRXgbgcps9AZjAq/v7oRyxONHTYIWBTRiE83kZ46xx6S+p4AJ8tDHC/nkwASvFg3k4uRXsli1L5vEQGenYsm2PcSam5VpT5dFp7keLb6ctLt7xLCgGaiuzJIAJDYDSz8y5edQ/M+tjueAaL51XC5Z4cAiG9TUwSNiOgJOcjc4/H8lzd+brebdLUibKL88PE8InL+ZTz2A9063Q0INMdWKN3H+RVlg3DXz6dPzV73oSTW+MPJ5nHtck7nuMbbbp1+YTyJm8874iJ7x1LNynZ+3VUEMilp/0BJ/dYhOE/R7pzJZ0v4BTyBn7Oj/oFWDJf1/6u0+GFktTgms9jcWZ44F3U0cjo7Fzoih+CUSCuQKcWJU5aYjvf7LEhPs5FrpTYpElLBzi8VymmBantb7+iL/ucFcxRlf+n8SVzv2XPaieBaz0Mew2WWsql58zYxkN46vZO0V8WMvEDZTwbOv5b30rvva1r8Wf/MmfxOXLl/0w3bQ8bMbEJJOD2HXeCTqqwrDPitM/C0EZ5VgBzkwJOHGY2PZX+HSZqXqEdNvXhMtre9ilV+eeqTDAIf91kYKRD1o08MFTgHlDDZlkhf0jQE7OM2ALjZy6P6tzcf67f+btJCD/1wmyU4/kUpT3jy7GK2VcdeqRw0MmDT24RI8iju9bejMDgahBUpbWns69QYJwAGt0bWNbYdD1elDgBggCNkz26VBRysXRU1t6a6W7c4N2LDuOXO97veiu9fT6xoafonfSa/93cuIQ4XIST/LK0aDjSHH+Z2xow4OOHczI6/RUA1kWM5NH6ZatQ5TMhQGo6Q4Gr4wZBHec6Sq1Ll85HxcuvBFXr16M9bVlMbolsMRsFbrLegQqe8V0r1oc7BqhZki01BLh22Vb2wAsfcWhTPMxU17KbBkgiPW1/Nr3gcBrUNZePxasfrQm4IiPVUNYqRXRIcTB4lmDt0E47wHItDR6GVTuG5BwB12w3vZJmYZfRaOH1UrZ5VM2q/Lniyzr4m8jNjbXBOyyfBt6QOnh+Kt/8M5doi9c68y2Xr92f+OVbQtO9H2NHVar8wOgbp4bagiqupZPgTFbdluAAYB6AwQBJktQtqTf1zdz2Gt3V+ApcOmRvu2XXh4UyHo0UOq/JX0ce3TF9ksfo89ZwsLGClizAopeAalg5IAH+gWavT3RN6IGo0B0T5Zda2DQ7kDn0vbgsscYWyCvcKkFEOtRekAN9rJW+XTZ3p7c/raZoId1/4D3GTxSPoQF3tEI0DWG9MTwyFhMH5mNoeHRGBgajk3FA1AzpsqGDnXclnk+YA8bLBxg+Cm+fvgZGmSmU28MyY2ODUU/m/IqET5OapCymSpTXXnukTCEmgKtQW/PtLa+KUDC3GVasgPE4MCQWxAe5F1e8QLUYSH6kelpHSUgMQ9IQpjoSAGQzdYHIiFIzmyi3xnh1Jm5hHMrgB9ALj6UlMCw7hqx5Uwpl7G9tSY5b8ZAvwqmhelPlwCDy/fZhdbQn00aH4+ffNu4owC1bDzADNRX3nXjgbvpYvx2u7t3KJ7++ve63ENW5z94e7fx+0N1XLWhhpIABPQ92AJ5xx8pdb69ydZ7uzrWnd9s7XFPYLUv68zAKSOmX5DWCy7q1yOjaqBPOCC7qCWUlHqOLbpd5aH/sSNQ25Ru3j6QnlZag6Mj0TM0iBnIHrCxLyzApAJ36xZ+ewLrPQEgGzOAD0w6ZezRgK849uUPeO4LPHsEznt7MgAFnMzuZXMHJiDxHEYdW/qxicLQyKi7mjEI14RXGH9MSGKuDxOG6KJlTBWxbG9t2jADuAcHZDy6r1gJZ9drxxG4yLFNILD7mXWkr9pOwRlHZEkLu0CQGHEShgFgZidNTIzHyPBwuZezbytIVsIfR/KH+6/T3/d0jaA2yyByrsnMuLK7gP5whVPUDDTnWp+8dmqkeTjZhh4o6gAdY5mdCTyzXlbCbj2/2V6Lyc47nXumArq/0j25pnT35vpPwLPEWYC4sxPRPUjxvHXfa0jvk7d3ow/Qwm3ow0/WrNavkDSo9GTqX4GX/mEUoUnZ1N3ji1Kidih/dLnuMV7ZKwDCAGJjBD4OQncrRlfH0dOoeKTD0dXocLpFdwRI4EVdE+rZrn1MEMpVGWAAvZPGBf3aEz1lkIE54+Nj/og14Eg49sRNqnmq1LmumAJfzKgdHh4ReK6bN/hnkizdud3UDR09/+Rv/eTB2tqq+3SHhbSnT56M6YkJtRbEgBikm5UdHwZHJ+NLX/laPPupH5flOBDrqysKsy1rTpHIxF/T9fLiokESASWIqvUhNzY+IWb6Y27+tnfKP3X8uAS15+2YKgjyNe/bdxbc58y2fTCP8FjvwyYNZPnS5cv+vicZYuCYGbM9CFVW5NzNG7GwMK9nR+PMmYdiUXGxbZOYcKtJNmdcvnotWnr25r/8e5n7hhpqqKEHnG78+f/Sx4SVHi//oFcQMKL3cXS4P4b7ZaX17MTs+HBsLC3E8q0bMSQrdVSW4iAg1z+gcCPREiBsCEvmbs35qyWMWwK7dH3yabGdnS3du+3tWI8dPxEbbGogXQ4G48CEhdu345OffDaefvIJdwlvCJ/YCnbJW+UdxPrGTpx7/MmYmpoQyMoK7Nl3V+7G5nqsLC3GHen+K1cu+0sp25ssadmS4TbqHk+sy9WVVac/PDosq28wxmdmY35hKd66eMnbAJ596ERcvXg++vY2Y3p00Fvw9ciaBcfYSWldlqmMQLpicxbtvcibv8th4WHKgvg8a0u0DKyuCkBBcsxdti0ifne7CoDrwLDX7dBSKa0VYM0tHoRXWjH0LdMa4Hme45w1QJy7y0BpstmvLVuFpWVSeYEA3DqITCqecaW4cnOGhhpqqKGGIOveQlK91ssAKN6pQwmTztf+HSbfk+4FH9x92u6Z7DgAjHkvDKmhq9nPnE0PxmUsYeExlnn8xPE4cfKEDai6DKU6DKbsXcztW5mISs8i8YIJYAq4cz9r9ZlXg8FWezfhh71wr1+/7iM7B3XL5W6SAZb70wJQ70UwzC4OfG8TJmGWz8XAOJlAMKBg3deWaxKuDmFiRuNPWnYuoCRYrALmHkJi/8BcKIvQchYWGU3hb+cMYMVpIBdfuR41M4vgq1DgK9fiCIQFoA011FBDDXWoAxF0w/qgI2e5WQDXvufT1KEJsD6zrmW4DN3PRBqOYEGdccsR3U4v4sTEZDzyyCOyKj8Zf+7P/bn4iz/90/EX/uJfjJ/4iZ+IZ599Nh577FxMTU5a3wOYACG7CLknUgC3srIS7K9u7CEdYQsrNiDu88y9iHBseAD2gTUAN7NqFxYWYm5uzviiDJbQb6cWWx0BMkR0L0I47C9It25d24kgEAggxj0ySXKc0xeNcAE9TH/6nhFofoZGoboZU4kQT671ob87l7GsLC97R3zOESS8Mo2YNadMQCIsmaRLIGdAtRwHwnAfvIi0AExvx1QKvaGGGmqoIRFoWKiq5eplw4M/u/Qst8p19StzXgRgzIOpu/vYCTe4h7GF3uaIEcNGAwAWznNgpLvr5y2xJusHSMAWj4XKr+4ihL6H0PnW+/qRFulWEH0vgnfzyjMCXqxd8GVh4XZcvXrVfNb8vhMJOIdsSd4LOIkEpkF7IiUxwIm9AwHQNJ0FnCMj7S5cA5ZddrdWwKyg2T5X3MRfXf26StscL0LLZS6s9Vn3J8wQIOHhZ2lp0ULg0zj4ubugxEfZ1rScXkMNNdRQQybDA3qyTdKT9b/8bXF2kXXqO1Dq19qbmLq+9ixitIALACMAheMecbHRAAYV3aNpTa57/kr2aqahBvbYipXzMCCWouLLr6lI3xuwWb74zrzdTRh+gK9xRkd4nRAOshEDVqfB9D2wopUzimQlKhOICpezplKg7XMi0R/ov7KyLLBaFYjl7CZ/x02CyAk9fTE4MhwjY6yPGfJsLMxpZD3QP2BHSvSYZmqVMjWEgHAQwJAEMzU5EVNTUz5naculS5fi+W897yMCJQYEzVfBeQ4QJw6b2iRaiEpg8O5KsaGGGmqooW56Nw1ZtXW9e/ga3UrvYzqsNzBBRwEbRlQ9AiMGSmEH33VmmQff0WRlB8s9tjbXddyJfuHIiPBjZHgoBmWBEh/AC1YdmZlxryOzbvWgdT09nNkL2muM6eatHo1hHHUN3hnAdexX3KR17Nisl5qAeFjAGIaVEgc7cfb+9b/yY393bGIyhvhCSkuJKoKV1bW4fedODOrhcYHWljLK4tTo649zTz4hMBuLE0pkAnAkUQHl+OR4jMmdOnsmZo4fi8GxsRhW5voHh4XeEtauWgXbe56ByyyoXbUmYIVll3xEe6C/z0IcHhpwRrjnZTISDJlj4e0dmdF9ZbbX7OxsHDt+PCYFrIyFzkxPeVoyrZZJpctkpYO9AxUEH9we9Jqi1eW12NrYjvXzP+/MN9RQQw096LT00FesK7EApXZlgKTu9NITgZFXVmxtxI50sG7Gwq25GJAeBtDQvYTZlYIdlO7u6WXZClvYrcf0zJTAiaE6lqr0yPgBAFtlbsymjSdmyt5ZuKU4b8bq0p3YWF2KG1cvCys2hC090Sus6O058Pp8QJRu3BkBJ5N4VlaWYnNtXbwJhOX2dpLv7c0dGVmbwgEZXEOjMT4xHcNj4zE8OhYjwoYDxYXRhwGXG/PIoBLP5GlmQth2ZDomx0diUvgGWGPEsjKDzXY2tmSlYqD9p//rH/+7o+MTMTwyag/M3zUJaGl5JUaVyMTMdGzKf08tij4J6bHHH4uxEQGXgGpAQujZ34+h4UHvAdsv/ymB5ujUZOyKiQHvMM/Xt2Vib6lFwRb8ak30HOy4dQHoYsKPsQBWAMlCVbb2AxwlAZWRwskxPrqxseYlMJMCx2PHjsbRY8dirLQ66COfPTLjuG7Pz8f05FTsMmVYvx0JcVjCI/3l5VXFsR7b1/5XWWMaaqihhh5wWhZwMgbJunu6CJnM431apdtBDXTzgTBgX+DEbkEA5zHp23HpXYyYnV0B1+6WDahoCWB0DXDOTE9KdzMRh94+hvYEnPLYoCt2fU2AFQK+1VhbXjRoApa7em7u+pXYZ9hP1h+gVp0tTIFtX99AfOfl78gI2pB/n3e2Y8Fp6yDXkjKkB3iOjo4Ll8ZjYnLa++sOiNchGXSs9l9nRzthyxDWrOI8EM9DYmh2SuHHhoVre16eCR7uSA47MvzYQWnD60xZ3CjC+PTWdjqOCZmPCZToHsUDJjBZ69ghnmnMl/FDfGQC43zd1T3qS455eYiI4e2Ucb/zvcNElyytj9pfzjUtJp6uY5tuQYkvrtlKihm4DCA31FBDDTVUqaNxBZFW3N26HT2Krq07vjGeSK/ejMCTobRxGV5MMiVsPs7zfjidyNcZdfEGM3Ic1M8dos414YkPYPcqCR2Z88INgD6/1Yn+z65geGTzhXuT4lNcTFyqeXViIiOQeMrJRty3t8N5MpHy7y0AzSY3dQOUnT0yK+Cc1s2WA8EI5juJeP2lLDsHV8IQAoAqA/6fp44T1+2XjJVz85iMckj/cvM9yAISYCK0HF/t/l6aMqgWUwoboTOzK4XfAGdDDTXU0NupaOlyTN3pH0e51NHS/TKm/PFqLDgB5tTUpJeKWI8XPZvBBbqAI/q8xuG4E4zR4TZ2HC9BuOdk7JLyOetw63F6OHP8ETD3aomCP54gxH4CsiTvRZ04S/wl7UqVn/buc/wnHLii/Pd89f/9KwfTsi5ZOnLlypU4deqkrM7RuHHtmicA0Q3KtN3rN2/FvhD9E5/8kdiXuTqgiDdk7u5sbMbA0ID7uBdWVuKonh9QxtYUpl8m9e7GbizOL8bO6mZsrWyIkY0YHSGzbFIwIGYihmXiM8A7N39Lpj/du7Ju/cMs7/OsXzYYnr91y/3b4xOTMTYxFX18NkyCR2zscLFw+1Z856WX4uSJ4zLF1zzdeWt7Jyanj8TW1m5cu34jFpdXouflf2hB/MrfW/OxoYYaauhBo9/8O6M+XvmJ/4dAJ79FiTHEzj9MtAS72JuVIbnhfhkqBzsxPtQbV956NX7m3/vJGB2UxdfXE/29PZ6Dsi8MYGLP+vpqLC8txrlzjykOjBhmzG7IuOlXmJAen/fykoceeshpsFKCPWIBJXT++fPnvVUr93MS0KDBlT0ENja2YlS6/w//8Cu2ekeFNczU5VkgelSAzszY+dvzcfR4Dufh9mUh9up5sOmOeLtx8WLsrq178wVPjlX8tliFN+Sd7uRB9hFQ2gAxs3tZTslEVMA+oVrEAyCq93gVEwiRmU0gG9N1+WYn3bZ+CIsT9DUaS7jyoxVRNxyo2A0ocs0JfunvOU0E9xHBuaUil1d45OG9yK0F8WOrl8fFk+MRmTfxwsJYwmERs7NQv4CaWcQNNdRQQw0loS/dh1j0cOr4TjcqDp1vDS69CgGGrGpgb1mAxXFIz6Lj0bl5zXO5tj6Hz1L7y9P+DK/14HSOf8ZMOnBTnJ5hs/k9pUs3Kfvm8t1OgJiQLFlh6cqaDCWDs+JjV7t7EZYmvZLtZSzmD+4LB+Ld5zoSJwYcaz25JlwbOD1dWBnybg9ynBMYU5WpvuzWkyCUgiQNEodqX3W95mZlokNcFz/xBEjyjP5Vr/TPy3sSrZRc20krJwHUmeenI7x4l6Di7K/Ie5TPhhpqqKGGkqyZ2/9E6Ek5wDOHwHoMWixFXF1bk27lG8dsdyodW/Q1R+OC/PDHtXp4NoGTT3nJqx0YPcwaTJwUdb1RIiqGmP67o7Toc6xigA5rlWBYoFiJXC/Kipyfn/c+t6zrvzcRZ3bVehivNAhMJS90ARO/hwTlOFYDDVgxaDF2yfoXf8JL1xx5yGOFAicFdwZ4KNd8ZoYgBGuh6ZpfJV+3XfEUEZcTKcSzPtqz68Z7EF27tHg4msdi7UJu3ehHXziWJgLie2t0QWzt5trThhpqqKGG0miyhakfOtSAcrBnVQyw9XnnN5aG5AxZVj4AoIvLd2LZGxZs2NgyBig+wMiqWNf+9jIdvsIlu6LjbWwBqnZYqgVYAU3HAy9gCPqc8UssxAQ6AA1+12TMdWMGwH7x0sW4fOmyr9+LEogxuBI3qksOMz74oifWva9ly1cmJIGLaVsTSMyyibpn0OqGb8rP1pzCMJXYJyUsCVSgSsYz0Rrf26kI8wdE3r4Px1IZTG0JopP5ZMP7GMqpseNx1GMnjsdHP/Yx32+ooYYaaki6Ep0JqklPMmFnSMA4MTnh1RVnz56Jc+fOxUOnTsYjjz4STz/1VDz99FPBvBhP7tEzBha5SqmCwQQgKI/V5a0KnNlTma5jZToswct1u5tXDgBlNzmsymtXr7p7FkCbnp727N6VldW4vXCbh+9BxEkDATTPVA+ReAL/3PNK46E3QbN2Y7fo6mSQlQWk62KGT4ntqfXA7CQe9P60MoUnJSgGbNMCTeSn5eEBZYUh4zVSLD3W3BDWg75irK+v337cp4vVOz0I7W3+6lmEwSfG2KOW57yBge5bhhZiCpBxS57PMdhcF9RfgB7iWc7Z05bB3cnpKbcWvGuESnlC1w011FBDDSUx+WeQzQmwKuVacsODg9L3uXXq3t6Ot1Ll049sMoMep7sWqGPcj03d0etMsgFgJicmZWgNei/xbWGJV2QIL1DkTLZB59O9CgYQxt/hlLU4OjbqoUJAEWwgboi46ZYFC1g3im4Hi06ePOk0wSEwjImtH/3oR+LJJ54Qzzms6G1h9Yx3AdI18dJQAHPAJPyJHz7Yxg9/QapSzS+mED63/tsySIMvfubalavx6suvxNLiom8CSrbi5ABIApIZQJQE0qJDCGSI/utEtTzSQshBV6w9unDZKg9wAwQBPsIRB0jv6/azAH/pbpXjSEpJ9X7xl4MXWgPVbHcU5R7B6ZvPgeu93O92dyd2xFftZm6ooYYaakhqUyCI5m6FwIYuWkBLuhvjpLevjOcpDJNG2ZkN0GNzGvQsQGOwkd5lxumdO3c8hAbo4A92MD/GH+rY2LSuB7BswSkMjlmxDBOSnj8PKd2dz+e8mQQ7OOXZPgMXYVnxUb+axaRPVlFMTk7a8oQ3nuFZ8MhxKC5jk4f3smsZkDE+FNyDwJRcHyorWkHqMCBx+D64wxjhjevXncG+0n+Ls3kKQ705uxbrjoTaThHYdfkBdczARYDLS0tthMaSXFldjS0JFAY8wFpyhjx4FmY5QpZRm+SXf+37kMMTj/0yPp6rDlBu76ovgSAUHF8bb6ihhhpqKOngQDpxX04AYRcCT4EoBh/bnbJdHt2yLDVhieKBt00FWNNaw7Fc49r1a3Hp8iVvkg5ocR8HUKKvAactOe7pIelo9DSTfBIwmTELWA0ISFsCVsIxDonxA45I2Uu3w0tiFBYpY7DtcUeudY51yn4EbAdIfJVHAJmNfHJMNQlQ9EoSJbaxyXLJtFSxPnkW8K/GGa49OWhmetq7wgM/WJl0kXYQuvT/OpW0Fv3TUf/sOABcJjJankWQfGmbwWM+DeYvqqjV4gyKEQe3BJEh3QPZcmkT0eeBFPWvpCEyHzxTM2Neyk3FSbwGaMXp9IqwmNKM5dlQQw011FBSAmOCI4CY8FQnCQGk9PAJZHQNcKLj6c6tn4tssaes9CxmkOea6AnCYpSh4g2gpasUICRGDJutne3YkHEDeEpBy8iR1af7KPOcvAMPOYmH3kLioguWo6ke7yJyAOixJwBdupzzDJgA9mAUAhfsV4uhh4VMbyeWMecYfvS8Er17WguOGEsK3rTY8cG7BAEsYrAbLL2rEIHsOgBl4CrObHJfwocQKhvj0l9Na8BLRhQn1qtN8tKnDBncdMw1PTClK7gVteO381/HTwQ/7FGYvMnfIfLx2i1si3lwwPsN9qqQAVL8G2qooYYaSrIOlQ628SKHzkVN5nBadlMyEROg8QektzetkNm1repjzkeGR2Nyki9ZDXld5cLtO3pmV+A1GtPTM97OtVqpLE/Z2dnz3q9YlDZspLc3ZXAxLuqxUcBSCQFJu7up040n8n93x3LKBEMIXCEe+F5bXbU/1xhpdA/XL65MjE/4HD5Yl0rvJDmD12rRugtZ5+S5ZctSDPmiWHHcbHfVyjHb1iavwlhQ5dh2es792UoMM51j/eA0Ji+faGFQuW4+0A2cwBjpJnB21lgqxkyn67wS1x7fxBXwNB+6l3HqpwJHQG6/kC8qhcLjGmqooYYaSuLLH+jJNGPS3mTTgQPpVm9OIP3J/YoPhLG+lk6l25bJpOh8NlhnfBEsmJ+/Hbfm5wWyO96Wb/bIUQOnIrQlqegNhNz3ZydJV365tWtamXTdco6zLtd9LE8mkBLOQKkj90g/3Z4Bnh5OwN69nwJLPorNEhqG7uhZxVLGuBsfH/eMXHakm5yaNNYZU4wVBQ8LaNZxWbBImJOAxIAps5x8lPMkoSIQHIkhsDZY+pw4Oud8Lub111+PN954I5aXlw26zMDKvQUHHS/bIXUDJ8VVmatWq6me3uVlfvnTked4xn4ix6Y4cZj4tC5IsxYAv4Yaaqihhjq0I2vObk+AJRUJQO1LySZoSdcKPDF62Pp0iq9iDUqnCwwZ/0wrcdOWHl9H4TOP6PJVWZxMzmSNJ0N2BkjhCd2gOIbtMMzQ4e4SLg7rj0k/jItC+BmLhD8VawwbaHPzl4afPfH3TbChjGXqunuGLdZwdt3yycmttEAVt4/ib2l5SQC7Gutlfg5xGJ8UHw0FelGBG0MVyzmY/JO7I6R1iUNAAB+gl2ZsB6Q4OCN29jFInb9wIb75zW/GGwLQNQmImwgIx0wslrYcBk6CFITX0eCW3oVqGk6w+KTVWruP7XwnyTLUP1oiZB7rkwKgNUK/ekMNNdRQQ0nCTFudWII7HKU/AdLtnb3Yls6k25Q5KwApOICC5tOPLPFjWAyjyhsiLC0aMLHu0L9HZo641xFMya+ntIwR6GLAkXWiOGbC0kM5Knf8+HF/MpL76HXA1vvEKg0AmaWFNrLkONqBBV3X7jYeYc/zXPoISINhU5NTXp9KHsAPYIZ4yRfACfbAH6DLahAwMbuxS/yAp7FGfuvLi/7qtgdK3epAWBwTaAw8+1icfEczu3T1T+a7Wgo67tlxzvihMqqWxfWr1+Wuxbasy14FZ43Q8IjAd3ggevtl+vfQAhDbOBPXHEtnAUm0fwmEScXHAAsPXef4H3I0CJgVLBNbYfim3J6Esq0WUEMNNdRQQ4WkH2WKcOLJPXtCTqyv2gvJN4yvX78Rt27d9jeNFxbuBLv2sOYfTABE+cgG38y0SpZjzefxkydiZHQstoQd61tbHj8dGhpxd+7x4yfi0Ucfi0cfeTROP3Q6Tp08GadOnIgTAOeRIzEm65W4+B7znrCJpTCkMdjHun0ZY2JXqt1p9+rCy2Zw/eKBmy1ZlDLSVlaWvWE7eON9B4QJAH3yzlIVAafS2NzaMIhibGFZ8u3OHqW1Dw9ygjasNTm6apXGxKiQVYyAtr2yLvd7+mJbIffZZ7AvLc7xkaHY3+EbaMyYFZgqQT7uuQVS67ktXW/pmj7xqckZCeBkDLT6g6+i7WDG727H2uZKbOyuC5Q3hO5r/lo4O1QMDPZ5A3kGnLFIYZrpxGSIlgLdBLmhbxYsBdzfPxgbKtBNgF1+5oX+bPFDywJzXNzHMJayBNXSfTWbYk9Avr64pDgaaqihhhqCsATRrQxvea9ZjCbp0421jViRvuSrVFdkCGGc8BHprU1ZZXpmhCUbrFiQ/gfQRmSl9Qqw+mUcnRRozsweiUEB4Agb7CjMhp4jbnR4HUpbVxqs7yTdwf4BW0mA5Praauzo/rAwYnJsNMaGBmWIrUuvyxLeXBUnuwL1NeEEE5XAim1hwa7Bc2dfvPNRbBl8fQN9MXv0iAEZy3RVQOqPmAh1MaQUXHiY2wgu697o+Ggsr6/GzdvzMXfndiyty4LelBwA3/5+3R+3Ra6ogB6BnrID8O2TKTmWw3q3Hbm05/azZSEBsX9fi0FUOSJrMVNKbnRsIp54/Ik4Mn1EGdRTEhKmrdowkseegLmVVqfi8UbBAmP2waXFQP8z/li4mPJpZAKUh4+1kAdUaKz12VYrgWnMFIe/gCJH4QC2FIKtZDks337ldqj0nTfUUEMNNYSaFFgVB6Ftc9KlnECFrsvBwWHpZ9Zk5tpMdCr6lXFOHGC0y5p5OQwgwa8NmV0BJktMmB9L7D0yyJhkg54eHMhVFnSBghVYuAAa3aRD8h+UATWAhan4QaQDYQVOCl7p0xOaw3AeiuOoVPZ7dG40kN6v5i8YJuduV+VO2G7c2RIgwi+9qYTXTX96jPFcPpXZB28C3pb8bN6Kj7bF6XUxtDTagssMtqn44+hvps8Yt03Xbj1Xhsk0/ctnz551/zKLSbEk2WmCwWDGOxmMJR7CkVH3Lytt90sPCIDFGIBKmDpuyf/Mez3meR1YNvkeoXM5DAXHbCsAONf9APy5todZvg011FBDDSWl7kwdKlXpI7o1xwz7PCbIlnZsKEAv4fDQsKApJ+aghwmHjt0DzHTk2Zwrw/6uaWyx9IMJN/Pzt7y7ELNe63in0xUH6Gr0N72NOXOW7mK+hZnb3bElLGOppGHrWA9x3nGdayjzkBiBT86lYXKPDDThQ3vyqNJhrJaGAuOagPng4JDzTQ8muMEqk5xTQ0SKG6BCAJUyzWSC1JKFJMzZOlGILYlIIBPRuRzTe/n46PFjxzzYS+ZIlJlSOMK6FSACyMhABbySsK/vxyEcHWxlUigICRBHwAiCAiUMeaNwCAwvLI1pqKGGGmooyWBjnQ/oSb9KlzIZhiEz9Ch6e2Jy0kYH1hgfzPAzcgmuzGBliSBLGGWcgAWjo94CD1wAH0ZGmazDun4m+wCEmz4CksQDoc8NlgpTDZ9qTTJ7N40i3RPAJnCmbue849JQIjJAkzST0nJOXmW/gm36l/GQ+0zf+EL+5cCL3NJPRp3i4n5yKuCsFpkTw1mA3CKy9CveZpwvbWd3ascxFum+a4VBuLOzs3F09qgT5pr1O6yXYZauB58Vnkx55wm1RogT0MO0J2PZKuiAJBz7HKivfrCk9DjzNGGBMDwQD3nCD37wc6tG4agEg43F2VBDDTV0mKqeF6FfsRTRxTj0OEDIET070D+Yyldk3auwVVfjMGbQ+wCuZ6Fiycm4OSpcOHXqlJe0YL3yXE0T8rnC45+ALQtXhg49mKNyHDHAEvC6AbMCaMcPZMBa9seyHXu1QHNmLA2EzF/hXz/wJ7EsAZrnaviEQslIcXNMi1MJwjXJ6cB/nzswx3JtC9FCSkeCdj5ncHnfpjTgNFU+O+OwxKCIszWxk2axwJGCoJVCRrmHvzPjNDoFccgRm44IhJYIX18hTu4x9pqmecmgfinM7GGHV9JsqKGGGmqoQ1XvQ9ayRbd7qQd6U7qVo7tn0bFFH/OINS36vXSvco4FChChn1nfz2QjlqZ4+Ym/njKQzxfKM8Vj0CvdvYxxKpx7OIvj+m6Q5Ny7xZVrx3FQgZMxSfhMa5rrimNsdoA1mWEURM9hFLJzkA0wcEPPEX9avAVLiCsvinmbcsujrvl1qGOWVxMY8LMr54RnTBNwYm0OLQaEwwekmRLMFGfIAFhkxjN1fWhbkDroqu3Hjwfa13IIAXO+ftEFok8dQSCYSuSr5pHnqAgNNdRQQw11kzQxOh8c6NK/vpAzFugPADRwWJfm2KafEaGPAR6ueYpzz5xd37CeBtS44a7XopMhJyPiOean0FULAPO8neJldyF/xURAbKNIjueNXZzDnv3yPHU9Y6x01eYYKhgFmHqsUr/Er4IpMFZl4Hg6XcP+SIjS9twZ8c19WZyApmXiB/2wzwsRkR3dnrWbFgTOLtpq2tpyLZECqnVME2KT98WlJQNcDibLWlQcXPMM4QnLscbhQrNLIVi2XedkiBaOw3JL/vBJvLRW6BbGv/q5JUImiLOhhhpqqKE2WfPrn3U//6wmU1cylmig0xHwwvqqPY6pW3NiDdfVqHIXqXRtgk9ab3Zl7BI1TDjwAADDOgUPrKPBIB1tRep5LEC+YLK5seE5LFLlDo/udzj41nn65Tm8JzAKOLnUdfKcw4AQ+cnnM00/A6jqfs1bgrjAHLyRIz96Ilo8VLtGK9Wzjk8hhWGGFJES3oPBmMMsUbGw2FA3E6gCpcXB+pjFO3diXdYo6dVu3RrOrRc9a0Hr2oxRCGRcGSk5J+s+IiDipRAoKPrU/SyFS3zyw6w/nIMUEIXRUEMNNdTQu5H0bQUTqVD0rifiYNTgX3Q4d7g2Fkh/09OYnxFLTMAfPU4vYDVwmNfC+CezVjGWeEbB2qAEsNUuVrpTfTM5cVokD5jSFQtW8FzuY0v8TADNWcA1bXh0j6hwJLtx8UqLkzDEaeNPR3gBO5KnvEe+SRNKHgrGcBPrzMhPAgUUcSSqk3Ke2xGB2gBUzoja871EfrpK+z1V2d9CG+Z7aDkRh8lBDPJWtGdHIuJO4eha8bglY8EJnCU4hMoAMnwRN8zWGbksfWHRLDOyPOYqP/IBiHpQWoVXCzkLLk12WhgIuqGGGmqooULSrxVI+CVApE7HLw2jPgNMBRewAksM/Wo/9Kz8OLeVKH2+ubnh51ltAV6srKzYcoPQw2y/is73R6Tl6KXkmjFRLEscVmZdtuK0BMJ8VYX09/f4eLbCye1sK16lBdYwjgq2oPd5bmhwWHwNKN7chx3QZXYw2wASjz+nqXTZjo9nmDXszIvAofy2J5s95OfJyJuBE1cDvhdlK6OQH0m0tinN4tcCfvUI094BqJznAG6x+LqigiiwSqB/mvYKXxC+8lmdd6svA7tk3gDOc0oLq5djN+mp5LlcN9RQQw01dDe9h57s8jTIyqG289y+vlcuTJx16/a7CZ3djvcdE72LFBWzayfGJz2Phm9uEsXKymrcmrsVN27c8JdZ8COwo+dcYJlU+DZPaS2386KAbX7aYbqo69IzZQxMvnwPUgDW3vDVEz5mygLWldWVWFpaitu3b8fcrVveF7Ca3/4qCtYfR5nOrJ+kRcE9eEoeupjuIlostEhoCWA5esmLwbcAp37EW2dZ+cOkiqMCJ88B3oDu2+ieGW2ooYYaenDIRsXdZK93U5bS2fyXzq1jmzjr9aLL89il19HPOhwCykI1/TzedfNu0u3l5RUZajvS/8NxdPZYnDx5yt+UZjzy4sVL/jqXJwmVntBKcO0eSlzhzUtTML48JKjoywPwXx28+5xfOVd+c7zxUArvQoTD5AbUsOoAJwZt+XI2E4DYHYhdgjDJ2SWizqjC5GZa8qbC8kwKFAYcrYnzypQtTgBQoNkNmN1CbQOnTHCWobgbV7fh0d9kkxUMGWi73b0KpqGGGmrogaNu/XqXjvStw7oTEDFY9uaEII9HFkKH59H/fd5Njqfo40rd5/cidD84siyjDazhUbpoAc+x0TH3RNbhQ0eLK9hi0AMkdeReveZofOA5/cBFXH0mXYbHtdwPXAd934v0ECYyTGM5jo6MelFqtSLpMmU3IcCMODnyfTZ2GxocGiwLWDMsccEEJ/Vnz0IekHXGsYQz523mnaE6EN2fu1vQYqDgFAX5qBbqd1MYDTXUUEMNvZ0SSjpkbQ2oSOd6owQmcVr/po7OMKnTuUzdbW8UtPVyjdE6uujp+9XXhAM46xp+CJzJj1LPxMTEVBpbdYjPIeBDlnGxkM2O7sFbAn8CqXspdSRsuszT3a7F7KY6hvjelDNqCQdIsrcsIAp4VaFxZPAVC5M9BrH88gOmOYWZdAA0Je349AgHO87bjNkjrzGlKSDi9oBvcRSWxzfLvdpqgLqz4iKSB37OY/fNhhpqqKGG2uDCMc+LT9WX6NDiV/V01b0Aj/Wv7+b9d9TpohKbT9pR474LvUxPJnFiyI34o9d8TWvPBiDWJkODna5aEoId+Eh+OeqfvAWczkPiCNfufRVl3grvh1zmqcXMVa9ncfD3IrpPa1etrDmbtEltQCyRemqwjgBbJlZmthagq0LlJH95XslWJQVRMuVlL3qe2bYIhnO3ePRIB1i5LoIpz5vBdsby5N75bKihhhpq6G3KskufGjxwRUejc1HI6OR3pOpf4shoOsDmq/sET2/FN5QzZQFLPp7NXBuGB5nxyz3iSlejrwyIX7CFa93A13koeOFn9Evcqs5ZK/njSeUbqzGZz+jfnTICwnL0+kksvwKImOwGtAzkMAYxHet5+9rsZnx5yr8OmTWDHwXTKRynU9J0OiV0PdaM1rQQQJvq6T3z2VBDDTX04NAhjfhO6lF+h7zRs3mQS0OlAkrVx93nkK8dT/58ViI9pKfvSRknPaqAZs6DyVUU/kB12XWogmZJypT88k8gKcI78QK/9EksTH+HNXHs5M/3/uDX/n0Zjz0xPDYRi8urMT4xFWPj4/4qNt8829vZip3NjZhbuB1D00fi+Okz3uOP8Uci2JLZfGdhIZaXlxwxX0axdQlIKhkmDa2urjpTbIDQf7Ab0+PDmKmezTQxMWmQE0rGhQuXvJs+LQky5UWycs6g7i/cXojjJ07KPB+PwbExPdPnb7bxPbienv24dvlS/NFXvxIPnTwRO1vbHmclo6PjY7KCIzY2d+LUQ2fij//Bfyr/iF/5e2s+vt9UWzH3Qy6edoG9f/Srf/Avy1lDDTX0ftEXfvovlbMPH/3m3xn18cKP/d99RG9Du7v7nrsyIb3Z19sTg309MdDaj9F+ncdObK7cjlNHhROD0r09B7Lh9v1xa9Zf8rlJ1mUOyuo7ffqsrUDOl4QPYBKb1YAJ9HI+fu4xr87olW5fXlxU+r1eifHWW2/Grbmb4iG/sgJKYqTB0/4+6/5745vffD6mp6djbGzUewYAfqwrrRNL2eb12U98MvplnY4Iz8AaWV0xMjIWc7fm4/UXvxVbSwtx7NhRY8y+dG5L+d9kiFHYNCp8mZ6ZdncwqzzAOfYPWBXvG+tr0fPf/2d/4eCkwGh8ciJuzy8IOPNLJoxV5r6EuWnAtZtzMTZzJE49/LAjAgywOjcFhuwKhDB2JLSHHjod01OTHuekFxlhrgk4iY8wvQLOI5OjbhmQmZkjRwQUub3R+QsXY1iM0h0rSRg4ETRwAh835+bi0UfPxdDoWAyMjPoT3Hwh3N21Avnr1y7H//LlL8fDZ87EltKfGJ9w1/L0zAzIq0LcjpMCzq/+xn/sCvJ+AycyoiC9z6IKte5w8U5EHuiSHlBDoJ+dM9wYeH8AFND8whe+UK4aaqih94t+9Vd/9UMLnhU4L/74c9a/zFdB51TgHBuTLhYgjQz0Rl/sxvhAK4Z792NtcS7OnDgaQwLSlvRZS0aLPwUGwEjfMwZJTyafmGRVBcDGMsYehtwEZEtLi7G3vxuPPfqosGHFum5FwApwAoRvvvFG3LqVwMl4JUbW6OiIsGlCgLgrPifiS//zl+PIkRn5jcXw0ED0M/+Gr4QKB9CxgPeTTz8tMOyXUTgee2CEzkd1fkNY9uq3vhW7SvPk8RMxODwisJRpozDrwgvwZkqgPCPgZGKrAE8s7MoY24zF2/PCvLVoHTt23KjaYkmnwEkpdxxUL3VKN6m7Z8uWSOk4z2u6U9NEJnQe07gtDiAwFtRjkvEBr3Lsvle4eNuxhjl8rX+OJAmwha/8GGl+szN5+2CIAlyTtX5l/la8eOGt+KNXvhP/9tsvxB++dNjh99WXvx3Pn38jLty8EYtramgIbN9xHWpDDTXU0A+Y0M05VikcsAqVnuTP+hyvnH3KPXbgYRYrhk+ushj1kTAO2dbBeU7fY96DuvVvPeeY59bPCuooOOVc4M2J7+Vf1xPcgnchmPiruAQIM4HVux7J0ftIPBgxvWogcI8ved2RpXvnzmLcvr0Q12/cjOvXb/icPHpZoxsEuTcvcbCrEKtDWiA6kXmTdjFGyyOXgtzl5AeKM0t2a3vLEW+XLYzYNQjLDouz+xn9KznLzNn5ou1pPx/T877JT9Q43+aIkvWpB+5+oJBra8p8fQBEOsj11tJSfPPKv4n1sS/Gsaf/mzjzzG/H2Y8fdvgd173dqX8c37r6/4tXr7wVt1eWJO8GPBtqqKH3l9BV6EbPJ2HMEr/in47JowojcGK1BGv1pWU9xghmeAMBQNe69+16OE+cVCGwoRN/nued3IeWs3wA2KUnjjMvm8SzK7zTqaCpcIAmyYFHGHl11YeBXnnzHudKAyBkDeilS5e9YcKFCxdi7ubNuD0/792Hbuqc+3TRbsrSrMtelJp7DlssE6FblcgyE3Qv5tKRQ05+gJCXoch6Y7Ne9vtjvLNeM+u1fhetZgwisW6BFk/+3kaEvR/qjq/jMk6dEcA8Z+sjJxPVvHwQREWje/bGndsxdeKbMTmxKa66hPIOND6+E8fOvBxvLHw5Xrt6IRYa8GyooYY+AEr92Zk0UxU4mOAPb8ihWzc2c2MbjCevpWRcUw7DC517WB/jatw8nfHZdenCekaSe8IOHkpe8tgSruSm7oTMfWa9P4DdoHepo1fR53wgWzqfeTWAJn4MNQLwWMzgHHxjNR4/ftxDkwzpMV56TNfHT5yImZkZO8ZXwQ/4gsuaH+LzBgiY2b5VgKVmLgGzZFQOFGdzdQTH4Cub+Ppbmz5PYRp05VI4HaF5liwtAzlfkyBc1PvF5Y37ID/a9Sw/jsSPKxHBB8LCMkZgHxRwQrRMltbWVChbKoDi+S5E1sV2TI7vx8Pn3oxLy1+OVw2eyw14NtRQQ+87Weeju40BxRPSRepZQGNHll2PdOmuxybRp2xEwLGGOaSPi7Mla5VMxHL8gREkZMc9vuFZ9Ry9g8z9YHgw57nwNSwDqI7MkYEHdDoO/Q4+bW0Ko8AkGYPEjf/VK1fkrsaKwDTBfkv3E7Pgc2Q0N/apOAGOwXNOTh205cq8G8Z9WTfK0Zu8A57w3QZJBAfAlGuDqdB+TA+Nj4+lGxtPN44b85ZHbLjrsHqGZ/P5FCSCq6CZlMd6xYmFbJ+277uSQxL+ba7Ew4kIYSDE1VW2AVzPfH1AhDyxOrstzd3dg7i9uBtXb27H4jI7HHXuQbA9MrIfpx+9EFfX/o3Bs+m2baihht5PSj2fSzrQmfJp61Duce7xwRa9jjleODwyanBhPDG7SO/WxYed42rrQo7VjzTyxADMjBuAltFRd78yzCaQLrqSXk+sSXCLLlrd9MPwiXXM7NfFpcWYm5uLy5cvx7e/85349rdfisuXLsWtW7e8t/qGsACwBJPgw1akzsE4dsCD2LZ1gy1khR3M/gV0lRM3GFr1AiJhMnD4WN2+pxbX/WgBIR8VIUcYAcHfaasjoj8kRH7Fj5P6q2Hvh/LZPB5yJQLOET4tJMx2L5AVnxTMB0nIsRLn8wt78bXnB+LLXzkS3/pOK1bWqLAlgCk3jpgY74mHHrkcl5b+bbxx7WIsrDaWZ0MNNfT+EDob8KizY9HfVaei0wHNlaXl0nXJTNqeGBoetPXV3wcAFeAs+lcXXbrYhyRwwa6ec/QdHzyO6WsADUMLgyvHOOmqRf0xeefW/LyB8aYn9FyPq1evxZUrlwWUl+LGzZu2ShcXlwx47Kfu7fmUByxKMIv7dO+iT8GuO3fueDxzkM+HCZiRhdeFymGdrq+vGd9YbkM8AuyycQG8khEjN5ng2HFYT1huOAAUJK7X9lvfcH93PklUKQ2EZgEiyOKKPE0+7br+bqgWjKmedqXBkZlR8IcAMePJx58mff3FoRje/XPx8VN/PtZvfzwuXG6VvvukHrXohiafiuGpp2TRt+Lhc+fj/OJX4rWrAs+m27ahhhr6ARN6FL1YNxNwr2HeMGE0AT6LMj7Q7oAPKgvDhG7MtNoKWfWigzvn/m+PbkqcuJtQz4kTrICozyr+A13vE2HLq0BwgDbrPhnH9BwbdpXrzaHHiYkJWaV9/vTYmbNn45FHHomTJ0/G5NSkvw3NcB6NBfIAVmFcLQg8bVxJDmAiY5xjY2NeEsPKES97LEy26MNFWNyoYOe9BzFHEYoCI0g+4sk6TAjmUjJhC3RJLREyS0aS+Wx9IHDv7rDPFn2lC1dkBsRwCrMwk9GZeA60Jw0mHtUZU8TtGbxyfJ2FzNE6wtEqWVtbj2vXruWgsIRH64B8UNCk8vbC++BpcoJKykLdHRXwnmQGX9zRsdUfI7OfitmP/i25/yxGj34qxiZacfaxt+LSCmOe5+P28mIDng011NAPjNAlVV93K2L87K9zdPf4uMBIOhgwIVT2PG4YH3DoZqt43UQn4weGeFIOGKCbWHPoc8Luo8N130Ct51Kl9UhnC6RsZRa/A8Uh3djT0xu7O3uxubElYBz3xB6DZwE24gcXmJkLYLK5ztHZo/HEE0/Eo488GieOH4/ZI0cMtuAL0A04AsILbOKjhgEza2u+IUCZdDiuMy6qBoRu5uQg+oXps67A5um9AjZAhwjIGGthUjgCIfnxVWzGN/3NTQEVDIyOjikDnanJREeh8FwKJ+MnYTOXp3mdV9w10QLiqt13Lv44p1XEeGtOTdZP4Ry3HIO+LLTFvKbVgT8gynMswuWccH9qpAx94qPbcfzhb8X24B/F2XOvxZmTkq3yhqU5PPNsTJ37bPSPPyH3eEw//tdi9MgnVAkAzwtxZU3gSbft+2x5vvRbn4/P/9ZL5ertNPf7z8Xnn/tSzJXrhhpq6IeX0KHoe/QwIIf+R3mjY9GlbISDTmdzAvR1Lu3ISToYXVUHEzZ1fHbvclr3EEdnK1IBJdiS44c8w32eMTLoH/hC1+jqyqrXV96aux23bs3HrfkFgdq8DKMbsbi4SOjk+RAlHkCAO6A6Kp6PHj3qzQzAJ+bigFlOUX+cs7ctYEtXLEN68AUuQmAPY55gCGDvoU35kYc2kaQTdkaSiWSj+Esgly5eius3rnsmrQeIxRyzkkgoWyzfPwHYMJr8KM7CBAyTDhvT02qhVYMfhHVJQFoG3qWi+BMXfdnw6ZlTf4rACUejsjCffGw7nn1mOc49IotzCNDsjcHxc3Hk6b8Z/WOPqYCYKbYr8HzMfoMT52J0pCfOPHIxrqz+Ybz2Po95PvMf/Xr8+n/0TLlqqKGG/syTlJONJelddCYqFyDEGEEf0RUKoNYePilY62gCbrMtqwCPSBIncgzUOliX+Fkd2+kf93Ta/te+Rr/nRKBdgTbb+K2tb8TKypqBlOPi4rJ7FtlDoFq1JAngW88LBNltjq7X27fnvRaTfHhJjXSljSiBJT2YiRnhLt0jskTJN/GRZ3AGRx5wFZM8MQg5waypZPC9HEr6lVdfiVdefiWuXL7svWPp+yZiMsF44g+CKoMwRbqWLT8LtmRcYRBwHstUZR0BR4TmXR9UmAiNLGJtehYVFx8g3Z0c2RLLstKZnaUC6e2PocknYvaZ/0v0jpyNldW1+ON/95WYv31Lz/ZG3+jDcUz3hqeekIXfF6cfvhQXFv+XeJ2lKs2EoYYaauj7pDqMhq5CPwIMqC3r/GJoeA9xrDDd78aDnT1mnm60eyLznoIBMFiTJR7u2enaKtHnOjt0lGHh7zzTfTomC3Hc54DhyDB+ox66wzKs1q2dfmCBh+jEJ+kwc/bq1aueQMT8Fi+jFFZVa5IeTbqaiYfnTp8+HROTk8YW8sKkUng3X8qHMUmuNix6//d/6VN/l4f54ggmMAnTDet9VZUIjoi21OpoKYE3z5/3jFpAiKm7RmXiL7ar+5x5XiYtwMcUZzMhRjFz2RB4aLDf8ZJB9qatAmf7I1oLtBzoqMUSY6s8k6KnpcEG9OMTk7rX562TDLAqQNJZXLgdF8UfH82mO4ECJbMKLD773YqZmJqOm8//uKP81M/mbhDvB1GYW8rvVbV6hqZeEB8pn25iTHN45hMx+9H/kwGSKdSvv/6KN7I/+9DDnr3FbkwDw7MK9/HYXb8crf2bsvAX4sKN5djbnorRoZEYUN6QA3K8H/r9C6/HL/zCL5SrtxNdtc+9cDJ+4dljvqZr9td+43+If/Wv/pXc9Rg/txZv3jgZP/VTj8Xo3JfiuV/757HR80b8xm/80xLm+Wh94qfisdwK0+Q4f4t7d99/Kb74+efi+ZMn4/nnnot/6vv/Kp7v+UT8VFcEh55/Xi/lW78Rv/EePLZ6/lX8xj/fiE+IxzXulfMao8NXv5qHkxvxz5/7jfgfCg/XT/5CfCKjFwNfjM8/V/OX7m4eG2robvr93//9+IVHnixXHy76+v+cuvX2iT8suiMtK3RxG4Skxwb6WjEinT0gHXYg63JrYy1mpiZiULrfE2yk+6sO9w50cjw/NTVlnY8O9sRRJdGveMAPgGz2yFEUpbuE2ZGI7mB62uYFeitLK+7eZfmLojXQMb65trGheHpic3tLQDehuNP2A35KFjJ94RN7lE9Nz8TMkVmlq7yABQrAVnu3rl2N1Tt3jBVD0qGsz6SJkHN+hBPCmGnx7w+aKI9YqweK102Bg71iceLEGBn3URG0z6vTD74YHAZo1wVi9FNXk5Yw9Hf/IIhCIK3s+lW6BZRJl4LwWh2lzXV+RiYHnt060rMUWhs0Rc50+WVMHwzRHTA+PBI3btEtgFQr0SjIiUDTT/wn0Tt8KlZWluONN16NY8dOxNnTD7sb4Y23Xov5+VviOqJv5HTMPPm/i9HZT6vxwGxb1nn+Qbx+7WIsr8vCVkPHZfaDJgHGc78X8Uuf+/X49V+X+2zE7/7e3aObc/KL+Cz35T73iwrz3BcFiXnvS899Pr4Yn83nHccx3X8uvtQVzUtf/Eb8aPv+MzH3e19s3wfkvvjCM534P/nN+N0X8p7pvni8FykPv9Odh2OKtuQBYP3iXCf+cr+bx4Ya+mGlToPbmr84+UvvoktxWHmelCldi541YAq0MJQASCYOtccr9XidYOprhSUNd98SL/85L8k6fV8TPu+zPpQxycGBIfnRo5naGzAlPDjksUfpWOJn8lHli/tMDpqZOeKxThuD4hODEIOPiaMeupNRRn7YyAfDkf0I2EGI8MRVjTtPThWWgHNtqzMzUkTlTKfrPq/XWIOPP/54nH7oIU8MQmD0DcMcGcmYvn+yICGY0jnCgbC+aKmw3mZleSXmbs7ZSqNQcV5fo8Ii41i5WL7unvXzPdmyUZgPgih8vnRydHIqrl96PObvMHiOLLmpijHxuCcCDUw8IZ724/kXvylZHo2HTp1x4bzy6ne8dmh2FpOHitXyhKGZJ/7jGJ5+OibGeuLU2UtxY+Orcf3OfGxKNordaf/gSKD3Oy/FsV/8bPxctbye+Wx89tly3kXPfPazUUdFj/38Z+OXjr0Uv/P7QpW5F+ObcwK97jFTxwHYdiYgHfvFz7Sfj2d+VOdzcdWgpHgEgm+Pv1x8Fzzei575zM9FjeLYsz+i87lQFdPFz8Xnfv1znfhFeb+hhn74CZ2JS70L+KWFh943cABOBJRdYiOk7fJZG0/SWei8auxknIks/IjH8Vu1dwyYqut5FkJ30yU7ISAeHxMY9/Z5GSHjnYTJHk4dC6ADakxE8qTRwjNGBHhAWIwrxjkxRGy1YmzpPukwW5Zk6bLlC15cjAhQmegKblR50HVdgZMVJTnGCSmAE9WpBVTPCyM49wnLxOVTMcxMot8YhkiQyTjMRsrEv3+q6XHMgks2GaTGzCdtdoB45ZVXvCEv6bOAlfFWMkxfPIWNBYyFiulecia/H8w47L0Ivvk8GMD5kRN/Lt5642zcnE/whBXWbnrXIP0R9vFzT8Zjjz5uXl986XnlcTWefeaTzs/1G1fjj//kK4oV8Hwsjj7zt6N/5IQqmFp2IxfjxtJldwtTgX6wlOB17MRhiLj7Wj7x0CGvY3H8hJ6+AXBeVSx0x34+Pt/lvthtMYreHmehuZt6/p3jT7pfHu9Fd6fxTtSVj+d+Vyk31NAPP1nfYq3pWPWkLmzdWQcLALHSEqRY6ylLTD+sSoByC2OGyUEVRxSFwUV6m/OqxxOIUt8RtlL7Wg7LzwAlUGSclGFCulbR4+xMhxUJ8BEx/MCHUnQ8CdbSkXoey/HM2TM+En+O2/Z44g/4gaUJ8Npi1eNs5A5HpI3BxT0s4GQrMQhHnm11ygo2kbgzXdjwsdxL6rGV+cQTj/vjn3U6Ms8QIQjOko9Dj2RE0ZP5uoveyVMC9jP6V3ghPveh60drwa0PZX5pcdE72rOLBGOfS0u0KujbHtIDAk5lfGl1PVbWN/xxUpW1v7dmSXxAxLgjXbWPn3wknpr99+LC+YcEnuzCsR+rC6/H5Rf/Uazdec1TtE+eOOXK8eb5N3z89Kd+QjH0xNVrl+PCxfPx9FMfy0gll91dSWPguLKChHZiYzu7aj+MZPCUrVi7QA+5H5aZu3TVGjC/GHO/+Lnk/XO/JKhtqKEffkJ3AIZ1CUkqcQApKTUmemcne/a2twym6Hu6PHv7ZQWio6Vbrb5xukbfCo7lOBeIytFz5iOx+rzzDH63Fxa88w/uuoyiK1ev2uG/I0OIsUsmROYs2WoZ60nFRRcqc1mId3V1zZEylMcGOMSd3bR843PIOndXVqhUtIAyv6DC7FpAEZcNCbjn0QROAym9l6QFqg9IAIMSQN8AiQoQ9QAGt2dGIZQ+meESBIwxmHps9pgXk27KxGXRaGK50FqANdg/EL2Ko0e5QTyY8KB3nxJswYX8QXkGXbGuWBsDCAMBLEqt/eTEl33SuekBmaA1wFggXbWY06dOPeQWCAPAo+OT4lmCGxyNvdZAbO2rZTA0FiOTR6Ilv9bQSPQODscBmzd8QERForv2yMREfOzskwLPn4mLF07HrQXlM3Zjd+nrcfn5fxCbK1ccHgt5fHQ8PvbRj6vw+lR5rsW1a1fiI099NCZluSq62Fi+IsD9x7E6/7wrj9oQkvegZfiDp7TCEvw6dPd1tfo6xFZYafWl5Ve6PL8XOnZcXLxz/En3y+Nhutf9bpp74Zsxd+yX4nMCzM/9fIFLW9INNfTDT3WipRS8J9AADtXI8BIU6RlP9tRxVFgB6PTJf3tzQ5bmpsGRjQeYsLMjEGZrAT4cfaC4WliqgwNq6A/IrzfWt/ZiQ65vYDgGRsZs3OxL141PTcc4H4+ePRqj0pcTU1Oxe7AXy+sriucgtg92YmJ6QvH1KuykMGsktmW49fYJbwSWdOmyCgE/PsTNGtC33roQL7/8aly7eiPOv3k+XvzWi/HaK6/F1ctXY37ulnBkXfpZOCFg6lMa+3s7se/GwbrxDuuXeAHmrW3lSvH39A4od7Y4UziYvdK+8qQrGxSXK8KzQ8BymLwjEt6ErE/3MevawKgEvP2Swro9oYgyPGZyOkcOKOocxjhnMNekexUwQf7+fvrMVQAqMJaV8AxfAZ+anIwjMzNx6uQpWWFPx+mHzghUpmMCN3Ukjp86HY8//dE4+9gT8ckf+wm7pz/+iXjk3JNxTEA7pkL5IAn5DEo+s+L7Y2cfj48e/5l4/dVzMXebmVmyEtdejNe/+n+L9cW3vAPGQw+dlvU+FDdvXo/LVy7Fk088HVNTMxLOvgD2Wlx96Yuxs/AVFbYqx5L81tSImTodQ1RQZPoDpWPxc585PFGHiTh3d7NC7Yk0ornf/2L87twz8RlA5pnPxC8dm4vf/WL3hgnZ5fkcY6D3JMXTPVFHlPGXi/vg0eA997vxO+0IvhS/8w55eE/qBkpPFuqMzzbU0A8zAVKsNkA3DgvMBmSw9NmKlEWo+8YC6R/0sSf9SM3Q28WmATkMpnvyx/JsCWww43b1zLbubQiI1qS/V2TsYLT0D41G78CQjLEBPSUNeNATK2sbsS2Ld0FG2O3FRfkrTSWysbURy6srsaN4RidG2UBIQLsivbckv309m0Nem1s7tpgBUCxOej+np4/YqJqZmRVeHPGY6ZjyNjUxFUd0DwyLAzatB3Myb8qQ88LsWfJYrUyH8DAYyMZ4r2Sgs0OE5ac8E42v7BCczugXprsUU5a1NTZ5JSjsTYSLeXuI/GjGl9Q+eTsVnQ9YY23RCqILgY9nwzRjlqRHdzHdA+xFeObMmTh+/JgHeZlFxWSlaVWAUydPxoysUMZjT506FcdltUxPT9mCrY2AD5IqeB6ZmIynHzoXn3zoL8abrz0at++o6vTsxsDum/HGV78ga/KSCxAWL12+EB/7yMddAbIBsRqXX/ivY/PWl6O/d0uVZzcuX1IeR/5iPDRz3MBJOfzA6ZnPllmwZWzvixG/JCA7TMfkF+3xv+d+71h89tfrZB4B2+c+F78Uv1u6Oztdnm3r7R507Oc/F599tjO++Ny3fiR+qXvyj3jMmbwl/rt59H3At3MfML5fujv9zz/3zfiRz5G/ufjmC/cD/g019OElxvTQrXRjsiVerqGX1gGc3I3bGQZq63J0Oz889IfuMdAIcWwYSRVxpHfRvY5Yb7o24Cg8OMKRrfNIjx5E/N544/W4ceN6LC7e8ZwWdP3skZk4I4OCuOiVpNcRRoif1RVcs1e6x2TlmAQKRjFpFUOL/GHY0c3r2bVyGHtJZtT85j/IF3nmexkmKfGs56Xf/JvKe35ajC9h84FPQIlxNjJGHzIbCiwz8ae3P37kU5/2JCBmtdKFylZ8IPTC7dvK1E48fu5xd+eukjknQnfipvua2eu2Ryb37Myk/Pc8XjmutEZGxzzb9bXX3zD4jal1wLpROGRDXjLB+prr12+4cCb50OixkzE+eURhc99EdjJilu3Va1dtid65sxAnZZUCqgwGI8xLly+5MnzjN/4aEohf+XtrPn5QxIJh+uf5TNh3Lr0Zr9z6gzjzyKU4cbSle31xMPJMnP3k34jRmScUOts05G1z9Vpcev4fxubcH6hyH6hlth8XLhyJ00O/EJ947ElPQLLFKYC+H/rVP/iX8YUvfKFcfZ+E9WUgOTzr9P0m1nX+zol3B1+WsDx34zPNDkgN/anSr/7qr8YXfvovlasPF/3m38k1yIuf+cfW/3S3om+YZcrRO7TJAhvo2Y/R3v0Y65fFub8Vi7euxSc++mRMjA7Tu2tg3JAuX15ZifXNjdiVjp2UAfPwIw/7G5hsacd9dHC/MOS6gJHJnD/yiU9aHzOxlNUZ58+fjxeef8HdwoBsruNsuXdzdvaogHUnbi/cibcuXfJa/hlhBSstbt+6GZPCgZMnjgvkdzzRB9z66Z/5WePIlgy+lixR7ErWc4Jl57/zQizfvGyjCmNtB/O1Rwbh6LiMkuU4dYaN4R/1vgFMOvWSFXhSIwJse7vFqecBTI6c5v9EWQirEvDyfoU60o0KMAGuTNJJKoFFjqdcZkxJmL8wzBF4yGMSLRyAGzMcSxPQVFPGOz8ww+ratese56Qvmq+PMzaIaU33LuC9vLToWWBeVwq/SoduzHaX8Z8SAWyMec6oYfD06cfiqaN/Pi5fPBtz88xc2o2DtRfj6ov/dazfeVPX+O3F+tKFuAxoytKUyOPWwkFcvHA8zoz8XHz8kce/a9D84aN36NZ1V+yx+JFnAc1cJ3pob12B+RdZwvLJBjQbauheZKvRGjh1sR1/cuh4wEsIkOGswPOIn//K81DOupWVKkPITud5X6Rjbx8zYg5ic2PdoMfaUIwrwBrD6tjRWVuh7BA3PDIkwDwiY2rSY6l8/osuZObHEJYN2dH11v/S7zzDcpIxGWIAMnzjRz482Uc/rEd0JThQrcm3O7powQyFKw6pVILfLm1bBWNxFMLPXj7H1CUSdvNhajDmLgzRQsDMJgPE4Wd4wg/6YWLCw5cVLKvLEB1yJomHkGTeuwf1uBXhc2XKaatQcLrhmBAUgMqmAQgMS5g0ySSpcG0w/VOk2m3LmOdHTj8RT8/+dLz1xqMxv7AffT17sbv8jXjr3/0/3W27sXI1rrz0T2J74SsCR1n1i7tx5fLRODP6F+OZh5+MY1Mzf8ZBE3omPvu5X4r4veeym9RdrWxGUC1cuoI/G8+88MXO/ed+N4599tfjsw1uNtTQfVDq5Y42RoejL/NYCX2c98p5PYroGmVskU0FvMRDfkwqAjzBhnTZi8i46ObGhh1LHBk3BUjRzXTLjo7wjU+WFKbBA2Mb62uofYPmqLBnRVbqwu15P8cQHIAJD/RQjpd9BXgWACT+PhlVWMZgRHXoTeLsBk37lefSJYjqH38i+E9MMaV8ihgQmh0XUJ5jzkOAEkICvBy5mOC802+swOVh/lv4+SeX1mXHQXDU8WNWF3HqXzsMhcDg77FjxzybFkFhVWLBsZ0d+75ipa0sL8WN69di8c6CvxlKd/Lu7rYtUQA+NyP+06Vu8PzYw4/HJx76mXjr9cdj7o7yKPDs234tvvOv/69xXgC6Pf/lGOjbicXlvbhwYTbOjv6sZ+gem/yQgOaxt28O8AMnp9G9lOXu9N6+3KUBzYYauj/CKmQYCZeAyQQZzun1SkvtMOW1/f2XQ318nsubzgwOGAsAMuar4AAtKCcT6RnFiwW5s7NlkCQWJuxgmGEM9Qtj0O3giMG3dN8ClJOTE8YdJpEO6xm2xqMHlCFBDCcAGoziOXokyYMnrgojSDetT1E3aPLT0X7lPK3NPPc9+RvK9O8dtG63mHSOIIsHoMM6HgZtSdxOjJCAQUzOICnifwJmJzbOfQUPMOGDL9oEUOJHFy0O8CSs+9/lPzk97c/EEPcg33aTH3whbAqbI0JC0IBpFkC/HV25fX1/ykBTqILnzNhEPPnQI/Hxh/69uPjGw3HzFhLYi+HWzdhd+qb43/XylfPnAc1f9Mzc47I0h+kqv0t2DTXUUEPfLRkSrHMFENVxLYf1iHVWyRrcf4ePgCT6v04WxXpEL7OGkh3Q1uQ4rq6uGPwAOT5kwTAf/tvCFcYQ+5S2/gyE7IXOckSMHrp1casrK8aa4aHBOCYcODo7G0eOTBtEiWdlZclp8Dw8sOaf/A0OsLEC+RCzOW+3ne+2K7/808/+aXHa38Tz7wic70YHFgIZpaWQALotgNo1YGEhIuQMyT//LwT4dl8X0NRRVm8uezFj6W8/nRMna0fFuQAxt0siI/ghEAoaYbKDEfxgks/MzMRHPvKROHfusWz9SMgIlcwzOA2/HxYCPL3O02Oej8ZHjv9MXL10Nm7eTnkJ82N+4SAuXzwh0PxMfPyRJw51z5KnhhpqqKHvh1iKiC61TkEPY+AUw4g9YOtHqFHOvl/0DqCJPz/0MpYlhG5eXl7x7m7Xrl+LixcvxltvvuWvar34wgvx2quvxuXLl+PihQveB4AuW4CXb2dCxpnVNadv0FYadMdiWZ46ddLdtliu7C07MTYW4+xpiyHBwwprkBU2AaD0QDJ+ymfIsEZ5FoBlDk3VnxUUyUdmTz7F+Zb90lVqgcqYtrmVEFOGE0sr0OGP2c0XSwAhzHGWogBitC7osoUyYta7VDO/CvUw1cQZr6T7deHOHQNhn+IeGBzy7CuFMi8sf2FWFLtAsKUT45t0K9B/DagiDNJnJyOWo3jJigSM+b64uOT03RLSc2xhR4Fw/WGiDnhOtsHz1uWPxIWLQ3H+0mDcuPJYnJv6OVma5x6AiUANNdTQB07ghRQzliY9e95ST9feAAA9Kx3MWCTdnMxtYZgMPbwkUFqSnt3Y3PA9DJRBWYLoWHr9WJ3xsY9+zMsGH330ERkz52L2yJEYHxs3CPYCtoofSGAGr5eSCBPcVau42LJUETuMN2QXH3S/gkOseb89P+/Ph/HpMO6BTcxj4fnBwX7PxmWjHnihO5glKUwcYonK2GjO0VH05hfHPugAKvjCJCTwwxOc2GhBz7LpPJgE7hUNLNaNcBXo7oa7BLy2bwE/EzcQuhxP09rAMQO2nm8J4LBOcQic9ZlYrgAnG/oCeHz1G3+mLgOk2zAsQZIhJiUBqjBP6wGwpZWywmJYnc/fmo9rV6/G5UuX4ubNGxLoba8FeuXl78T5t96yH1OeaXHUPvYPE1XwnJ1gk4Qn4ice+0ycHfrlODP4y/GpM39Jfk/J0pxuQLOhhhr6gRMrIvjaFcsuGOJCRyYSYPzk2vxRWXboX2bBoscBMk/CGZBOXtuIeelcdDH6GfCFbIUyVCa9xecjAS/AEpCcHJ/wWCUgjKFFryEfnvawn+4TP8NsQA1g6hm4W/kxD4wgcAWABPkIA/5Ui1MRJuCJD8Ik+Mkpb+knpzgzODmtv0o6F/aQjzqxiU3iSRMjM9NSaMx0Y6ef1ENdx855t0s/t1KIRMJwF6oybTQW2HG0K2heHTNyCcv6Hr7BxsJXWjZYlAZKnffLumUHCOIhTqxT7rNf4cuvvhZf+9rX4qtf/Wr8wb/+1/Fv/uAPdP4V+f1JfOc7L7kVgoCpBK+88rKA8824eeOGZ2ExUGxhfwipgueMWmPnTpyOZx/5eHzikWfjiZOPGFAZD21As6GGGvpBE12aAF4CQ4IKeh5F75m1ukaPY/R4Tb7CAIZ8+HliXLppkFUPaS2i49lIAYsNkKrDe/4MpcCHcFiL09O5AxyWH+kwmXP+1pwAbsdjnQWSyj8AB9yhN3PPXa2AHxOAsEzpFXV4wiouAyP5kHUIDxVEDZqcyxFPxbP6cYy6REVe7p7m26BVHlidBmudG+t4gBNTiage73b61z5WcmL0jwvgcAjOYOnrw6DpewIAHF8Gydm4A2Y8LUy+HrKXjClsAjGTeph4RGEMuLWzqkIgA2zSy0Cz+60FxIAlBTGllszkxLitUsZjmVmL0MS4BfxhJYAR2THxZ4JP68iNqPVFl0UDmg011ND7QehSrEyO1u+iw2oyQdFGknR6W9frnBm0dH9yzVeq2NSGCaNChYS7AkrofoANwGKvWzbJQVdjfRI/Ohx9ja5mfBLLDp6IxcOFMqiYFIRTJAbrsbFRb8PKJNHs8gWf6Oqtk3+KNdp1Xv19przWvEOeUyNHGPeM2vrOya/knfM6W7jnW//VrxxU6/C1115za4DdErJ1kAgM+KzQYhA/T3/0Y1bumMxEzI4KOEALpD929Fh75yALSsxtb9edg1ZiaHgwZmdn4pYsw/zY6Ix302FTA778zfWR2aPe6ICuW3aMwOLc3NpWmGsuHNI6emRGmWOKMpkKtWoEoOKTz8h86lOfdsvo5ZdfiYcffjgmpybdcsAapZ/6W//o/2BBfdA7B32YiN2DGmqoofeXPqy7BkF156A3fvQL7koFAwANLCuAivWU7BzUkp6dHO6L8YGe6D/YiaXb1+OTH3sqxkf5yDTgFrG4tCy35P1qMYIwdo4eO+YeRIbtMIbWlhZj+c5t7xLHZB+2RQU4V1dW3SuIbme71KtXrhqcGAcFf8AZLD7ms4ADV6/f9FasZ04/ZAPpQLhzsM8nJLc9GYjeyanpqfjkj/6o0tqL1Y1N7zbHRu3sHLS+vhkXXn85Fm9e8xaubBTPF7W2dva8Zy9YN31kNo6fOCmrOj+usSWME3La0vTXYQBOzG66a1999b2Ac0PAedAGztrfC0DxPTZbdbpmQ93DwLnve3XLPUz4o8ePOl62WaKBM3frVlyRsOjnZm/ZY8dPxMoqY6ACTgExwLqplszNuTmPVdLimJWpj8AgwJnuAPYtZJ3nMx97xv3TxDcrAbDzEPlhSz4K5Gv/8G/6uQcZOBtqqKEHmypwXv/z/6/25jboVnQteEBvl4y96DvYjfHB3gTO2GlvuTc2Mig9fuDnMFwYfjuQzmeCJz2Gs8eOWt+uCx+w8TZXl2NpQcAp0GOpCUYOALqxvhHzwoA96fkjMoguXrjkODGsAIg69gpO8YnIpWXpbeHHw2fPxMjIUGyuMewnS1U6fnllSXizE9Mz0/EjAs5tGV9rin9SuMSzzJUBON969Ttx+/rlNnCyJZ9wU0bWTNyRgTch3o4Lh9gAHwt1g8lRAk6+DsP+AACohZQkU5csilnAyGa7jxw6flzzBOY4AJhdtWnGp/XaNcYpx6ByPbcJrBbHKN2QAljiY6wTC5bWBJsfYGmy9+yuTO5qJpMggO2WkIQOD9zL+HMAmk192QUff1onJ06csB/mPWnhuNdQQw011FASuhLdig5Hl+LQ7/T0oWjRmXRnorfT+pOFpx9dqEziQfdiObKigbCeVINRw7OOl25UX3qOCeOMHWxh+CzTZQISQ3J0h4IhrMPP53IFBrgAD6nfh/w9UPQ/vNCNqpDusqUrmAaAJzaVNLrT6z53Vy1h9bT5VJq6Y5wC4JlpiwG2sLDg/dhpVGAIGkXqGGeJzw9yLGdOAI92opXAM2WajLvLlIwCcrpRjw6WB1P6Uyhq2dhS3fYsKlo8jl/PYG0yEYhWDBlw5gSiCM/b7knIjFkSlwtZRzJNIXL0uh3Fy/RjBI0A3B+vNBpqqKGGGuoQ+tO6d1/at+hSyCBXxig5orPRv4S1Xt5DXyc4Jtj1Axk2hOhhBFdyKWNujECsB9LjPO85MLrvuRslfSb6cPSsXqXHOWRAV3i+6Yyr81WAVbChTuKBmIkLcHoykPzwh1dPEGKykBwADJZA5MvjsPoTG84/5xnvjrGE2cL+uDaTTFeWbeS1iBBG+SwLAUkQU5cE4TsFKQZ1QUbSkXnd4wdgOkWlVxKrViVducTFekv8mfhjRvUs/d5rYoo1Q3yk+eSJk25FIEgAcGpiMqa9bnHIU5i3QXq5HuV3Z2vHbl8Cw7zPTRgo9Px+HB9TFYrHlvKyrtbBto58300Z8Z4RDTXUUEMNJaHbq1ECHFmXyz9d6muMo9rjZ6CVit3Zlb7fPfCRDzyPjI3HwOCwu0PrB6B3pPt3ZcTw0Wvw4IAPNbdJcZOusEKJg1YOm1Zt2Z3OP6U/oHT5RrMcH8zeK2OadNGCWftiCFyCNyb5gDPkCXzB5TWgDOjnuSDfH/DOj3cnduyBbQKZ3T3h1q6wQ25zayNW1lZi1UOWax4DbdEvzfjgpUsXPTgLmjI9mXFNMpbdrP0GQpvLAikQnkzRMkGQtDjMkIAxgTZn11rAbqVkWGZCwa7HL5UZLzsRSE5Pz8RHP/oxd7NW0Hz83Lk4e+aMhLofq0srcf3KtVi+sxSz00eiv9UXw3z5+6AVu1sCToEz8dG1C2j2iKfh8XGBpUBd5wPDw9GSgLiXuxQ11FBDDTUEHaASZViwgxC9hgColLd1P3rcXZ4iMC+tNz7T1RejYxMxOjqu5wake0MgIxAVKOGPEUQvH+OXjl7OUMXaTKVRZ8+yKoIVEX0Ekv7ms139BjK6TNHnu7G5syVdHrGxtxXrOxuxpWvur22wi92GgR5XLUk6XgFuUtWl+Ge2LKs5cixTDxs4+ebz+ISMs5HR6BM2AZqb25uG6s2dTYPm4HB/jE+Oe8z02Inj/mTancWlaIHubI8EGNKvzJggX86eYsH90LD96nqZexFMkxEmDmFhAq6AJ2Z69oOzATBrNImrx+EwfVk8Sx8y2ywxJRkgZ6YVQmfTAtYAeeOD+QV3H7A7Pt2wWLztbmKDdGlV+Ki0BZyAujeNJwzXOjbUUEMNNZTknkP9AMuuq7z0mQgwtcvLtr/1aXa3omf3FIZeRvCED0azVIUJQCwd8bZ4Amc2TWBclR3emEjKN6DZjW6I+wJEEimxJ+kCcM/PUIqswjmTkz98ov8dTr5wz8YLzOgF+Dsu59ukUSdjT4HTGs3uY+dBzjy6YTAqLJyO02dOx0c++hFv5XrmzNk4fuJEtJZY3iH09xZHQmQGZxnoze2IMGuxFrMPW3y9J9mq1LOs7WGtprtOC3MAKUAJEDL+SHx8tJqZS8ykYnYTg71kAmA1yCqM+8gl5BE+JbOy4lm19DljARM5aRKeDLs1JIf5j/mOgADO3E5Q5wVgG2qooYYaSkrQSbisAJT/8EkCC7Dk0Lno9Byyy3s8Y6df1cXZI8nnxVjesul7zFNB96OjSYaw6HcbQXgUSh6Ks0fx4/TucO9A9HCynpTeUzAnJ56W40buPlT5cE8q/Oi5nOCaXdIAOz2gbBvISpHTp894xYYNQLqijfqjo7YwyQQRMt7J7gxYjwYo0zsz2U1khH3+6o76tfXAGGplEqsS6xILEuECtDAJQ05fAMs9XDXD2d/w6aefEvOnvc6zf6CCei5cRfCAItceWNY9CqnDRwKm3X3ko6GGGmroQaHUjR0g6ujIgowiA6X0tWeggpgFNR1S//Cj+xRQwdJM/cwyws24s3DHPYvedF3GDz2KCWqdrVg3Ba5su1o3TCDeGnelyh/U5tW867wcceh9jDAsXe9d3uXwpyeVr67Ao4FT1jGUOJFGFrsfsTST+HKuzpb3xWVb19sLt6PFBgGMMWKSEhmWIYOuyAVLDfSFL5C7I8Z3JoAQsHP/9bt01U5MTvir3nxwlDB0xwKSZAKrExDnOe5BmNag/rFjx8XnVC4vUYbosnUYCTpnaMmM13MIHhAlvnY3rn8QraRmelBDDTXUUDdVDVn1ZOpK1CuAyfAXoJlH69AKBmCWfoAOhlL28rVS/yu8d/op+IHVx4xbunHrTNh0OQs3jTQmeRIpnKTmNm++xqv4cKx+ovaZTuDR1mVxLG3svsYxUbViBuG74wM8Mc7IC5NnzbtwbZF90efnY4PJQcxo9ffN6rihHgbk2MqIDdjpJoUbdgeyJO9BmbhcYQKqj3GcUnqPPXZO4DlrxhAaQuY5WioANcCJ9Vk3BqZQOkLOGbQ5W5cZVRJAF3CSKnFw7QTlCG8ByQqtVmpDDTXUUENdhLosgInhAUC2rUzr0HQGUwKJKoilDmYyTk4gZaIpc1PAELo8Gbqrw27unu1jfWfnWY9JSm8nfhhB8l9xPuhe27+QwxeX9znm8F26TNfn5ehhSR2xTJ1n5Smfy3kyUO2pJDHC9ffSpSxLVvxjvLVAU8znyhiAUxMlVro+Ecb9AA6CqF2uaakmI8QBOHo3IvkBkKRjM13+uUxFAhcoMn5ZxzBh3hkRcxVMIXhhRha8c26BySGEyj+FwDOAZXYVKw+KE9dQQw011FChAoT+AST1GqDUET3a9pMTcjqsycCRz3hGa3FYZufPnzeAMkmH1RI5WWjUPY+AmK1TA1RumAN2eBInEeafz/OaKzzKNaftY7puqgBf8as6NwTkeNZGmeMj2jxyH1f9jSfik/k2zBSenpr2bnQtulbZyg4Aq6Y4QEZ/M7Nt+eQMYEMm70WWaWEsWyX4igEJAwExq1V8JPApPfYUJIPEDSgSZt1dvTl5CEFyj35zhA3SY+J7jFThMPvpsq0Zh2j15K4TAl0KuPKjcAmejcXZUEMNNVTJalr/DIrW211OutNAWa4rXnYIgGFiJsNruasP1iPA+eKLL8Sbb77p8U0e9CbtZeJpHU5DN3MP/e3lMOhxq3KO5bx65Wnx6/LsooQBeE0rOfcNSBA1KDrNTK/2TPIzXB/I0FM+nGfyaZd5tuGoc8ZI+YB2iwT4vpkn6+gmEQNq9AMzVgmI8jyZtXVXzGsL0fGKEfkbxcU0oIdliV/2eacwECgDrrQuCEN4GGSKMq0N/AFJ9i9k9lLuIdhXwDatSFosFy9eEKAvxaqsZHJkgFVrhiUqo7pv3iQY0sNq9WdnVEjmFR591lBDDTXUEIQOr3q9eORR5DP5cw+dbQBRMLpAMVDqM9b10rkOI8y4detWXL9+PV5//TUZOndsJEHMWUE3kyZxJXAqDl17xyE2PhB4QcTND30OMBszFI7nAbxK+PFzeBtpWLK5/hT8Qe/zbOWVY11pwfAk9+m9JA/EPTaSVjEYBl/sRFQBlfBQy5sW6MeGB2yqTsIwArE0hYk4mUifAZX+3prx6rKrNccaETWIroj8TIbNDBMP92GSazLjiT460vWKII8ePRonT560tckYJmG9gbvSprAw/zGZiZMlKjiPyY6M2CL1Il0BJi0aABxr1V238KY0uwXeUEMNNfSgE4DgMT2Ap/hxNNBIn6JLIYCEPWjR6UyeqZYjgW3ADJZVGRu5lh89zVew2BQd/Y6eJ43EiVymCAFgIA7PMHclcSjHFnMjBLACo67gSPHnoYpBjkBE3Nb1Ir7CUo/gB1Yn3cnEQ/zwAjbIw5N/3FspXvhAN/ln6Yp7RJUe6ROOuNlwp8VMJ0xkMtVuASgAMiPy6trUfepAnPjKjjw4Fz7J3LT9fJ4tjY4j3d3c9aGkX8PQfYzVi0CxHomDqcSA5NHZo55oxN6E3oFCFjLCgchoAmWmBwMIwIwkGw011FBDDXXTu6rHYiTprI0F0qcM6wFG3Kj4AaF7MX6OHz/mc+69DUfehcAirDoAjC5fjr7G+NERkIUM8feO7t0Jtgs20GPJGCYfvqYRwfDlpYsX7a5cvhIXZKxduHDBFvQd76G+Fj1f+y//k4PFxUW3GG7oxqDHElkS0hl7JIHrN2/G0up6fOrTP25/EBpTHdOaz4Vtbq47HF2mDAB7UwVldnd3213BoLmtPQlydDxn67KJe/20GF9Leemlbwffy+Q7bfSFY7Kz1gdLk9YL3+P84z/+4zhz6lSMqsUzMTzswmMvWrZC2tX56PhYPPr4OS97WVldtQULaCLjC2+9FZvrm/H8f/N/tOya73E21FBD7yf9MHyP89bP/n0PowGNgBtb4AEgfCC6JZ060NqLgdiNodZu9O3Loly6HT/14z8Wx47NGtzYrY1POm5u8cmvxWAPgFdffcWW22uvvhxPPPF4PHz2tFLi848rNnQGpNMnxsZjWDjAfrbrAiMsOXog6ebtHxyIiekpGU/b3h+W73yyKxF4MD83761XpycnhSmyKLc3g71tiR++bWQJbx5/8ikde2NhcTmmZWj10AOqdFeFO3OXLsbm0oJ4GPPGDuxKxGczh0aGQe945bXXYuHOnRjhQ9n94lFxMrN2XPjEhgg9//bX/4MDdnagTxhEZRyR8UVA0MAp8MO8vcbO8AKdT/2YgFNh2QGIrlcDJzvGs7etAJBFpghsW3ECugAnE4zcfyz4GtD9WQkc4GS68oyAk/2UWL/50ovfFqOjPgdkAVQKhRYHwHnp0qX42te+FsdmZ2NKfAKeG0qHTX9t9Pe1YlzCfPjRR/yJGqxQvglH6wg6/+ZbsSXAf+G//T/7+sMOnG4RvQPdT8vtvQjQ/MIXvlCuGmqoofeLfvVXf/VDC57dwMlwF4RmwaICgIakv1uxF/09As/YiWEBZ//BbqwJOH/yxz8VR6W7+6Rz9wGdnZ1Y38RIWvHSReah8JHpr37lK3Hq1Il4+OEzinvfmyC8F3DCx9ytueBrWQmcwhcZXgZOAcy20liYvyPwmjFw9pJ2AU535d4ncM5fuRRbS4sxIhzBygWU14UlfLcT4+6rMtDwP3XqIeOd58uwkf3QsPluJUDWfWhTUaOXrZp1D9DkIXeD6oZ/RXH7eJcfRJzE5KOc4y0YwPhj7ky0HusC27oBQrfLCUY7NvEBbsx04qe1gf/y0lI+KxD0p8nknwO5+oNfhWF81N2+cvVYzz/shMwsd+VpS3nZUMMAt6nWV93IOOXaUEMNNfR9UtUl7WOe+4dO1T/rUO4VNc81452MR1rvKgy3PMYog4uPUB+RgcNkzzqOWGJ/T/KwnTDCcXPscr4u3cEFdXxeCYyomHQvwlAEWwgKX+SHYUOMPb7bzD3mx2BEsgEPa1EZIsQfDGoxtTaXfeSSkXqsg7L0WxuIBGbdOU8G/XcXvV08CL991HN08SJMLEn3Y5dzH+XIhHd7EPg5/SK4Oo5Jiwiw5F4FEBduDbsjoFfrxfewNrmnYy6RKcx8SImuZ74IsKpGwdzSQlyevxZv3bhkd2X+etyS35padIQhbEMNNdTQ90PWiEUvcjBg+qpQ1Zt4ovABG+lo9C1gwz0PxQk7PAbJffnR/ctQGfhSl4Xci5yM/jG8Bg7kOGoaPNUZFwvwGIbyX3rcLzmhjKY+6V5R8El5oOeVntK5mze9FjV3G8pvQLMJQgsgYjySx+s03pz1RFcpwLnrfmYm6Ji3Lv6M+PLEP9G+K+OcUAD1aKmnMHLLpdwxKB0bIaQ1iSMSnqNgPBNKR4iM0RogUzBPi8DLWQS6hOdZAB6eIceBU5oqiXa8H1aigmBhLqysxJs3rsS3LvxRvLHwP8a1jf8urm/+d/Hmnf8xnr/0R/H6tcsOQ9gGPBtqqKHvi9DZHKwb2xdthz9A6WtIR3SqDRf8RRhantADcAoX6DkkDNur1pUT1sP3oLokBBDmAx0+b7sONvnXBUj5//4JXhiXrVnCgGOfdfxtJOKntDxMKODH0nRg/bF5gz9kTYsAS49M+zNcPbQaEjiZoON9BAE0PWVW9Q97NK9LypBOOxlA4OUUX51ziWA8dblfzAzkJgfV+Vr3EDT75pIZmOcZrFTW1mD6M6HI+9qOJYj29Sdw0h8OeNK6sYCd0cKET7t5+nARvAGEt5buxHcuvxI3t/4/MXvmv48nn/7D+MSz34hnP/6NeOKpL8eR0/9M9347Xr7ymsNuq2x4tqGGGmroeyOUY+e0Eqfd3jgAy9fWpR2HpZa9lej6g9hYX5OFthMT0tOD0ul1/BGqGNHBig4Bju59tOs6d68k110b8RCBnf7xp2M5Lf+6qStjIrqCvSe7fjxHGnwdjOWZbP4D5hHFgHBnQPgCzu3sbEnf5hBga3d7PQ72dgxAPX0yqaM3dqLlD5LSy4kgBnoPYnp8NPp7DqIfwSh8i7lIWHZqdfTCrITFQlHCM1ALAwiO8VNAkrjIDZOCevsAZTbZVfxy3jBhn92JlHE3KGjRyNpU3AgCIqMMRE9OTcQUm71PjUVrsDcOJMeDliLXcXAI0O0PvtjNIDSgy7gogmDwt18Waq8A+cNGVDz67pfW1mRNvhU9E//f+PjHvhVPPbYYR2e2Y3hoX9b1fhyZ2oknH12MT3z8W3Ew+tvxxvWLsbi26meJo6GGGmrouyWAAzBwt6uuMTq88QxOQMUETfsRVg4DC0MGo4s1mtsb67G6vGw3JJBZU4N+Xzp9b0v3Nteir0dAsy+jZnMjVpaWYmlxyXNQADM+XI2eZ5IPcVdwZdMaNh0AhDGmYKx2o5L2zi5WIetCE0PAHcCZHri+fsAVnrEsMQxzLBM/MIlx2X6F6R/AQBTWkH++zynXO8B2sMrDylr0Ku3J4YEYkbHJbOLY5wPae7G2vcakKYGWIuuTxXfQ6otdPbwrNNrdV2QHLEKVhSgGJkYGQ3adhKAcCMR66CL0UQAIk0qEDCAIgDC7TYspLCF47FGC8A4VCr+nDJFJMguK7wqMyQSACmjSDeCBZ4VFQHvlPpbogACyV6C526O09NvTsUegywJcnLuXt8smC4qHVgw8wGB2+n64iFbPuirS9YX52B74Ujz1+IUYHaU/vdyXqPfXe2L7poprNWJ0eC+e/eibsRq/F9fv3PLEIeJoqKGGGvquCdUhXZldnyL0OF7FMRmRe9k1Kx+5TSZyqqG/urIc169djYsXzsfynTvGBIB0SMCEw9gaHx6M8aFBL21hGSNgSw+mkQCwRkf7SukBnKTXPscgwzoSf0oaYwhMyuE4eMaJZfMOfghMdZ8jAO+PZg/JklR4XLV894UzglEhi9JSuFb/oAxH9tAdVvz9AvntGFA848KaIRlm/T0yAuVkasbKxjJQ0uP+5DYhKVM5MfKZJZ2Wc47FtU/5KZOAHS0XWjBtJ8GwuxBoz7lzatE4x5lxrlICJHEXEQZOO7+0aJVxClJ/8sowEmydZEQ/O4XNF8YRomflCsw/bIS81rc34tri6zE983qMDAH2KQpkuzLfE1/7w5n47d99Iv7tl4/H0hx9/RHnHnslrtwWgKqiEkdDDTXU0HdLBkQpGnSkAVI6Fb3tCTq6l5Mqw0Nh2KTMR5lfWIhV1mRKB7NU8c3zb8XtO7dj/vbt2NzetEpmLHBgcCAGh4ejnwk1vVh+LYEOk3AqVIoI/N0Qeh7l6PN0XCZGKDrxXTfN8TCkdX9ONGWYELxjHHOrGBy2oNt5J4fh4cLhIfGt8AnW8J0G4KoaDDqnb1oPkSDScVSZF4Nh9ddftRC59qQbOc7x86wp/TDpzYjBKweL6+buJZrMqzNazvk505lxKP27T8qxOCxaMlFN+0pkkA0TEBizb/nySwXwOmnow0TIj8Ja21yLnoG34tisCgXQrPfl/t3zU/HyrV+MY0c/E5eXfjq++fKM8tMTY6Obeua1WNtai101WLL8Gvru6KX44uc/H198qVw21NADRgz1MBRW9Qf63CQlZH0t3Yzu95CQPBn2YsUDep11970CF0CVrfbuLC7Ghu5tCVw95wTjRuF3ZOhw7HQDo/MduZMinfvVX1U3Jni2r8pB8Spu0skJrTk86Fvy85dZBOC5hV/GQbp1zJMuZPxYTsNEVMCyyoAxXHCEJZQC/7TQkgmYL//s7FUoQbJOK04ALRal/VLYxOXJP574k5N8vNG6Z0QhLKUjx/Hu87zs+OPyV6le97gQ3VLCt4TzfZ0D2AAnfLIrEl95oYWBMJmA9GEjgHODVlrrToyNHAZ3crW83x9DA31yar1JtvsDyOZAraK9GBqZ9/KUHJ84VGANNdRQQ/dBTHzJJX/oc3RpjmnmjwmjgF5+dEO6R26Y72xOTsWRY7Px2OPn4qmnn45jJ054553R8XEP/altrwa9tJJ0MtoJ3WzLDYfFab1dODCm4IrHe1Ly5TPisPOF/cAg1l4CnOh9NuVhU53h4SHjAjhEDyiGlOMpzxFPWt/7OelU8QD8NtDEGEN+GII8IuAEaHIDBG4aIP0/z7oz1F5bI4efAZNzuwqqxNSdIRA9wcEFIwXffe9tjgLT0XH4v6h9n/N0TlMR+7LeM795XYVH1zEThUgbS5QC+zCROHZrjgLa22eH/nKji37yR29Ha/Qr8eKlP4kY+aP4yOMLajUxgI6FvanKqYLVr6GGGmrouyV0Jbo0xwClUwFHEXoJB9laE/CgoA6kQ8cnJ2J0YtwA+shjj8azP/KJOHXmdAyNjQo8RwSUEZubW7G2vu6d3dbVuKdXDBDGckurs4xHQUqXtO+H2jhwiIQB/NdNcIi1l2+99Va8+cab3noVwGOSKtYm6YJhXuuvH2DurlnxTbg67AVmAL65UmPfcgJQ2QhB4F+6amsGIDJgV64LkbF0HfDk1+62hZnShcp0XgqC82oCI0juJ9B1nP7ZvZO/z/lxLapcuoDlB+/ZCqA7IUEIwm92dtY7PsjbRHj65z9MBG80KliKsrsj3mmmdZMuj83sxb//82/FZ/+3fxh/+efeiONHkWFpNOiRKpsfFL30W5+Pz//Wl+JLz+n4+eJ+63BfpsPUe3bPxZfmyk3R3O8/d+j+c7/fdfOlLx66V+P2M899KToh58zD25/94v+fvT8B1iW57vvAvPt39+29+/ZesHQTDaAJwCRASdZCUiRkUx57bA+lGGkw9DhMKULyjMKBGDls2YPQaBSWAg57PNTYVIwjaAQ9IdIRHmlC0hCkJC7mBkLE2kCjF/Tyut++3H3f5v/7nzzfV/f22xpodoP96tybX1Vl5XLyZOb558nKyirJzVE+mjwwBavrf5Z5ZZyYms04n/1n1+zbUksPK/k5oMEzrtG36Fesr9TzWJtD7Gdb/ZlNBEQZ8I90Rsup02fK3PycwwCmHFl0Qximcr0AxxYbFmedfYzsuhT5HwOde5CxoevsYX/wCUtzeXm53F687QVJtqDlYko2MAiwxN8YxdoXZU35EiTBNhYxcU3avPbIdrJzc3NhcRp4nCGg6FOTYdF+D+j0B7kgMFrNcarCoFafw0VB7+Kcwp2J+/rphqXQ8G6hUNkqIBZtTicTBqvTOz1UAbFN3/cSUSk8E1hav1ZGxm6poR1tOMiD6hntHJbpiYMyPsoqM4tBjaOU3fWJMjIw/NZb0l/7fPnyRz5d/u7f/btynyof+trnugAGwH3u6ifLp30P9+nyyYXr5fOfq6AncPvsLy+UT+X9T3+ylF/+XIDa9X9ePvu56+WTn864kTbPGBee/mhZuP7l8vUEv+tfL1/W+fWr6aGkv6KAT3+sfKiCapOPT/94KZ//bBM8xdNXztX7ysdxBKBPf6rm/eny0a98vgvCLbX0MBK6kxf8sbwgdHVMWWKNsUYlFvMQkkG+Fw8RUH5MxfJs89bt2+X1S5fLq69e9OboWHnrm1uyNLdsFKDjmP0jHXRxb6o2ND55GbkegFL/H6VIiV/2NX/sscfKk08+UR595FE/rwQkSZ8Fozy+Y/MD9jPHAsWq3PTjrpiqhgBO5yFn40w8s0ECU77TMzPin6wcwOFFCX9vJBfOrh70k35R8D6/cxPPOIfFbG5uEH4ww4qmZqHfUP4G3eNWVCYVUB0EDzFCCouYLZOcrxzESAP3vUKeolVlrWysl7W9F8vHPnxDMkKOD0AKtr4ypDJeKOOdcVdsNJ23iBY+WT71pxfqxYfKpz4l2PnlXzLILPxpAeqnf7TkXfmUD3+kd9UEOtPCjwq8Pl1+lCDXLwW4dklpC8SUvMJ9uHxUAPzlr0WI61/7cik//kkB65e61uKXvqYYH1Fgg+pC+eSnenws/OlPGcAzPrTwkQ/3+Hzml8rnryu/v0hm0EL50U99slGOllp6+AgrDH3qqVORDRA5wI31KYALqADYYJRYaculnudtheXlFW+ezh7iGEyjo2NlSoA1K+tsbv5EmZmZNaA5nxr/KO4YRt4SYnu8l156WQC5bAAH1BcF5utr692pV97KCKxgarrf2wMyVUuZAFDSYMoWC9nAycBCFgsA7I3h4ZUpVKZWvfSYxGqCEIUDmCgwnxxDyCREmQlD4mTc6QSiM6qI6Vk2Wud9TqZsA8Ux0QFWAJR8QHB/Y03xcTahdYR5HMx6JyPljVTzGSujofgAN9Oc8b4nPMIx08LcZ24dIbnQci6DmI6RxztPyI4FTmsa6VxfvlFWt2Rtqny8q3Q/YjZ6d7OvXH75ZJmefKpMqJHmcuq3jE6fOgooC+d0fb1ca6JeY8r1s7/cAKs//WcEh70p0SNTrR/6M2Gd5jTwkSngAOAEXo4Lpz9czi0IMAl2/Zo4+FD5GLhnAF4op44yeSQ+tHC6F8D+LkeDFo6Vs6WWHjJCp6I70qFYbYzoHB0FAYarq2vlG9/4pvX7hKw1f+FK1iYLbfiaydDgsAByzs8Bl5aXPF2KLga0eKcfQt+j28EK0snHe4Rl4SbhE9DQ97DDjj6kSTzibDPVJsr0oYxnHJCCZCoYHsEaVsfiOGebVmYgWUCKtuQVSa4ZGKypfGAJAkAODArAGUAU/epPr4kv5wNjZGRGFUWHOMod8RAFU7pwpLjn63qPzCgcicLQFp/8EjCklcfohXA2jSVwjnzSjPdpWN5MJcDk0Yp0VJM55L+Rrw9yDqejR0Si2PggHgITlrTgi+M7TfBDg1zV6Oz1G9fKyze+WL7/qWfL6IZ43yBAhINqMe3HOaB5sNVXrjw/VVbW/1R5dOERAycN5e2i7vPLxpTrp3+8CT9hRab/9V+O8AGgsvJymhYz82sVfCuAGuhsYWJdApI9MMQCve5p2rtTEzRbaqmlB6FYwJk6VVrSehJcSEAC+PINDAKj070tncIBbJ2RUQPVzPSMQGrcVirGEMYSj88i6UjXoCOyHtcx18jgz3WE7ZHX4VR86eryep1az2lVB5DDH7wz6wk4gys883zt9dfKa6+95kFApBMbuuP8JggLiDDYlD55woplgCwEqljXALd4rQxQSI7ixMwoBsXyHwxVQArC10HqL2E4jwKRCACGpRkmcYwKzIyYSouSh61YnXnNPDvOaVRCNPBHmvyl34MQAoiKj/yDr7B+3ylyxVbQfO3GlfLsld8sH//4r5bHJzdL/5YCqOiH2wwAVGF7OnLOc2sVwbsHXRkoz/7+yfLC5X+jvOfsx8qJqRl/2+4tf8Z5FeuuQV0L73r5+ld09uM8/6zTr9y+C2B5WjcB9CtfP5rmh+qzRgNonY79EMAo0Px5XVeQ5Nln+covlV8i37Qg72QBc321gu8dyP7Hp4ptxbbU0sNLBqxQ4F3iGl1pI0Z/6OUT8/N+dgjIHOzJX1HGRsakf4YFMgNlXAP4ifFxW3XjYxP+ADS6abBfIArO1LS/WwIf0oFbxgeRccpYJCf8Sasz9T7geeXyFam2a7ZWvYm8V/iCMaTTS7c7U1njMkhggSuGHkeFAVnrVKaZCOBzKSUYT48Kbb1aFYbwOypjh+OHEQpTswAVGQJc3kle6RswAFHmjXVtxmq+wYOOMGoeKEiwkdL2oZ4/aA30gLNnwR5vIG8nWQbiZ21LlubNq+W5q79bnnrqV8vCwHYZ5JvaMwLH9b6y8vxQ+fZLE+Xb354u3/zCibL49bGy/I3R8u0vnSz//Pf+SFne+Qvlg49/opw/caaMdzqW9VtO1z9fPtedYn2mfO5zzwgsmYINagKlFwt9rV6IwiLtrXyVT4Atzxs9vXt0BW5vwQ8kK/Np+X1N+XVB8lRZuC4b9PpC+ejT6RfPQ7sLkkTX/9nnyuebYY6Tp4lVlu708PXyzz/3+RY4W3qoqfsoDN3YUCUJQOhNXuUblyW5cHJBYDgi0OwzYOLHCttclCnTyXFyMD/A/q9y0upK8K3RU1izGFzod38URPnzCK6D5dgZ9WNDnkcC8ISF2PiAqVeVyNjjewpDGbe3tr19IBvmeDch+Rk05cy2rmM1br7r6o0cAKyKtBVcUg+TCZFy5GFBynEnHZc+0w8J5vJdKoN54TR7CUCmMJDpJSDHeeZDahBMhDM78MVfPT4IkS/AmUS5iP9OEHLzDkEasbx+81p5/toXyvkLv1Yem1wvg2sKMCdZ7pRy5ZVO+afP/JHy3LP/23LltZ8qG+UvleeX/0/luaX/qOwM/dXy9Pv/3fLR9364nJs/VSZU+TmF8ZbT058sH/1KvlLyuXJdFuanvViIqdZYCRv3/s/ls1/5aPk0VmNdEYuV+amnm699fLZ8/vSnIr6szFj9mvfqytjugh0FYfGP8ukBYIBpWfho+XAXE2PK91OnP18+W9P57C+X8slP96zgNxJxPl0+eTV5/2z58kc+2R0MtNTSw0nHDIqGOgED0C/sJ4tux3Lc29kt62trZYUFQSsrsXH77aWysrhcNlbXytryqmca93b2vBet1214oq+Rx3dKSoIVsDge9WE5gikYbWBM6PiwGAHLJfEGr5QBLOJZZ+wKNCp8COBkWpf0/FiRdzvll9YmYuGaI0Q6gHLfMz/zvzscGO6UvuHx8o3nvl36heSdzljZ3lwr/Qd7ZagIaTdXhcYb/mrKkx/4oDPEZAWUeigci4JgjAfAMINS56ExS4B5IZVCnTl7qpySJcHzTEYkvPuztrbuwnz968/oOFPm5+ZVCD7fcujPhzHlSyEuXb6syloVf8NlZ2utDA/wXiYmdAiPc/I7e+6cwow6LebmeaeIraFevXixrKyulJf/5//YQvjpv4WZ9/aQQVMV4+nZy79XTp75lfLB00tlePug7E8elhcvD5Wly7Nldev7y+kTf6ycnT9dxkYYMcWrQq4wyZPrIZ4fMNhhduA7oL/+a/+k/J2/83fq1RuJdyM/Vz5V/m4DzFpqqaU3T3/9r//18nf+1E/Uq+8t+vt/Y9zHmz/ys9a1GBqACwsr+cLVIINyId6k9G2nb7/MjA6VYR0vvvh8OXvqRJmaGC+Dw7HaFEBDv7O2ZW1d2CGP977nMQGnsMHW2rasua2ytrFWdgV4WHxz0s8A8aoAmOlPrEfeC128vVjG2UhBYfaVP1+0wrDi3rJw5OLF1/y5srmZaVm8AkCVITZvODDP6NqV1dXy5Pc9VV5+5dUyPDpWzp1/tGwKk5ZX1sptAXzfznqZHeMRYacMdiaEHYdlU0A/PjFV+g/3y/Url8tw/74wBlzbLcMjsnJHx8vYzFzZxYLO5ba2OHGUXo5BB6MN0Baheqq2QYHEPgvn83hQTDoszuEhKgIBUCEqhbxydECamPVexdtwR6nal/DFuS8ejLBgIS9KqhEx199uQoZM0d4WaL8oq+zsI79Snj63WIZ3ZGFPqtJ3+sszzzxabqz9G+Xxsz9Wnjj/3nJ69kSZm5wqMzxwl5sW8GNhjmoQAHi+5c80W2qppYeTrLtRsT3lig4HEDGS0Nk8ViMcUDokfz4N9poMkW+/8GK5+PKr5eaNm97adENG0LqsTqZusTodR+ni3oTqviuRypiAMFfKAsDsaMRULY5N5eMVyHgdkjLxbHN9Y91YQ/hRgS0zomAUZeP1ksmpSbkp3e+4zL1HfIGPfvtDR8djkNF9IOqCqWgcs4TgoZQ+QMcxBQzoHafwielWx9EVTHv+3BQgTOaeixbzWfCuq9cALERM82Le6rm5zDTvTQnYLDzy81uds2rq7SakwWjp+vJiOXPh18qTJxfLwXIpX7o0XL718kTZvt4pk2MfKR9539PlsdPnyvTYuPekTYBsOss0BNFSSy219F1TGkXggPVLPQ/AAB/6bNDsy2KL6VoBiHS5wWlIgDXc8SyYp2WJreMQcZWGH9fp3qDA6C3RW0qCKViDpPLPGTlwB96YuuWTkjELelBmZmacL29x5FStn8sKB7BMjWtKs4uBcvjZ6Ep/yyKO+DPbqrAROJzDVgL6wikpHXoAii9E+IyBP1OqMYUb73rmKIAVWdxnSnVjE/THZN8MpwKlW8dpdLCD2a3ED5V05BW/zJVTYfBDrs17UPATvEAUknJR4CRPK7wDxD6NlG/ycLUMLcn6njssNzamyr989pPlq9f+g/Lh9/yr5czciTLRielZ+H6n6EN/8e+207QttfSwEHq1niahf3IRJwN23oYgEJsggADyKqMdAefwoCy3HenaXen5fgES61p4BzIeJ6FvDTpVp7FxAOB6PD80dmry1PtxHRcZh18ew40M814nO8JhZDHDGQtTd7d3y5YwZpmPe8gqHpMFybejt7c2PH0sFsWj+BweEk6UsqPy8HxzfWNNblXW6XrZ2+dzY7FPgMsuOejX4fd394VjAk5MUExTAA6BAHy7Qm0ASuV3ZjhGEDyrhBKZ2QkC05bi2LpTHK+cZWqXqdrtbT8bZc4bcxmE74OJQTGt44GY2lc6BwAbq28BWVmiQo6ye7hf9uR4dyamdnnIfICI/EFU5sZ5mEthYjVufBEFE5tRB/zxfJRy8ZwT/3fyyyhUOCO3/nVJcx6mD8t5NbInz5wuTz3ygXJ2/lSZ/IPYyKClllpq6R6EJYZxYaNILmcJOVqnSm/vS+fyXc0JpjSnJ2UI7JaV1UXpVYFIP29R7Ak4sdR4VeNAWLEqQ2FNOnyvbMgC3EWPM8UpPTis/NDf+8IM9HI/U8ICV3ZRk2nmv1w4Cidgjx2vtSiFrY3tsrbG/gB83oxNFKRXuaM0WWHLit5RYROgvicsmJ6YKHPiub8Io/Z3S5+cGFX5BPpg18Fe2d7blMG2KX55J5CNePgoya6wkH3XBcrb4kf5ra2u+jnqsQdlUuggkRj2ecNh5eXzRwoW/kn1GqAlUQnc74UCFBVkY0o4jpEaEKhyKNqe3K7S3lO+CJjvvUkWkUPFEA62NuVguoktvtfw4JwGcOnSJS8xjnwlII1IWHT0dpNy93OBhenZsjbwZHnh+uPlxW+9RyObj5SzJx4rcxPTZXS446mNFjRbaqmlt5MwanKHIAiA89SnjCDu8XUp9Cjb6WEMYY0NDggAR4bKSEduhOlY9Bxp4AR/fUBghcE+XOhz626clXuPcoYRgHY4AaWfKcofXmIaOF5F6WequA+w50snAlM5P4tl0Y5xJx7LheN5ZCBOONJhZ6FYuMrAAINqSCA7NIwfDiNsUOXSfaxa5YWBybPVmanpMj4+FsBprDS7vqrHSr55zE9kL/0cvxVzwWGe28RFAI1rnjfmuzY5Tx2bH/BML/ZFjOeRAXbhQgicJLDY32HqefcY9yH2quVr3VS2LdHdnbKyslzvvn0ET4yCzsyfLNMjnyoDG3+lDAz/1XLuzL9Vzp04q9HRSAuaLbXU0jtCvJGQi2EwOLD0eCvCO7sJOFnkyTUfpiYsxMwhGxsAQEBGPh67H4VVWy+aVP3hAywCNLGE0YleaCR/tKMXmOKMM4kxOip8gG3l6T5EWhhxiRk4jDwcNzkEjlXs0hGcYptBb9JjZQ3HtfBZJheuXoeLOw7q06Nhw08ZUxAxfjcHE7x4CkAGU3LHw4kn2OLH/NWSNAt5d0dQHZUOU7VYyTwYpuJxbLv0ThBl5Pnl+RMnyxPnLpT3nz1fzs6daKdnW2qppXeUvBhTCtygpSMWJ88yWWTDayABGGHgoJsNkgJX/0m/svCxabHenbqIEX/GDY5chT8gyUVanCh08oA3CF1pHDkGagGe4bh/P6JcPF4MVz+FWR155REmQzfHR64ZSLA9rHLAgI0/Uy0MJ/bhPC6rTzgHOXJtjwCtmhGFjtPeNZWyvyumYGwvNmvPzeV5FxRHSt10+PfUb17bo3vff9W/6UcFz87OegWW74vgkXzeCYIHKp3VsmMateA4by3Nllpq6Z0kA6IAJ9WQ9bz+0aOAKjOETFMySwigoUd57pm6NPXug1CmbRc/QYkzkNKy8YTO12ViCxd+BFjza7rw6+HC/SixwK9E6px1NL1NeOQnnDKRXnDhwQHWN4ZYnaqtwFePnAa5mP71WQSp9yNcL3zc6K68vYuDKY9sELqYgyUKCoDECAJTOwpvATSd/Dk2QTTDNZ1+fGTkEe/7jIeJr7QnJiZh9h2jN/DaUksttfQOkjRRV/emXkJf5juRrIzNrVNR8+hv9DjXbFqAcQL43pfACWCi/nXPwQbfCusOl/cBiJyJhM9mWEiXFVviInHmfgTGUEbjQh6RQT3HMSWLBVuT9n3Ky0Xft//7v3x42DdQhsYny+9/9ZnCkt7O6Hg53N0qA4d7pX9/u+yyTHd7p9xc3Swf+8FPOAEW2bCxABbj6hrLeLeUYPEOPTxU5cEyHqx04j67AxH+/IUL5dSZM37QfCjm5+bnvVp37sR8efZb3/L329goeHVlxag/zXSrzPdBpXPl0iX5r5ZRpb8r/lhVi8nOh1W9lZ8KxLTBwsJpv7+D1Pku3Nj4BLIqL7/6is3sF37x075+O3cO+l4jdg9qqaWW/mDpe3XXICh3Drr2J/+fARoGzuI3ITCAxgDEQRk0woHxob4ywZsfOxtl9dbVcrC7UabGx8rUZGz7CZAxo8YUr7+DLB2Nrsdw4S0HPzKT/+baiqdjAeQxxUd/gx04AA9ABi/iKytjtvIAOaOXaH1zu9y8vVJGOmPl1MIJoFTYcFh2tjbK7s6WMWZL5zdv3iwfeOoDxi2sxA64JCzg2ezK6lpZF44MqrDwOTw26lcgt3a2/aFqZVquX75SxgbE49Cw0ts2vzMn5sqB5HF7fbUBnGMCzq+9ETj7BJx7GytiYLfcXNkoH/3BHxIaB3CCyow+WKK7aeA89MYGbPrLu5wUFtOa+7ySwgKgU2dOGxw3BHqSSDlx8oTjcvzW88+X2fk5CW3aO1AAnGytdBQ4V/z9NISEsPpV2VQEAvZDbRV64dSpMj0za1DnlRnAnHCXLl8yuH7tf/grroSHGThbaqmlh5sSOK/+ib8nVQxwxvNDpiJR3mxnN8QU7v5OkUYXeEplCzDXF28IXDbL1MSownQMeH0CL14FuS9wrq74FUMwgtWpCZxgAGCNocU6lInJCU8PA8hsVkAeYM3K2ka5tbgq4BwtC8IMMHWgT3pfeNIEztu3b98HOFf8Tulx4MRoK3sH5drlyyrzQBkVZoGJvHY5o/zK8GBZ3lyHzzB/MYn1L+LaJ6YwnSU8RhW+wagAQdX7/qkxlRbhCeOCSlg8s8w0sAbZs/bmjRvllkYEt+WuXb1WrojJV1+96FHCpkY7PJglzS5vpKhk+1SxvKqCj9MUT5lXk2x2614COxXDrhIuRy1lSy211FJL6NLQ7fFsrz63NA6EXgVMfVavveOOz4pBJbZVjbUpJnQzf9b7PX0bOjvuobf5zzD2UfpviFPT8VRt9Tc/Ne7xdPzOvyjDEtDpOp3wIjwYBjYA9CwOotyEo2zMXlIeL3pS+UIOsTiIa09Ts7oVSw2khyHdd8pZCADIq6qGh2zVEQBgQ9gQggCgMKfZpxYLz4XUH6BJZiOdEW+lx9Tq7Vu3yubGpqzFbVuV165eLS+99HL54he/aED1A+jKB/PNxDcAi58RoT5TrayOhTyvrjLFV7uDEA55cQ/+eeUF/ig61AzbUksttfSwEyo/FymmnsQ8MVBgxMgTSw6LlPubGxveBQ4yiMgqjZ14BFoKQDrdV0Rk4XGNy7cpnE/NCF3PgiOImcN4dsoORPX5KnkqsDFK5+hzplPxz/vpj84nLFhGXpBBnsxUyOSFtCgzU8vMasKK05V1zDNM81v9RurzW9JDFmCaFwcBeDAAAB6nQNo7EP5y3I8gXFf/BvkyvWpYANc7L8CcroFYHsJSMRRic3OrAmMImxJQNEYBW9sxF76+udEDQAfJcGQTIyePnio/HILXuG6ppZZaainordCKoWPj3MCD7m5QDyvuTk3dfcQJ6PIcyxC8AqjDYBMYKi73ADa/digLskl3zNfYUp2v43AvcpAaXvilExc6gKXpoGae3Xv51w1b7+nvTuT7cWagBOnZcgkCQEckCObHKTzPQ9kiD74Y8WBhMkfNXq9YtCcWTpbz589beE5Y5IqiWLpMExzX4y8cAWqUllpqqaWWTG/U3N1rdGc9vTdVPVtDWyNXkMGHGcNUvtbFdziHwICcZUw9zh7otkZ1zqwni0nZj5Znp34U6NnOIX88hDcomHFMSr0fFHkdzzO41G/l11gSpz5EOaqHiLN+QMpTqzVSkyKDOGZmef4Gx1/3mmj1XH9OpBJA6d0edEzHoqGOgJNw7PTDVnmvvPJKufjaRbnXvKjn8uUr5dKVy+X24mJZWln26IJUo5C1kvRPngjb97v8pCOLHi8ttdRSSy1BVUf6j8vQl6Et768ziWuLsOpX9HHgim/aUgQ88z5Uc/Jv+qd1GeHD+VwOvc4RwMSyjOt4pIj1yTRrbJMXi4maeZEJlw0fk1EP/KjniSP4mHf/1EM9524/U5/MR0NONDOomWbhoGTm7q4GdCKNU7sIAyV4mg15cU3BYdYrsCQsVmPNz8+XM2fOlAuPPFJOnT5VxicmvK+gBZaZKZEolJz8UsB3Bs6oiJZaaqmlliqhSqs6jfPmRe9wL0K/JnCiipvGmGcB6z2op4/lSLzh38uynncPcYMUsSibzx7JB8uTxTzgB1urdqmZD65xCJAMHn3Mc8inFVDtn+AagCrM6rPZS6GdSabMby2IfZOBhtOP3XE/HzKO/poUYciY55z9Hk3gYAphRyAWBg14X0Cb3+NjPvIgOBf7RLhYLRVpRbEoh1dEaUTS5KvpWmqppZZaCpJWPKale4T/3e/2CL2awAmBKz1gUgq+1wDP/JHzoepmx+sPnc5bEzh0u3V8vWYhE+fgQe9NicgnKdOrWfgnssYvwN15cfRfpBB+9S889FMP3POl+AGIABkXGr+aUxYwLupZMuP7eNe/6o9nBPXNIHtzQRjOw+xmURKORT6MFLAEEUaugOUdTEYP7MrP5gm8G8R307yCim30cjETJamFiTxUgbY4e884nTF3g42WWmqppZaOUENP5o9d+N2PQs3GqtoAmAo+viedLBc4ENeOkNQ4NyDyKK8CpEFyIF34G6vkYvYwwDbjgR8AapdqXvwR1jnhxRGCQeMHx3rS9Yvr8I6y+EL//axOYtMCMs4MavIm51uvu74uqHy5Z09O/N/z93nj6BNGJTEysWDlvHkBwK0jPGB+e6ujaoIbWHWfnfqZVva7NQJGg6JTrkVyqciHSgKcI4z9qj9nvVgttdRSSy2lSmxoy/r3ZkjhrZPDmgNg0N++o4T82ke936TIrUdggB1AmecCREAxgZTPgXmadiBW1ZIhOh+s4BFdPKaL9JrpBwQc5aHCofmtJz0/UXhTljjWq9K/C0MjY6VvYEQZsxch79oMyzQeFAMHZQdGFP5AFh7vVdpSpFAykZ2IUhwcZJPgAVt6JBomOeAY98PKDCDDr38grE0A1FOyEkJMt8aXvEljZGikjI6Mls5QpwwPSEj66zvQ/R12oNgsh3zEU5WB8zNSlQOj/UD87huI98ruDi/msmvFru7wsdXDMsA7MC211FJLLZkAnTQsIOAhdHf6BRim5kT/p2ETU7DSwQAa7/EPx3v4qe9Zb8IucjHDGNOqBlT9o//jY9Yx44i/w+hoHNARC9J+cqQF6PGtTIGBHPmKL8DQxif5Ful9Fg3Ftb/dqT+HoZx8j9M4UIrtUuVzyOyk0oaYyexT+WKaGD6DHwM/+KbjkO717xz2lU0B5IGAcn+fAANlSCDKR0J3dvfKlkBoXxFxgCMlBulZpINJTMF4nYTEeW2EDC2QWvAASAmwTp0idH/PTMeDgz3FHfJCIH8uRkzubO2o4PEeJ997G+wXqAo0B8TfcL8AXcLY3dr1sU+8A5wWMPEVJ4FTki8727EN0z7geQhwCqjrY9SWWmqppZYAMIAG/Sy0kY4WCsihgeUEMhx10r3vjdDrRgYxuweADZTOSCdmL6WL2WGnaQGCFfFMMoAzwSzuK2+nEWAFQDOzCBk4FR7H90ABWXT5tnU7nz0DuGFPGGArdEj8UCZih7VKumLc8QDO/v5D4YoMQfBDOHUAr+RH2cAR+MQBkICo0maAQBiAcxhLl7igahWTI1OgIF0TSWf48WIpqI8fGwLHfHJsx+SRRS1sEsl0k4KcUJzmMQ5HPSNe+iVnvT9bpxTQAsmRC+/+UPmwB39h3vu+PBE4leQ9dFtqqaWWWjKhU03WuwIS6cvQvwmanHIzDl11berG7lHGr+EzuPW0QRqwDUsVXZ2zmAbWN6b2BiIOwZSL0zCoGX9ivYwxysDWox4fyU0Uq5ff0fBQpg+Rp/MV4SeWwyM8eT4II73AOSVLIswrA5QUmoU7PHdkr0K4otCDQ6x2jcwyw+61z4K4ij8udOw6LpvX9nAcKPlkJMAyZOa7IT8nFSAiOFIHUP15sjpagF+PbDyyqDsOtdRSSy21FDpVf9K4XdAM55txr/qhX+NGjzy9qXC9eHKNP8Ljh55G/yZoOhXFA2OwYHP6934U/AaBVd5fFtCURcpsJZjU5CUyInCc15wbecF/Tbc6MnBwfo4RfkYewh2x3my5xWiAm5zn1CsU12FhckTY3KE4Or0z+QYsw0143S0w6XvVlITivxqO/OETs93vgeqce/BMpWSF+H4FTYhRVIxGqsXcUksttdTSUbKKDn0bOrfqZ6lR61kcOrneQ7+mg1JXc7ubRj3iYloXfNFR18YM/aDTAV/PEEZS9yTiOF8HVtrGCp6l4mI/2SYpRPBSz/nvktOq5w2KtI9S+lGGQEuRvZSgQUiOfHJuGYKpjQ3mlWM7PHZo6IzmB0wP/XyTvWSh4wLzuf0dVP/1Xg0bQaqfXfIQfEDkadCs7r6keE6jW55Im8prqaWWWmopSbqx+xe6OPx8YZeWaIYNCp2cH/xIHeu/PD/iHOy7pgRrnH7smtfko9y6+Sa7ec49yHEqGGb8XjoRPrFDnvbThf1c4vBXhjrHsxnYK4uqvwFLl5yHxRkPlRmFOF0J0PFE/PYY7fr4r3ro2D2px6BgOJwfSFeKAkVluSLFB34GU1mYUYk8sMZ8zxFIPPeEb+7x11JLLbXUUlDo6Z4Otp6F5NezMqsRomvCNzU2xhVxuvreYfLYc6mr/W4m4RUXf+ON8kBnH4OCe5PYZJrXr6nUNTds38qxSXBLPnGeP5UqLhynwIlevAzBlbGwm2iNnBYaQQw0+Os2YfiCCauUAEv2uN3eqZ/40r1k3Gk4r8iQ9P3rNMLbfrrwJUdfcsSvUVH1HmQ+Kj84THJMfgjQZI48PiWTzzRjzjvCMH2LgB9sDr2lllpq6WGh0LdxDmCEhqx4oBuepUNH85cBRaGSQy+brK/v7lgExHPMNHAcS8lZX9c1KoS7HxGEUE6DNFlfo3SZ/eTjH+AUgRyOgDXJOK8XUPJQyVdZHLlmUN+t5XRZfJIp17MoaPiQGL4AKg9dseBIwMzyQFdgRFCed7IAJ6gXHzrKQJC9uv7NwPwTH7+Gv8jlobBy+UwT8ojDFQIwKpbiwifgyRGyRVqt0pZaaqmlloJC31ddG0rWehTyPYA1FLNdBk0KnZy382ak2Qwa1mYAZ4InYfzsk4VDzA4eiXE3ijBgU7xh0bA4BZocIwS/zfTyPOM3f3X0P9fhR7gjcqmEXz8rTQkMCPGBTlyslt21OQ0TFMpCoJAKx4YHACc7OPBOj27YhPeqJjlGMCl4j2YMcIw4ArR4TspuQYwWEBbpkS5WJiOPtdU1b7XHTkFstbddP5rKM1SS5cPYnMAfQseqxD/5gzfSineT4DvudacDWmqppZZaMkkz+o//6lH1ZnqIdJpvM4AJnmrV/XhUFxvf5KY2vKefoMamODkT2fyqCc5Aal3Nh7JZKxPgCjZgDBl7rN8VnjwqqLBznONVhsEw8uV+GEvCKN0Ht9KYI3wuJiW/4F1x6qNI3hEF9/z2hVy+MUKWBnmHqtO0XH/t5/7Dw6Gh0TI1MVd+6Zf+WVleWvYnvvb3NsrE2HCZmx1XIqtlQ4B67drt8pGP/IA3LIiCR3LbW9tlaXmprK6uloWFBSUeTEEwiLD4avj6xnoZG+mUUydPmPmt3W3VRl8Zkt+KAHJVYUZGRy2QufkT5eSJE4hfvE2Ww/3D8uw3ny2zMzO6Hitbayul72DXlUGphsXz6upKuXb9enn0scc8CuGdHjaIH1H6QyPD5fbt27aMX/pHnzFvP/231n18GOkLV75afuval8tzt79dlrZWXE8tvTVEB57pTJUn595b/tipj5ZPnPn+eufBqK2bPzj6buvm3UR//2+M+/jqJ/5LA4ufPeoIaPSpzQ2PDHmjgBHZO6MDuMMyeLBdVm5cKcP9+9LD0tUCtGFZeWx8ABoY6IQN27s75fH3vMf6GSDCeNqUjt+X8WPskH6enZ1znivS21iiGEZjo2Pl8pUr1v0nT57sxRc/fgVSWHIgQN4VQC7oPgC5s7nl3XwGxCvfc15eXpbBtSoceNSYA2OTs9NlUOUBl1Z072Bzt4z1C+cA3+HBsq8yHiqNqZnpsiM8e/Wll0unf7DMjo57ADDMYIEpYPG9viP5fPFnf/pweHiszE6fLL/2a78l4FxyxMXbVyWYTnn8sbNC/gMD56VLN8rTT3/UXyixRQqzSgiEj83YV8v09IyZM5pLkIAgFiYfH6UQExLMGcBV/psS1KEa8nAFzjXlMaIKwJKdnp4u83PzpTMyKujsK0u3l8o3nnmmPP7oYwL2oXK4t1U0HvFq3kMD53BZXVkpV69dq8A54AoaFXB63lvAubi4aL+X/uH/xQ3mYQTOW1tL5e9/4xfKWt9W+ZFP/Hj50OMfKrNTc1YoLb01RCdfXLldnnn5mfIvvvDLZeKwU376g3+uzHdmaog7U1s3f/D0ndbNu5ESOC8KOHNDGYDMO8BJP7Orm9S7QFKgKTcm4BwQcK7evNoFTiGip0dHRztvGXBeEXCekHF18oSAU+lgUfaAU+cGzj0DK8C5K+AcNO99ZV0YBHBixN0LOA83ZVSxzax47hsRklDQwf4yLcNsd3unXHz5lTIkYJkS/rDzIOkDnP2SyfbBXuknAzMlIKR/AjKYr1iRG8oU/zSJs/96GlSFRwC2LBWfe/7ESw3jY/z4304/CMwb9ArBEZZHOcqPEQ9C8EetBaSeDtA9hP7qqxfLs88+W65fv+Gp4c0tAa5YwvRGqdjpL8fllAcXZjjTyDHVzBWjh4eVUMz/1y/+vfK+pz5UPvOX/m/lT3zkT5a56XnLr6W3jpAnckW+yBl5I3fkfzdq6+btoe+kbt79VNuYFCg6NK74bfhLf/I4LsKgX7mB1tUv+vctaqe9dHT0aRzt73x8M879x7kvK3VP7kkuj7DL2KbITD0bg4QvDAQCo3IxaYSNR5Ay9IaGSz+rU6cmpxwQT8Cr0+nYqoSJnJPO+wlyLMbxdnvKF/TfEtBua8RAnMgsCsBpFpFzr24lPqBnYAvntGu6MM41ed+6das888zXyze+8UxZ0UgC3siUggKsdgnYVKru2amg8XpMPGc1wCsfwj+shDXzx37gT5V/60/8r6tPS28HIW/kjvzvRm3dvDP0IHXzsJBBBIUpQp9ap4q6OlUujRDItxUIXV2DviWU6fGbx/D3AY/w8c1GKAJ0b9ybKIM3YqjGX5arW7JGOi43a3UUBh+wsH9yYrLMzM6UyYkJAdqgwvYZnKampnQcscVHwmOjMll1j5Wr7ILPM0UW9cDrrsxppmrX1zd8neSCJBP2r2CHWVwDwox+fW5QxgoVHzBKmjyXBDzZfMGAW4E9LVLckXxEIYBY/hzXjcqufg8b8dyMKcBWMb8zhNyRP/VwnNq6eWfpXnXzMFDoT5FUZGhJCL/UnwGa1qE+2tu3iWuXyve7peSle4zzzKObVx4r5Zl9e953JcoSVmRj9tQre+tueHKJGwmaLr8SB7/6xwWYXpWkG7kB+qQs0FOnT5W52TkDk1cYCUDNFgwTuQIWaZER1iGuGaZHuj5eoMo4z0dxnJMWBCgSlhW+OzvbZWZmtjz22GNl4dQpz3OPCsQNnLY0e/mRfFYwhYVHyKuCdU2Ah3WqlsUmPDdr6Z0j5E89HKe2bt55ulvdPAyUelmakx8Tfk1/b3wAyKSSFqXexUDh+FZRpNtL/w0pcy+PNQwR4ugQ9yXCxqxnGnHxhgY4wSphVu7mo0gDZo3jPET9WJJLS0tla3PL1iXebKc3IUt0YnLCS4sBKxb+OIoSMVDKL6dxSYxwMZ1LoKDMqOlHJXTBrTKXVm0y6fQwh1Uo/Kanp8rjjz9eHn30EeeJH2Gywt6QR02/uxVUzRN6WC1OVmiy2KSld46QP/VwnNq6eefpbnXzcFBTJyYwVj9dpj5Np5+4ISIU+veIAv4u6I6pRCY+WtffOZTpXveaxMwljyP5JCaOx4P4hbEVaYAz4FPMilac0Rky6PcqWJ0AVIDfweF+2draKBvra2Vne8eB+caZ8NnnoDJTs1uyBLEGeb+G6VverWTv2iBAK45ZjsN6dNbyDqAMdPdIRlahEocrfzB0mEVCvBazK3AVsI6Pj/lVF5jm/U6PfGxxxoiBpT84JxFZVQqr2BVO7g+pxclrDazQbOmdI+RPPRyntm7eebpb3TxU1NWd0tHW11Vpm6pWtR6t55DBRHrYYY87KMMei3eMuncUrRujnvvaSdYFoJm0yPn6Xg2fLm53yUHkieuXAySHBJy4wSH2IxjywlOvLmYqVgBKUW1pE48ERDrV9UHp397cLUMCxrGxUSHwoEBKYLi7KbAkcTG6f+iPSB/omH8FSw+80n1bfWxqb0vusOzs7foL2nsCxJ09PmzNfV6M5Y0ZpTU0IBcMMt0KOCL2HYHhnqzYkYHBMj7SKcMkKjDtaDRw4dz58v73PSH+OgboAYE8Hy3d033e59ne3i2bm9u61khAZdFvGRkdE5+8knKosCPi57Csrm+U1bUNC+BhIwYOHhl+B7S6sVW+/O3r5ed/97Xyf//1q3ac48e9lh6MkH8M4I5SWzfvPN2tbh4KctnR4QEWTFN6IwEZNFwHiOi8HJSh4UHdY7MAdDuP1HjzASOIVxwxvngro98zkjs7W47TP4DmZ+OceLQGGAF4fjQofBjm9Uad7ymPLcXjVZYdZiOJBW8Ks6/usadrwjRrKVIWwOl+Ol5xBDx3ZHAZIIUV+7tKn/dThQMDisD2ftu6v4PBpjDDo6NlQFizh5Up5491Dw+ZP4xFysxbJvv7cew/VE6DEsA6GxCsLMktVrfkdzoXby+WlaXVsrLMayswJS4N3eY7ruuRDLBYuYegsSp1FvfzT4lQMViZrIzl9RNP81JAFh6JF77M3QfzSqij0cDE+HgZ7XQMvlSiTWq2WBIgdgSQE5NTZXJ6uoxNTBiQt1Sp2zt7ZVT3RsfG/Z5ov9LFwt2nEC09EPGy8Rcurpef+cpB+W9enCv/87VT5VcW5+04x+/v6d4XXl132JbePmrrpqW3imJBZkxTegDhP3Q4+jL0OOeH1u3VT04eoVO5r/CAaMzoBTim/u8zXnBeibT4q6oYoE3LjrSdvu47tpI7EHgZX8AVXETrEteJNF1nPNKZyuN1LfCCYSU/LE4C6dLvcbKhAkYWjnRwyMFGn3gbHhn2pj9jY7xtIhAWiApneAUknk+y+wOraacEQuMCK1bVsoKVSFx3qWYcVE9SCt1DnGSwvAY0d9jaSEeY83udQnreH4UXAJWXXhkRcM1CIFbxMtfMxvJkAzjuabSQG73Hs9IDv3t68+bN8vql18v169eVW2wZ6L0WFZH8yKel+xPK9jcu7pdf/PZA+Y3ro+W5tU65ujdWbu+P2nGOH/d+8aVBhZX8WwX9tlBbNy291QTgoVtDSwfYGEyrPxSP1hJEuUb36lr+D0rggLGgRnGemYEISzT+4Kle+6Qe30aCLWZUmd3kMSSGGNYxzCrYDiMAAJ2ASURBVBk4AReDVEfAKettanJSIMpWdQDniMGLRUSZWq+YIgre8PFZFUT4HxWUFxapE2cF4J/vZFIJuV8uq3jZRB7Qho8AztizFl7hnhEFUwLsasTORMTz80+lA+BjXpMPfuRJdpS1pfvTVy7vlF96tZQvL42W5f3YR3JQA7PT4wPlXzk9XEaHohEv6d6Xlzrlly5GnO8puvmr5TOf+fPlL3zmvyi/crP6vQvoTnUzMtBXnpwbtBvWOfQHWjfvUtk+jNSzHgFB7K0ADAOn9HIob2lxLEHuW79H+Hwj4kGoiwM4DjWdoIoTNF05W3zHncPF79tFtpyFPWGosVCIL4FZLjGysKcCxsYGTJJSMP1UphltQP7VD/d8n5Cyi7vXHB0m/LtO4SKMGImIPiffcAI4WaIrKytlY33DjLLBAqANeFM5+EHwwz14JyW/c6P7Q8NDZX7+RHnPe99bnnrqKYWLqQcvYqr5ZBot3Z14NvYvXu8r31wZKVsHDFKChtSZHp/qK//m+zvlh84Ol9kO8i0O8+zycPnVS31v7rnasz8vxSvl+zO/Wm5Ur5buTXeqG4DykemB8m8+MWb3qM4TPL/juhHd+PX/IurniHs7gfL58nM13597tnqJuny17eYtIUOS/r0ORTrZOrpal+msv5m5k2P6Er0a4QI0E9buScaGqvv9GxR5chLpkDaKJc+bDkB/+yjKh9GF8YVhxqubfhWS2wYgcS6+fJ6MA6A8f8QiNLC6cAGAFBHi3K6em2qY4w4ibdIF+CCsQqxL0o/XXta8pZ4fHCss1iabLZAdQic+vMb7nzndKwWiIxbq7NxsuXDhQjl75kwXXCk4xIgJAbR0b3rxynJ5fm24a80kIXceuA8d7pZ/7fGR8gmB58lRDbxUN1g3z60OK+730MrEEz8sq+gflP/xM/9x+bET1e8POR2vG2YBzkwMlB95tFP++IVhO87x4x70ndTNN37xz5e/9qtfKeWpvyn5IUPcf1d+KuX4LpTtw0rW91Kw9G+TjoBoGBvxqiB6NIk9YW1cOd6h7zXv35OMBQkIAdJB9agkSTedr/lr+JHr20aVXwYS4AeZU/b+ZDytMUCGZ4mcB1D1+3kkO/d0y6vYcd4oQj3PMBGud4QI398Xq5zYHQghpKkfwseyjekCz5vrH3QfliXp+wrPEQszX2PhPunxKZq19TXzz+srN2/dio0beHVGR+KRJ+Vs6d70jetbZXkrRpJjQ33lxFi/3cRwX7m4sl9+4asyOQ52y7/z5Gj5U1LSJ8dCSRPnGze2He+toZ7FcTdrBwXfu5/u58s3uPmG6cSGBfPreU/uD5Hl0qwbBt8nRgds/f8pAebq9r4d5/hxLwfob65uni9f/Gac/diHn4gT00z5sb9agfJOU7Vdv6PuM78e+8B26+oXf7X8ys/k/bfCgu3V62d+pmEltxbpA1Gsno1p1wSnBAt0vS0sgFGNiQUz+e1LFhVhfRpIuH9fAlHqmdLvYUScc+yC4xEnLhrXbyeRH2VlbwPe6hgW1uDXb6ASw2mdQQgRkCIQK4rwxzKMUovxLL0IMDSA4mfw7LkA1jimkEgLRnAwgCjZwYHpWJ5ndlgWPMg32rgTgqSimiu/eHeUc9LgWSZWqcF9fcOLipiz9yfE5GcnIPXLrnIt3Z9u7gyVnTq+4HnmT39kPNxHJ8p/8LGZ8q9/6FTZ3j8s0yN95Sc/MFZ+4n2dMjvSX3YO+sotxX1rCGX4n5dfKR8pP/VXsWz+Zvmx8pXyc1K4OW3HlN3fRsGf+Evlv8b6+XN/Nm48AP3K10v5K2lB3fzZ8veqcv9ep2bdMKj5xLnh8sOPDJWvXl4tX7+6acc5ftwjDPTm6mahnKtW5K/8AiBUByL3JNXXz/xseUFnP/bnjlmnx+mbXyjlz/+D8l//8Ed0oTr9B28hwH34Lyvvf1D+k6d0/oeoXt9RQtdWh37lvfzwjmsWZ3I0YHjRUOhvZvrQ3ehi3ANRzadeNM6DBI3OB6ef3tE3oy2/nUSWiVkYaIlbAs5gHIHgQUFiGS8mqQIjIEXcE/h0n036VwF04oI7fBQKaxZy4eM07vsqfABl368OoTMdy/PMcYEnr6gAmvmgWkH8g/UbVumhFwStMq27sVG2dM6+thubsVcuIwPSHR+f8CInwJhVUewO0Vqc9ydEFHUsw1IDpr2tzZ7bxm1164bjgaz6g/1YfLVX6/+7pmd/T6ApOvGJ8hEr4CfKT1jRAnrP63epfOXrX/H1j/3oD5eTPntwijgz5exCXL9wjVXY3/vUrJuPnhouf/TsUHl1cbv8wjfXSh/v0Mlxjh/3CAO9ubqRZfnn/1J5f70q5R+Xv30/K65bX3+p/MQH7HN3eurfttV6cuF8XN+8VN4q6T+2EJ8HWzgVbeWFr3+5tTrvQ7muxcaTHFalcUAGCoYVLQ59mnqbWQzC+3UN6+Rw3IP8q/ZWLxskjyN+zQsi8KtjbeDEJ02HyrSPJFrPOTS9oUiunjrVI2EMSW+gnidn+ZwXixzcwKBELi4vwsJqm5icNHgBkDkFihC5d+LECQfm+aMFqkTggcT9aonixK5Dh+X24m0/R5ybm/NrJrnqNQvsz5QpnAWCnxLh2eYWSpl0hOoIiRdwcaS1vLxSlhYXvXCI6QTe6Yzp3rBMGfmwLd/8/LynDvhUGnPzJE+uvGLDN0GZsn3gkdFDTMN9u5JbNKLfv7pd/v5XVrru//XV1fIrL2+U0eHBsrixW/7BV2+Wf/zCWlnaoYEflJHy1rz2cOP66/XsDnT9kpTh9XLpu57i+8NHR+rm9dXy//itK+Xnv7pY1g57symc48e9LykM9KbrpvsM85glLyvunzQW6iTds77eAeqCcksPTHy0g0dkgEXo59jylEdennGUH68uLkkPo9f9KorAhLDM5mH4QOjgPenfTmfUul0qulqqWKgDThPH9Gfmxde1OIIBu/VtCFotuOMdfXQ0XuCrIw4jyiAGeHcBPGYxeaWRxaIAHnsUgBNYzpSJGUgGBXQj/NMlUOajwFhUKtBUePgDZygPC4Q0iIjnijCMgHJDd1ui8W8QnWBzAWWKesQPZ6qFsZ8zj7SYNuWjpDCLwMhsVy5CB9WoJkXtEuGxDsk3HaOiOI8j30TzHoO8AyoQHRHoezq2XgOsfNeT6V82q+dIpbUW5/3pzKgafX/IafNgoCzujdhtSvW+58R4+cmn5zUKOyz/0zOL5dde2y03d2TJq2Y7/QfldOetAc57Kr6Fc2/awny3ULNuNg4Gy+Xt4XJ5a1j9r/eMiXP8uLeuMNB3VTcf+ItHpl5fuf49Mv15j3bwvQbk38vE1Gzo3DBGrOOrLucI5cwkgIJ+N8jJCMJYMlAJUFhfYsDDT8fYPSjWmWRaXae/o1Sv07se4eX+FOlF2r7sUuQVlCk1bt+RfF8/gGxY4QB+ADODAhIycIKoFJrvaSIAnhNmARNopqamQ6gKD3MxJUux6LDyk2Dxw2d9bcMbEMAAwAZ4Apoh8Ps/RM7KwcGXnSxGKoGtnuARohCePnCBmEKIguXohHc7yTc2c4hnoYBuS/em7z8/XeY7ku8hq5aRKdMyPF/WoEW1ys5M//T51fJ7Vw/KrV359Om+Kn++c+i4bwl94OPlxzje/EL5ii3LnJr9SPmpH2HByhPlB3mOJYqp24eDmnWjSikH/RpVe8/LGgDSOX7cIwxh31zd8Hz52KKdm18uv+XrP1v+N38ypkObdPKDn4ip3W59vRXUq+MmWF+/FlP07z9V59nfQN/dNP7DRmFhdd9PrPoTp+bDjwgsQPGDFQAmehbdmjgRCzFjNtHAo3jb0tPo6/A3YPTIgYKc9pshdH6Xr4hvS1nH2L0Oz0w3+Au+4vighBz8PBe5CEANnpKLZWTgzNFAHVVUnuTHqCGAC4stvr8p4DusAeihDozVGoyS0eLiYrl48fVy6+Zth2WTeMIAsmR6P+IZJ0CXDpMesxsA9gNaOUYwgLqdQVZgy05CumahEKB75erVcu3aNU8DA7aAK+m1dG965NR0+f6pjTI/sOE2kLSzf1heWtot//Bba+X3rh2UlX2+38p0uUBTYZ+e2lTcqRr6TdDNny1/LZ+hdZ+jPVF+qrEg6C985i+Xn7vJQqHe6w8f/MlqBX3zP494v/CP48aJc+VuKvUPO92tbpgBuL66Y8d50ndeNyn3rJOfLS94EdZfLB+sIY4QU7ue0m3WV9zK547fCX3wJ2kDpbzwq3+5y4sXhD31N8tn7gDgsZgp8n7/D6t93O95a0saCMtgEvDFM021Han0WCyaq2XDAgWM4hGaDCD5s79s4kZOrxpsGGALB2IDGnR0+PvZKYlUcpL81PPGrXtSQA54wglgSPyY/mX6mDwzn5p8UJ7LM/O9FzHt68EEFidGI2WoeNd36//3X6rch7bGfvnzny8ry0tlbmZatwSaEiiWxGiH3eOHNYr7ZvnYD/ygwQkwRRhM6zIC2dzcEmDeLnxt5cUXXyw3blwvjzzySPnAB54yk1wzKlk4MVvOnV4wA3yqbGNjy1bpjkYvPIMEHFnQw9dQ+LQZe9GKY49uXnn11XL69GkBq0baAsK9HfGnYpA+734uindGOe993/tc8FdeecVb7J05d9aVvbSy7OuL/+g/8/2f/lvrPj4M9JP/5P/o51UPSt947Xb5n57bL7+7OFmWy6iqoK60o1HSQdQxaLxcT5fN8kfmVsu/+8Rg+eCFWYd7J4hVtn8t3z38yeZrFN87hOL/xZ/4b+pV0FtRNx1Vz5PTAaTPLfeXLRmk72zdNFdF/0G/65l5xYre7xQs71Q372b6+38jtlF94aN/x7qcNxvAE54PYl2NDA8aBwYO9spIH48I9srQ/nZ56flvliff87hMVfnJiOExHo/QYqo3nm8uLd8u8yfnpJc3/Dohiz73tnbK2tKKF3Ki80+dWrCRg+F289ZNG0Q8crt67Wo5e/ZcOXv+nHU7HwwBc9iAgG1VMcD2dvbLSdbeSAflolD2xF1bWY31MMvL5f3vf3/Z3FjzlPHU9JQxhW1z+Yzmzu5BGZ+YKfsaF4xMjJdBYdzu4b7KMFh2lM/1S5dLP28OjI6XISU+JAwan5ooAyODZW17k3nWw5julMMam5qadAZMaeKH6csCHVCch7RYnAgXZ+StU7XxYPXQwES87e39cv36DcclLIDI4qNc6nwvotIYsRyZOhD6k24Q79bkM085W6H1vDoWK01IIJjYCJxFS+xjS6W1dH/64IW58q+9Z6D80MxSOdm3Wgb22Mpw1xXvdqFOgx/3fmhmufyZxwfeftDMnYeq+14HzbeK7lQ3G9s75UtXtu04f/vrZqnxbibu7QLNlr5bQpeiWrEMeR7px3W2JnXT/T2sL84PemabdXRgROgErtHVWH/5WC/fwe/pbmLyE5ZinNbzuMHPPclp1eSwLInvKVoW8gCycpFKpNtNMc8z4wckQkc+YdUC4t4AAVMUD0YMk5Mgs1C2ghECwFrjfggjplqJB4U8MOUjUcKwunVmZtL3sTK5FwAYwrwfAXaAnz/twlFpHgdQ/LphOFelJWgaVMX/7Oyc+JgpHVnTQDyvrmCZtvRg9In3zJV/7+mR8m+fXSwf6CyWU2WlzPct23GO37+je//e08MO+7aTF63UlZ/p3uWgmfSGuhFInhzasOP87a8bNkc4Vhdv265CTOtHnu3U7JunfASGfoV45pmbImAM2Tyq96SBy4AwAH8eodlfWODNEKSXiQPwBhgKXKWPodyByLhR7wUkJRmajvjcjciniSPOy4Yb4Ml0s58b8s/dep6p198HyYiwKo9fuZPL11JYA2TgpHCetxYzsTfsqC22WK1ahVOFB79mombsQuiIIHPniXPnZGafPSvQmvVq2hCYAumnWeC7EekzgkiGXZF2e/V5ZqQZ6RI2HMIjjo+Kj9nNpvWzs7N+PYZyAbIPIyF3ZPVm6dFTs+Wn/uiF8l99cqr87R9YLf/hI5fsOMfvf697hGnp/oT879T+27p55+ludfMwEDOOYADgyYyhDRz+aJfAjI2VAE4vvhwMq7I5gwg2IEMeqTHLmDqaeMxW8hoiluBxIs6bb/u1njg4aqTRxQEc3kd+RTp5M1k5TQBZZQ0cAjgPPBXtnYPyIS742N9HA6LAjCKYNmU/TARHjpEIbPFttsODPXnxionc4a5GI3K6np4c87PMhZPqtEprd29Hme2WPYW3kOp0L9/IpHJAcoh269WxYsQrmJQ59YUzb7gB3iVieoCRBVsDKm3zr4qSHw+pc/kzYIvVjAWNFTw3N6/zCef1sNFMZ6osrtyuV2+exjsj5YPvOV8++Ymn7DjHr6UHJ+RPPRyntm7eebpb3TwMhE5GD8dzSh6p5Q452Jc4KWbCKOyAwg0rnOBQ5/jxMD0c36nEsIkFOtLVZdCurwzpPmAsJ/0esBZ5gicYROZDkdLCE9LEuY6EDVcJoIADeXGXxXA4g5wc6y8cw+mDGQO61rn8DKwkAab1Bw/xpwGAeCyHspDlDjmXLw9Fgw+mf5UCXn0qP56rqyuyxAArXuFYK+trKxIAL3rulO2tDYUNkCTi9u62E+NL2Ds7G/Lf1uWOEtopHazy/e2ydOta6Yz0l7nZKR2HyubmRoAn88/Kj1EKyM1nzFiFywgFwQCYWIliw6MT8t/d2dZohc+CbcuP99AE8Mq/X4UeEIgGoLNhA7sPwUCMCEZH4x1OpMQoiC+Tzws4x8Ya3xV9iOjJufeWZ15+pl619E4Q8qcejlNbN+883a1uHgbisRdk0JHyBTzTz7ONApudre0yKCDFiBobGTF47u1ulgPp5X70+v6O9TR4Mi4dOyijaHxsUtgxJD0/VSbGZ8rY6LjS7TdQApjeyU1Ayx7j5AtG+NVDAXAac14hq7AQuh6gA732bPkJsMUfr8exuHR/n9W9soRHeF8rLK49gfCIcAYA5T7hSG1wiNWyGIYYapQVYB9WXoA833AGD3nsxyNC8pURJoONx36jnXHk0u9VUVhpvMfJSjznKf6wKpkmDVCDYc4Aqje6iucGWM4B4iExx+iF1VrseYv154p4IFK6ISPzciQ/C7D6H7vn0YEd175pyhAPK/2xUx8t/+ILv1yvWnonCPlTD8eprZt3nu5WNy1B6NHUralF0fngFutN8h1HgVDVx4Awj+l2tnfL1uZ22VzH+Ol90pFgtvaOuTdS0w9rtdjQWl5etpWpSLEznf6mZ2bEXylXr16r26ZH+OA00wk/LE9mJL2qV+5AoGonGMORDuHiN12Sysk2djzMZZs6VpySUAhAGSiFWF0FUN2pUHcgBSM8aZLe+obS1KgC0390bNTz4t8RKd2ugOOiew2RZ9PF/HrE0WX1b1b8w0WfOPP9ZeKwU/7hb/x/qk9Lbychd+RPPRyntm7eWbpX3TwUZBWaetSHSqFnIevQeozniNwOa827urGi1o/W4lknliIzf16lu70tsIutWVl/YlSTdea4ihcLizCoyOu4g3rn6H424zl95owXfrLPQIDogXeK47VKDMH7EbjG+/3htmw08jrkDtarsGu7fsP5btR/48aNcunSJW9aQAJYmAYj/efDVgfEUsxy3IUoxPVr1/zqB4XBrQqY2eN2fX1D4LxmRu9Lyr/3V726Z6Jgz3w2WYoKC9DEwXMAa8/PFfeQ0k9/8M+V3/qXv9Yq6LeZkDdyR/53o7Zu3hl6kLp5t1NTz0JhZKAnq62mnzRQmFfkVt71mpQBpj0FhPrLsBzzNcdYt4IBw7NI6WD9sQOP35aQAzzR1XxyssdJ49hV2eEXevygfPvb3y5f+vKXZGFetZF28bXXvIcArx/ej9hkh30CJidxU2Vyasr7nU9PT9sByoDw3cjzpgAbc8s2WWHKQhPVA4V/kClWBALBEKtqH3/88fKe9763PProo2Xh5MkyNjr6QOmYkJFdFX7T6a8LitWRd1R4XQEl5y34uK/w3LO/7j+sNN+ZKf/ZD/6V8uI3nymf+dn/tPzGV3693F6+1avvlt4SQp7IFfkiZ+SN3JH/3aitm7eHvpO6eddT6loR8kk9nuRFQszBort14G7q0uPtE32LbvbrgkMDZWh4sIwMD8WrK7qHYUMCEQ5LVeBpXZ66+v6E8fPyyy+Xr371q+XmjZt+7RB8wcplq9frN+7/rR1mVtPatMUpizi2B4znrPk2yN2o78X/939yuCrgPJDp+q1nv1nGx0bKibnZsrO1UdaZxlXiwxLA6MRUeeaFl8v7nvxA6ZOwNoXw/X08y+wr+8podXmp3Lp1q7CkeeHU6TI3P1/6her6kZz6y9rGpj8uPS4Uv3DmtHdzYF58cWmpbCgP4rELEZ8Amxgf9+5BOLbao2owny++drGckYlORZAqn7PaZQso5tLFwxI83F4sjzzyaJmZnS2jo2O2mPnMGA+FL1++7MVJF//Rf+rCP0w7Bx2nL1z5avmta18uz93+dlnaWmkV9FtIKABWaLLYhOdmb3YKsK2bPzj6buvm3US5c9C1P/nf6pd1LPG1qbDYpDelZ6Xey3D/YRnc3yrjgwdl+HC3XLn47bIwN1mmxkdLn8BqcmLCuhYwAnTRyViA5y9cECjFV08AUjBlZemWZyH5YtX7n3i/Pw25tLxs/Y2OZ9oXC/Lc+fPlvByzup5FlN4OgNst4+NT5Td+4zcNco88cqE8onzOnjmrdJfLl37/98uKjhOT4+XJJ54oy0uLXoQKQI92Rmwcrm+sGXzZvehQ+NSZmClDo+NlvwwYK/h04vXLr5f+g+0yMSJAFzYOyNaenJ4twwq3trVX+m5//rOHGwK1zY318hWZvUODfWV2etLb7W1vbJS9nW2D48jYxH2Bc1GgxasfC6dOKZPpsifm2ACc7fo2hea3Fm+XMQHk2YWFewPnxLhXxAZwstLpsGxLSBcvviZL9ozfLx3sU9oeHTCPDnDuOK1bt2+XCwDnzKwtX4TuLf12dsulK1dcAa/9f/+GG8zDDJwttdTSw00JnNcFnAzNcjqV7VObwDkyIPAsAiwB56DA5PIrL5aTMxNlQkYWwImhw3NFqVrFZ/ehPQPiufPnypbSIm1vxSdMASeY4WQ69Iknn3C4ZQFpbAjPp7v6jwKn4qKzMYACOIUbA8OyNr9e5ufnymOPPVrGBdresU6hb8jivHTpNa/UvRdwsokBYH4g4BydDEDc75N1LODc39kq1wScg4c7ZbIzcEfg7AewJicnDHhkrjGZEo9ngbFiKkzpByIJmfA4RhlUQk7/UhFc4940VQs+LXmOPvdJ+EEknXmQi03/Golr5/0dZN9SSy219K6lpg61O6ok0aNYo96vWoYQOhWQ9MpZYUVscQdeMKXLdK6uWBxkKxKw2xSA8qWq+Nh9EI/dhC081/Q0LfFgRA4z0+HqdcMRn71m2bOcR4BsE4ulynoaLGUbXOxvfj9SXt7Mwa5OL+MqfnkKuWLHnUjh+wsvrPIgFBCFDHZC+TSxcRmO54YAEHPeCZCkz33Alrg8AAYs84hLQOM+q6ugvJfbNXEeEgsBxU4NCbxBTkOjBfLiATFhHVf+8AwfrOBlkRP8xcrgiJ/laKmlllpqKQj9abisoGadnjq46k/vASsPwGZf/v2D0q0AHq+iCDdY5JOLgNCxzABifaK/SR49HJ/kYntXXinZ9nRuYELocXCAMNbpOocd8icO319G53tlrm4AnCzggVdAmyP3sFqdp/mvYK57+BEPixbCL3fFiwWlpEKOQdwHL6CIi3yEicYPHj6KMGsJBHD6nRwJBWYpgP+VCMQSXjJKhgifjJkBJcw9QMsvsmokkN/2NCMWGtsyxXfbAFaY8i4Vip8MQjDJcmaE0fR3fPyIKwdn5onCKxwrtLCciYNjNMJcOOFcPpWtpZZaaqmlIOtsg0fVpwCiADDAVP7WxbGWRDdtpAwIyABPjriwRvUvRAFD+HYyu7xJNXthEGtVbGjpLy3EmzdueUEO07ngBFbngD9BGTxgjR7K+kSns4kBGfBZszFZlHxtJTGLL6qwVSyfvQRbWCQEwXsYS8QLzOG1GdIByMGkwIhtO8oHxiV2gEnEoewQMsIqlVfpZ96Y53+ADw7QmRifkMk7qoSLzW3Ay0jv6D0iAf8cu8HOD8xZO04FUwpMoWCoSQnK8Qs1z/K858dp7yrGCMf5SmL0ETzooptPI62WWmqppYecAEz0dFBPPwaQpUHFQk924pEyRZfKYWVC6HoszJ4mDq3MWhgImxAHeGFpbrIhwsaWX1FcZ32NMCiwIQwysAIrNPfPJRlmH+EnFzClqxnonjR7dfZ4AzXKJYfRBU6RRhpbI52Op3mZ/rVR6LRq2uKLY+QoPgMox+3JSADUhXkSY2RBIUg8p0stki7TPeDypQhTGHDE2nSF+F5Yg2EpYkYH81mUbmH5t6sCOHZtx5+PoswYfvirPOSRB9as3uJTaaN8wFo3GCi01FJLLbUU1PyyFLofCqsrra+Y3ePNBIwsduwBF7DAmL71/uBNw8qqO67iiGvgB/GUJnF4939/D1BklzmmY0tZWxOgClRJn+edtkoFuPDifBUIbArd72RNTZxoXse5DzBkh0HIolgWMqVxR3ocAXF2I4I/AgOgWJpOq4bx4iBWsuLJyGGDT28RiREEAZi6rcLMxN9I+MV0rJG6ZhIAHM8vM675h4F0DapwWG9VIfDXvK6O9OKvkk+iUD7qN0ZSVPKey8XGDFeuXiFgSy211FJLImtL/qUrASesR2brwAH0JqtgeVvh9u3FsrK6WrYBFqxE6VXAlgU5WGlVfYuUmM9DFyd4EpbdfQiba2oSsPFjgSr+4AYbFLDn7fhELFqNMKPVANK/eAU8re/JTpgAwBE38Scpz40dlUkGAljAEOF101xCyGBb5QNciRqbNMT6GJdEefYn4jIPDVMEYgRBZJiF6ZzrTeL8Tg7GspAIBSHw6gj+ClEZiO+zJbkw1fmav64fc+0hhJ5zpHBQ5u+/NxJxKDR8UcEsg26ppZZaaqlBVqk9Yyd1P2A1NT1VHnvssfLkB76vfPDDHy5PPfWU39Pnm8esQ/FMpa2zY+QPcMjVI2knLgQ2CFvQ8TVfnlGu8nrKUryygtWHVbi+tu5rFhNtbG74mWMaRZG+/4UVkQ7pQYEXPRee4U9c0uB5LOVkoRDPSSenJo0R7ChE+YiA4cgUMWlDxO03YI6O2XQm4pQi8LA1wEajAgmQaVaDUwWoe5FY9CIgMyPhAHyYvpjYMECF3KlAHHzuy7wXft1wzXPzY7EFWYaVR5yEkiu31iR4Rk85b95SSy211FJQvr0A+IWuDyssADSsLU+NSi9jCXqGEhCRHsYQSssxKDVy8xgzjSzaQQdDYYxV665at5sCSXjgWSOWJtYpOMIe52CTFwGxSKjqd79ZEckfwYYmeDbJ9wNg/CgRMCZfHt+xTy1T07yGYotYLmda4RWAJT7YwhRy/7Wr18rVq1fKc889J1P8ds0YYOqZsJi1CMck/2S2C1J5rQRz9RLCxiEYVk2xvVG+LnKcooxZ0CqA7pH79bzhgoIZ8uOc3yTCjI+PGbzNiyoWgUxOTNYQLbXUUkstxVsUFWyk+23gAIgCSQARS5BNZPx1KwHI0JAMIsLKgQ1bO9veoKZHqYlDL+dlrNxlZpLHf5En1zw3ZdMFpoWXl5bjuaPwNVfc5mIhHiVyL6do8w9KnGiCJkf+6kU9hn/3WuS0BZ4AN3liQXuqtlrROQXslcbOTsD5hd/73fKbv/mb5Xd+57fLq6++4q+ZhIUI86B6mMS2HvVXZeBjnkOcA4wIARMY4UAsNgI0GVXEyijzHq7LfB6jPPbOe90whPKNxv10WZ7KFUe5WMWlkczmugXBiCKWWbfUUksttQSh49HNWIQcbYhUHYuO5pp7bIu3ubXtR3l8govXRQAUXiXhu5reuKBL1sii6qd7nAG8PSBmPQzWLHvHCjuUzrbwg1dbBnlvU+EBSUDWj/hgC34UwTziIPMapwQyNDg2ESKOvTj3WZ+NqLm5ee8wx7NVDCvyAvcAzq1tAaeMPtIiPuUUdEaaCte/urIolL9ZVlcX5amAh6x6RSghLNB2UIxrHFL6WJLcp1HIcEcjDV5i3RXIYuYfSqAg9Z4LGAi+XVaWV+SWnd6kmOtIWDCOBQhHMAgB1DmFCyEPQA7QBYRzFMF8Otd8aHVQo56BoU7ZU2BWe3k5swo9pIo5PND57lbZ2WZbQBrDjtJjOmBNAtlwHi211FJLLcUUqnf78epSVtDG2w9CgLDu6r09WZUHLKjR/b3d7XKo82EZIh3hgrR36QNMD2UwCUMHB0akgwGvAelnWaXoaAFR6VceAwIopX3Idq2Cgs7kROkfEVAKA4bGx3y+LyjYgx+ACxvskGlk8CKML8AXa9Xb8AnkdsXPnnS8mBA2YAkTlnIp7+1NYYgiqSzMgCrZMjo6XqZn57yf+oDcymp8UpNXYwBRMIwBBVY3GLijPNjPneVBbEXYP6RMdK8MD/ULhQcFaiqqBMWXsckhzFTenQHrhPpyff1DEsZ+2djEdFYGSo4wANrQ8IjBDeDckul7IDBjL8GZqekyovsMLwgLge6StwvDSKQHnDHn7spTxgmcACNWpB8OU4R+RgkAqkZDNrG3xTey0qhBoHm4xz67lEWjEFXYngTPaKmlllpqqaVK0rcYN2jfvgaAAnu68q+djCr2JycsoCn0NGCOyFgalD7mfAgrVGA5LOA8PAAXBIIC0/0D6WnF3z+UsSVQ29rbLNv7u3YApcDDwHmA4YUVK33vXYkG0f1gBFbujg273OgGgAMbeP4IpBwA+AJPw7KMJ8GkeQVUmWmMQQFlAfOGy/AIz2plzeoci3dbhh8b1PMMtzPacfo884RYYcs2gqQ3JJ76wwxHSCR4b/IUrlCXOPEyqgpXgZWpXB7gUsg0pbEiWcnKXrjco5DkQ5gEyS4pPHH07/gxHx5b8sUogXgUXkJU4SgI7wBhweLP0mgXTve5xpqNB9qimp/z1P9AJ77Xtrp0jIeWWmqppYeAUvftD270NH9XHTb1YvfuPUloEGBmF+tb7ACmes46GZ6nouex6DCCeLSHAYWOB1/8SE+6nnBM55IeGOAZxYoHfr9SLLISlnUsuI7XssQzU/DhfhQLonh0B9+BX3xVhfzhj6lcFsbejWRQPhh4kBgrkAAk4pAwYMhWSpkGOIWlCWAhJK9OokBigEKlANOCtKuVRPoJlAHi+pUQEGo8EM6dJHhAHau84IWw3sGC+HKMKpSw00sHOaeaZ2fuhv1uX4nRREsttdTSw0S3rsQalO2x49+uTI3cwIUHwU4F7+r0Iy78OUn9j/Xnc+nzDAPgAVoAJrjBa4yJFehwcABswHDzNq7VkPL2gDilSVhWAfdW+N6dmHnkVRdmMQFkAJTPTt64cd0LlFiQZL7vQsqr94rI/YgwCUQUyvH0F8uMYzkzi4soIMuIh1lQpALZQmQUoPis2ILJBE8I8OsBHXPYMqWVNqu4MJW7q7wkTO6xOQP55YIjRjUOqzhUAARgx5QDUxD14S5OQh6du+kwt65G42mppZZaepjo9tU6BTl+3ToyySpZPxw55Q76+X5EGkyhejN4jnLGBYwh6ehYXMRqVVl08huT0TU/N18WFk6WU6dO+8gubxfOXyjnzp0tE5OTtvjQ+cYSOaxKQDL2lo1t/vII9oANYA7Aez8KizMwCcIgu3Xrdrl69Vq5du2aF5U25XKcvOWeNz4QqNyLYMqrjwRkmM1mWGY251iEMIGAkyEECICmzBEW6A6wxQa+MVpIgkcLX+EQjlde+cFtzmNXoFY8nmcCmjzIdeGVCfcpS2YIrzllTAsAwAFsjp35AM6bV0JoLbXUUksPE6Xu258IXdiDiNSJ9Wi9HKf3Im8EL/1uJ51sx7mwwetSmDUUNpDs2Nh4OXvuXPnAUx8oH/3ox8onPvHx8vGPf7x8+OkPlyeffLJcuPCIt0tNA8sYJaDlfU70/yqbI2xsxHZ9ygfA9kylGMXIepAPeUS6bBA/bHBm43jAnVcyr12/ZnzpyeKN1A9DoDvAcz/yalklyEomGA6rkE144+vcO7rHM80EN0AVoIKx2JGIh69sKM+IJkY1vfrJqdoYuSBsgHFlZcU76bM8mPluAJHdHdZWV8umhEccv3sjRxkQCCCNsPMZJ3klUHM+ceZ1jRh2yivfHCzP/l59P7Wlllpq6SGgZ39v0LrvcHC77M6+fgQZ0cnoyB49IHIqiPeQRYd3wUy63H5xzC1dwRD0NJZhuNGYIVQ4sILHeuhz7x60sW5swQGUW2xYIAcow2w8BoyvrgCcYJQB+j4ENvg5q7EmnnWS9+Li7XL50mXvlXsvS7sfxtkU4H7ACVMUAiCjQFiUORLAOiRz3vMZrfsWGizFDAVK4GI0YD+dd53+qBjSTwe4IjjAEyvVgMvD4f343trKymq5fOWKK4HCra+vqcCLvu/pWtJQ+EzP5W/kOTi6UU5//Ddcrt/+p0Nl+VazobTUUkstvTsJXffb/5SZuVIWH/3Vsju4HvCAnmyQ1GRQVZ/3I/Qquh0HloQRE88yw3/A07PsPzs8MuxHcMSxkSRdzQwmj/n4SHXu6JOzmgZOb4QQFi3Gk/fHFdgCsuh4ANCznjrv8n4P8tQx6QtP2EWIOFNT095BaHFp0QMA+L4b9Q8K/EZUoPhwKIttVZimo3DV9Q/ygdJtmcorZXVFViDzwGIA5hEGq6BYQjyiQo3JKiRdJlJ5qVV8yCzW6GKYjRSyYiJHKs2foNGoBAdYcm9C6Zw4MV8WTp4oE+NjZWN9vbz4wvPlC7/7O96sASuUhADQpeUlTxljlZIewCsEVboBzqq6+ONabvrxZ8v8Ey8qr77yO/90pAXPllpq6V1N6Dh0HTpvbe6Zsn7imbDOjIyhJ7vHBlqmb5wJTKQ/0zccB6w/FvzgmC4NNzjAehU2bZfuVVDwYk9AxbuXO5sb0tO8shivmfRzT9ecj3WGytTEWJmeFEiOssiUTd/HvCUsmDAzMx2zisyCbm3LbSmdA+U3VIaHeMYJxwBf8GhcE48UC1xjBpRpWhYhdYaHyuTYaDl76mSZHB0pI+J1Svl2eLdU4QMT+xWft0Iivb7f/nv/h0M+u7W2ulauX7tWhpQgmxasrS6Xc2fOlPn5ec/7HvQNlFsr6+W9T3xf2VWBx5SpaqDsiWGsvl0Vfk3+C6dPGTh3VQhAbGdzt6yvrpfdrd2yuSoL8WC7TI0z4gHRB2y5sjKXh8g3btwsnTFWVA27YIxWBnVvTCMMQPLqlaue+8Y8F4pLmJ0yLqHua8TCy6nbWxvlyuVL5fzZsx5FMGLYEx8zs/Mu8NXrN8umRhRsntCn+H2HU+X6b/775WBrWmkelj/6r++UD3wc0G6ppZZaevcQj6SYXQM090dWy8Un/vsyNM5zQWBEwCBjg/fwsQLZHSgMIulg4cTwoIDmYLcMlb0yI929cuNymZscKxMCN4BmX8YU71DOzc4oDp8B2xRm3Crnz51XumEFMovIAk+Mmxs3b3r69pFHHzXgYjOxeDS/4fzqq6+WyYnxcu7cOb/KOMQzS4Vhxeza+ob092j5xje/ZYsTcBseYpFq8Ywmi3ywUK/fuFbOnj3ndzKZBWUqFixh8dDi8kq5JazrE+bwvLUzOi6Db0DxYs9cNnoA5OemJ8uo0t8C4GUkkgbvgfrdz3//f/WDnxkdB4yGLDCsxF0JYV2m8fjEZJmYnvZWSIeyJA8U8fyFcxKkEFnM9KvEbHAwNDxo8CPMxPxsGRHQsc3AoKxLcVS2N3fK/rZM6R3Zn6qAgX6EeaB0MNdLGe0onAqxKeDjgS0WLJYn5jRHVlcxQtlYX7PlOT09VSZlVnfEA1PCzI9PSNCY/bdu3Swz4pmH0YMCx73dfRV+TKOcfQ0IeC66pYpW/hpo9YuPwVNf1UBgrOyvnS0Xnxv0Stvlm+JZxiwbJQmbW2qppZb+UBHvaV59ebC89Mxg+frvDJav/ab084FA7dTz5fb3/ZOydbBs3RmvdcR0J28noBf9iKxaogak6g5lnAwICFdkSJ1hFaxArSPdDdCwucyYrDZZI4rLs8iNMjs3LQBiAxtFli73XrcA80ZsgYre39vZllG1IYxYlyHGzkTb5ZZAT2hTJmREjSgOu8GxIc/w0ICSOSx7wooXX3xR/OyX8c6oAZmHghyHBwX+sojR8+PCNUBxbHyy9PEsVMbekPBtW+VYX131Bg4jksEga27kp+TLBBan8mSDBz6AwmNINkXY5XmoZLUtXAHo+377v/vpw9mZGc/1Xrt6VaOG2cJy38uy3EDzEydO+LkiEZaE9h/60IfLnlB5DDDT9db6ugBGBZKUV1T4uVNhca4LhAcHhmWR7gqIlsvu2lbZXttUYTckMIGWagTAY6TDiIA8r2skEs9MmTZ2vfmZJYuXNoT4N2/cKHNzc2VSwNiRMAYkJOoEx5TAkkY5z3/rWxrpnPWuReymz8Kh6Zn5wk5H12RxbmhAgMU5IoEPKy+27OMLKgc3f7CsPffjGoWMKbWWWmqppXcPHQxul/X3/3bZPvOcZ+PW19a8FoWpTmbmeKaHxYk+ZuqTmcBB+TMDOTLUX4b7BYB7ArvBUm5cfrV84l95usxPT3hac31tpaytLgk4eV3k0KC5tHS7PC6L8pCdfoTGPE/kLYm9vcNy/fp1P+bDIkTLY22yJsV8Kt+XXnrZzzAvXDgvI2nG4AyP8If+3tUA4Iv/8ktlUtbiqZMLnm4N4BefOue56NVrV8vJUwtlYmrK7oDd8ASI6PzF5aVy/bXXyoHK6a1gJQcsbRxWNrzw+A8ewChmO5FJ7FC37TAMCBgkGKUYfTBvPCvwxGpjKhXBMhKh4L2XTsO8RsgQJiwE8z52f+pR/k0/0vBQxufh+Imjffm5J+WOFF7ZK6DlYXM+zPWmxaoA2AkXK3bj23EaDWG9Cvwxy1mpxb2RM18ut079R+Xcv/rPy8kPP1PGzl4u/SOxw1BLLbXU0h8m2h+SFTfzatm48OWy8sF/XpZ+6BcEms9LswZAJFXNbPK5dbX+pOvRoXuyHll06dc+BIBExSJlZjAW//T52SMLdsABdG04JYhOlx/5WQfbU05pxM5zuFhEFCw5ksMnj6G706HX4/OXWMu2mGt6hMNK9kpZr5G5N0W68RpLOnLv0hGeKzlOvG7Z9zv/bVicoOzrQuEzp095Xhnrk9WqoC6Ce/3K1dInS+2jH/tY2ZeZzUscm6trfsY53JFlebBXbsv8PXH2jKd7sTiHZBHubu7J4lwKi3OVxUQbEnQ8KGa+GeZ4PwdgTosTQHTlKY87WpxT02V8asaW46DM+LQ4b9+8Ub75zDMuw8bautPa3t4rs3Oymnf2yuWr18rS8qqEIbnwjFQjjZHxMZd9VGbwM9/4RvmRH/lR73DIqGZLbnlDI7Xdg7K+c1g2lcaWHPPipAHvjEKykikDFcwIBmI6mme3CBxiFEPZuM8UAA0mGwoV0j8w6K+sM0/vgUFtiFQi09VUGHl4VZri86wXKdE42euX5wfbGu0xZc20BVPeSt3xu41X99xgdY/OAX9+x1b+hGNKnG/ekb9HooqTq9X23NAOPQuxo87DfcfTPcrFOa8JIU+sfahfgxrKAZEGu3VQbOqV+JacfuK8r6ytrRaeuTNgo2w8J4/Ox4N5Rqex5SOzFM5bRFrJA6u+GR3y4J98SYeBlTLwxtLbis8Cg05nzIMtOhr8hqLQyFhxWaFNHBQCo13yk2gUds/L1OHBo3XXWQwuh1Qn8M9zGmobXnh8wfN61z4JiNi8g3DD4lk1ErKnDpQHr0tRplVZA+RN26JsfMiX+NQJeSMrvldIm+BZFHXEOeFZkci5XxNTutnxSZ9rjihD2gNKCxnxyhiV4JC6j7wZaUOsaKcuSYcy8fwIHmRoePqNOKTJfeLt8mhEvDMAZ7aHZ1vwQ1xWT1IOLJLmB+7JnfvIhcGtElIfG5VvtNlQhCG/7Z3Ykg3+UJzIiw1WUOrIh3yjn/GenvQDMqIfqo4g8mOFJn4sZvQ75eLbZdB9NiKHL3QHR/oLsWgjObWJtUT+tBFm48gf/kljU/2HtjolwwN5IyYWO/q85rOjMqL7aDvUPTzQhvakW8iPRS7sC6vbLjVyhciDNkcbs7xCJOKOGTwW50hH6D5WEXKg7DyCc//xn9LSDxbn6uqKnxEiv2jDakOKA39ZxyzYxLIalm4dG+4vg4e7ZbIzUF779vPlh//4D5XOYJ9cLADa2eGzkdTFbtncWCvLsure9973OD/KzweoWbgj8ZWb0vPoMZ5hQsjWcrSsS3n55bA4uc+mCJSFusBi3VD/HJuYKv/L//JbBdwaHenYuRwKMzU5Zf6v37h+T4vzyiuvlr2N9TI5MWF9R90gB2RG2XnVcUR9n3rmsR/tDiOLtkV/iRoRWbmoCqz8xQSNHSdJll11gJWlZVVaNCoYxJ/GAJEpVUzjtT+e+tFp/FQ/+4tchUqDZMLV67gZ7j7kBiaXPLhhkI7InUD+dBbOxbAbFcqEB8QcWf2FUqcsKEQqj4bCkYbFPP2hBgOkiHKxoGpZIPLiLFmN7i9HOarLu917cpzHNf64SA/FA884ygLfdAIq0R1P11m+e5HZ40fOh/A2HY2tK6VH+Z1uN+2eHHsU96Nc9VIHeOqCO966WU/duOzfZMDnWWKocd4Ix2njsl7oJ2/Y2bNLR68aZNaDd4CCeMw0APCArF+v0gCQ6Xo6HO2f9mDeFZcj7Z5Xrbz71R3IeesnWzkywkXcGJRQj7RVlOpx+XIlDiM/PIhX45IGsvQOWnIQ6bmdyuXAxwCJaxLlrqd3pmPhawl63sSPFJrphJ+cPWln1Xnw0euT8BsKPtRMlinrI5M4zmVcRZjcJMV90HoGiyc+/YSyRZGhlNEFyINHPlF/hOSH+oiBIgPVaO/y5kiQYMB5mSdFqV53JIcRRd2gWrI+o2woWXJ1eg4pMi+i9AjmgnTau2z4JylOzTKI63r6IJR1cyTtmoB9G/czH+QM/ykvHSR/9WfJGF3Ux0Ck6kkWhaa8Xc86Sb3LNYMZ0uIa0JSvAjJYk+5V26BPEg5/36sur0mXeAyWrA/FA/2XQRmyR96877+q/sygkbYXBsm9CX7gkwFL9jNnJjIH4tl/lEF82lBxW460oyWKwsIJq4ERFMIDfUmYBolS6TZ6K0sK1ANOC4cSQrrJH2LypX9613AW4onf6lX94/p+FJ0kVmF5lyLxQuH9pyOdFGDs02gI2qey4VdC9chDFgOWG3Pwm+p4GxolMWLi8zF7agzwC5Cqv1lIjLyyOqO84pUyO/Uezz6Lm3nBzxtISYc45My3jiFf+VVHI6ChZFk5PgiRVlf+zqhBTpsGUZWI5GHXvRX3zFO0dPOU/jQkjkGSR/c8wpiI49TiwiwcYwP+uqx17x0L1KQ73ZKfy1oT4rebJtlXnjkmO7RnLDisSlaLc2SDDQPoymq1VuKj53Rqp634ViCqdxTwkXRNLk3lJRwdPfsDYR2yHnGEJ2CEENWkMkWI+sd6jg/s1u8gAkxqxwkU9FX67NHO35P+HambaZw2LhvUSKGWtZmmy4S/E6gp6Npl1w/l98jcipEgMXPBNJ89SE1huR+glu0q2h4JceSPsjlN+rjSzYFD9n/iYSGymIN04MZpyYXCjRmTaLv0ZjPUzccR4ucI+RHWMTKLlUfH50rljKRCCfvCN6KMlMGX5BteDeIqfPzb+2mQM+3Rsct7kfmsbSP5aCbPqetSZUgiLKwDQBhUQ0MsGkLmGlhubSiC2qX1ZAzcXGalRB+h6Nn2Y1ARjoVJ3HPWzo86j33HdYJnvUf/qtekZac6xLnuwaOoc1zMtMVmCfTl6zduuD/fjyij2xUu6y3uBH/VGTRlaHkWR846QPxZXDgumFaKb2/W0aICpWXHfQpiZuXIoNtwaiaunOoHcepr/O1hb6Wv+CRRibg+Nj3vQzni5Ijy6OatfwTNH2Y2059c08GYamTZ8ejEeJk9OS9T/mQZnxgrY+OjXv48PT1dtna2PEXNqy37fr+Id4Mos2SkNOEQZ9CBERcv/FWQrizs/FdJ177Pqa/56ZH9CSOiPHkdjbF+d04OylQjSV1x5C+8RVXQkO9l2AjnsujCjaA2hATQ9Idca46HH/cITz7h3Cb0l9eQ08nz7pGfcOFTL+u1j77hn65f97yedf3lfMW/HVf1z/fzPAL07tOuGQXzXtmgpyB5R4xpelbXuZPITU9NuS0wTRv9ICw9FGMViclZ2UXa4R9Kx3lKFsxs8DwoO52n3QhAWxU5jsPXOHFif/Km7unU2ba5z+g3pgrZmzlBs4YhOSI30quXPs+8IO7kPSiv+XFQO/kdOc/rqH+TrqPdhIv71Y8TETwa8Hb4ohEEr9mf0kd/KkPT6cdycDK6zDpClhypO6beAU5eVfOAp+bpKF0wEz+VN+ekdFHw6AbfFHGL+z4eOSeeyuIjFgh9hutIM/KD1wgPhXwiv0gj/Ozy+g5+3R/+7V/vHY9b70P+bd6v/hCgaSBz241yRoQgTmPWiNsRDkcStK/R0RHpRunIUbZmHS7jY2yYMy69KytvbcVvOmzrHEAjX3KIdJSArj3Lg+Z0+nLBoW5FX8DyNLDKj/vOmHQyLTmDJ6BJWRwIOrSVSV7kS7vA+rz0+uvl9dcv1TB3p6h/DK5oC/6racMhlG3Ms6/MVtKHaXvUP5y5ghWQALkrPcKEoZh6AYR4hlOpFip+IO5wIcdpTQ/qBmkQTOYNBTXV2N3fPDSpFybmze0AdhSHG0cIIHng+QyjTa47Y6Nl4dTp8oEPPlX++J/8E+Un/uyfLT8q9wM/8APlhz7+8fKJH/pE+ehHP1Lm52a8kowOMaKR1ggjLvWQQQ0/ERZOcqvygZOouKAq/G5lcNq4PuaotJ6LDg7A8wwlpwWpLBzTIUwXZlz9HDn2XCjQrku5HHGk7J9KpJOH8A+ZhnOE8HZ8rp2O/rDg0j8UVPXnnLPqH/nez905XLdxc+7yxOCIkyNhnF/lRbk7jLmoLq9JwzzBr5qHHLdo61j4HmQha4WDaENh8TMlpXhEUoTMO13OegTpWrIJKyvSxEoiXdqtlbZ4iLJF/pFsXnAZsxsAOADB6D/Cx/MyOnWO+JtTTvdymUe44+F71/rhv3t9T1flRK/PvtC8D1/IgXIjg27Z5XKjbqb9UHy08yyHU1J6oYeUBrpI/tzwUcQggmdzyJdwKGGUONfkmenAlnnBVX6sOOGLeqr8EOaOjjYTwpMjvZ4OjPvEreDRiBf1dQeXf/X6ruHu4N5UWJcrdGS2neC1hlER8Ec+ONoYz5dnZ6bL+XOnyxPvf2/5PunM973nsfLB73t/+f6nP1g++NQHqp6MacxcqJN1TwXx98aNEqp/zSwAE2+uOcS1/SD5+7ryqYPP0ess7mTlLAYFbYAFrdPimYWfzB4lOVenzRmUqVP+SC8Sl8sgIrclDwQFkuChMaEOmJgl4WEuD1kxvVdZWCErbk+jQhpxWJnxuRcYY+VUt0FK+IzueHAbHZmEI3Ev49U9wnpHB4VFsPgRhk5CmnQECk0cOo9XuZI+iqZ2oBBolIg8SZOwPPgn7yFZlCy08DNa8eoFFfLjoTKLjuZPzJchjc5RpFicYxotTam8axvrZfHqldLRiGpqelI8d8hAvPEV8UO/28P0xNBgXxnP3STGZZno6I+46h7vscagg2+PVgtdPBoExQfp0WhZ7KMTlYupVpQhjUbgqx/i6FL5yDJROAYvfF+Oay9wkB9Kk1XOWELEd1zdI2yOfuEBKbli5VhKzpH82bnDYRQAR/4Q5UOm1KcYdFqxIEAdqHYK4iHX6HCUKfJ3GRQrz3kGEmWp/m6JHCEaJ4sgaHTwF/4+l3Mj1TW8kp4tCp1wdDj94CD7Kx/4zoZsf9LyeVUCOsPR7igH9cL1ntodKwE98CE09UW+ikd8lwM5kI/qgLSQBXXY0Yjblp47UY9n16/kQp07PbVRrgmT8gL8sDytXOXPTijOR/mSZ5SVNPY8eMWxwIkkcqGHR74KxzkLO8iX95p5bYxzwhKG/DxTJD6Cp0a9yUFZP9QLPMUx6il4QrYO4HIim5AxPjUcg8lqQJN+tpFsQ64ryTDlQHn8zrbChawD/JGvy6eBKvy77TnhSJf0OLreFXdAeinL73I4vz7pBhY9Uc6QqePWfLhPcoTPvoojP7KiLwb/lCuyjqPCu54OxD/1B9jW59XwpfuZNn7UsV/Yhy85/CljtKkqx3qMskZYp6ezkIn45Up+rjvdpzzwaRBxfVJnvTx0y+mSB352uk++lqdkhk4j/QxDmqFz2EUHi4p+pzSU9sgwbWtU6ao9b65JBw5L/0yEX1/qyehzYAVyRu8niKHrWUi3sx0fAWHxEeFZcEOf5BGE325QGAZU6H4WpcbCpVWFRx/FTA8zPsShoOTBbNDk5GR5z+Pv8SwDfRJ9f/78+fKxj32sPP3009ZpADH3iEMfIn/SRdboDtKkHXHOGgdmLXIWjT8e2aA32Bt3U8bMmsKAS+6XL7/0cvnC736hLN5a9GjYzuCVLkbLoVyD3EzEhF1SPWU0CSgCmDQKwJYRYaYXUWiO+nPdRuMOl8lwwydHqOlFWDfY6rpEw6ohV9fWyvrGhgu9vbtddgFj7tEwUXZqJdxjavbmjZsavagSFcbbRKklstED63t3t9bL1tpy2d/elL8UgExQLFBeCOYFXhYRIe5QgOoQKjdbTKH8UhHQKFMhwDePXmGbI/Giw9ChyTsaex4Z2TlN4jtOdD6kyNFOP1zj3Mm4rw5gPzqQPMiDTSfoKNGJGg6edNT/UX/8JAv8rTh13uVNrheO60ZY0sm0XN6aVr0X9/Gv5/pxfMpUyxHlE++OG+k7jXrE//h5TzGFfEmDlkOalB3eUTJOW3IhHOVAgTAA4x75IGvC4899Bj1sM8nUVPBHHvDWk1dXpsinOq4JT7vUqf288YeuUYyuG5cPfhWG8DVN6gnn/Gp8ypR56uC4WZ/cQ6HSVjrqc7GrSrQp0k9Zk17myT3KR3vFwTthYnAhp3BZrixPxK1Hwuo8613/vTo54vCPe/r3uf1r/HTcy/PBmk+kV+M34iY/5q/y6zapeN0wjXsc876vm/fk3AZ4J116KnaL2bI+BCS2pEeWl5Z8L9ulori9cFSS4Y+TB/mSF/qgx1scLQO5aJs8CpKCT+CSH/49eakcyEQu4kd+XdnL9cKFX9yXw89xqNd69LXyh8/afmMhpPQ7gx7x0ydgxGAAPEc7gIsGKIfSddJ/q0uL3kWHnYLMC+mqvdHHeLbI7nMryytKQ2VXfwI71lbXy63btw1ONHvAlfUlgBlH3lIYHR3zAk4A128doJ/hRn0EYyhmtpCb2nodcAB8ee6BF+kOxddOwASwBUMMQws+SAscY1UyryVC+NlY1H3AnBohD1baor+jYqmr6G8+Ij+E6YIqSjNjCsUzINA1tjbqvSRqRyJOM6+DUZhkgcXi4pJHDmyay4NbhIp5baBUxhk+CIEwEqI6qYImkX5lmJNKft4mZ7/MX/7pAEh48WpICStc3TBejt0nFMUjRKyGZSlFFg/RCNi7kMZMw2cni8Ub18rtG1fL9sZqGSqyWtWgxoYHypga1IgaGC+F0OAYnbnh+pyRKo0dZmT1uWHDNw02FCbh4Bp/GiHhIw3FrX721znxuT8sj2FeSJYHLhR8OHdSpR35q3w07sYRsHdYhdOh59yByLNZjrjmyOAhnPx1HFL9Ec+8OX4cuXaHRI4cazpNZ940ak8e3XkVNnnBj70qhVSlD75rPPMiUXZ5SZk189a54+u+nfhgWT8DHAY3Tt+8ZRlDJvhnmSg/O4ew1ZbBBH9lhsyQPXkjT3gkfcpLOubF8lca8C9nvhWfewMacHGeAMXzorHRESsmHgmQ1t7OlqLtOh5Ky48JFNbpKc+UbdYR8hlShh2FJW38ct/PkBvlU9kUJspXywjf8GzeVZ+0K+VFfoQnHUCLsAwUMx6O8kXakT5hNawwX3Ge6TbD5XkcM4zDcw0vyU+moXxDZnI1rstf4+JvmcOTj73y9XioYRQ3+K91UXkgb9+DL/kjJ/JhbcPWxrqPyNJtRmEPNPjmSFoxmKU+s23o3A5gJox4of9n3l0elJfyjjrdL/u7O65z2suBBme+ln7qlsFlrmVJXu0H/8iKMMGfZcaRezVO5pmOx07404ZIz2nQXlSHgzrHcT6ktDpDPK5SW5Wum5DFOdh/IN2+qpQVRuVkcBY6uN9Tpq+99lp55dVXy81bt6zb2bCAL59g8XFkShw8YFocDtgOFdcv0PP2rAIzXp8ZEu7w7JMp5H12CvIMJPo6dLxnmnSfI9ZorM7FT058AbqAMfnyyUy/TQGw6ogRxzkDF8jAKZyAWJ2blj8ATngbOTVdO52DNf0LJ096E3U4sqUoB+DEMwcW3vSszy5IKuUEyy5wxSEy1gnTsOx2z3wzAApTMJRTs6YKnFRCd1qwUjevuPJ/PQt/FbwrLOLV+6QJDwjdq6EkKByVI9GXHZUD63ObZys696hE58vLsrjVcJFnTI1pFCg3LgU3MSZzXyDJu0wA58D+tnfS6KhjjMgNqbFxrdvdBsgITe1OHYmGSmOkMSuuGilAS8MMpaS4TkPKUi05Gm/cIwxp4jgnDGEBbvgaVeKOKweAG8TpFAcqh/LnaF7qNVta0UmIQ9l4B4t3sYiHH25QPGaewxIG5ct7yXNHF5mflQbndDIdkcVAHwMFjVrhP+NytHy4Hx0URxiJVp00+Em/gSL51fjIBV5CDpFOpBvKKo7hl3Kz3MUDCoa6sJLXkT03aQnUF+lG2oqHzO1fLNtxARryxh/epifGyom5qTI5PuJ0rFwqr+YJPsW/qibKqPukPdZRuxnRqF0MuX4UFqXJvXEVfFQRiFPUprZkze5tb6g371oWpDeqxEkPuWRdwCd+0rK13Co/siJt1zHlzIEH7SvkY151bdnCe00PXix/uaEByszggfqMQRZ8u60oAtcp/yh7pDlU6zuVLvfdLnDmj3oibLbtjBPxIs2anhxxcM7PaSg/5UPZI/2aNnISr9GWowzUWdRJpOEwvh9xUhbus/ApF+nDn+pP9UOfif4GD6VMsihGegA+u0ADr44TfOEX5Vd6+knegocoC229K3fdG1SZaZ/UJf2TARJpRtmDp2HJiHzNv/1CBnGvlrVRFurPcchDcfJ9S2RjvkgDPtVPQ9Y1nHmmrqJehgeVtviFR+qAdrmxuhyDO+oTvSr9izXLowiACsf0KBYiBhTTtIAc+h2ArRpcgHVowNoQLgCoKF52p/O0ru75ubOcwVP6nPdrgQtANAwuZix7jps+51m0jmAKoMk7xVikkR4DWt0Tz0Th8SR4x5oSAJSPiMAzmMURv1j9G/gEuHMO/vTzrBB09nuNBJCz6atAuKYVCkAloOmnex7+MINprE4vhnkmh5UKh6QbhZD5K2uOa4jwiDEZ84rDwFLLl3vkk+eZL+RRAI689RfjgIgeD8GVr0cfUoCyHjiSvu74PmMe/piqRXCra6t11SqNhedNkM5pFGrpdJwRVe7O+krZ2VgpHTU4Njo+OT1RZic1qlIrpVOMWPGoA6mRDQ8cqMHKT2FRVv1WauqQapQRNhq8GzJ+OhKPzZSHlcYIzh1A92jMaux9soA7ymNcPYm0B5Se4zi+lLz8JpT41OhQmVZHn50Y1bnAX4mPqvGPDQkYFHdiRIMCnPgeU4fhHttp0ZlIh/MxOfuLrxwkUO4JZTKuC9JhMDEmBZDpuCOLT8rMOfw0HeXi/rA6N2WiLMRzWigZ3cePe6OUU/fwhx+nwT3zJz/8cYoLb6FEkJfCkBfXSs91UfPtP9iRkkO+5C8eUUI4KxLlqXThxXUm2ZIXZeTDBJOSKfkPStG5jsx/1G/GCzlRbslaTE1K9gAkvKOUyPtwZ1NtZM+8EwdZRh2Qjo5KAxkTB+DMsnFO+vAMD30C20GVjRfTKZ/5puwuU9QBaWXZCUeZ4N11JH/Kk3K1slVc4pkvOZcL/uQ4wjOydTy3SwZaiifnNkq+uud6UVwrbbU5O8sA/iIM+eBoUx35h+yUju6NDVOvtFfSQQ5S1M5Hcbk2f8HTuPqn27KdwF3hSE/V5XTcRu1Czpah84x002Fh+Sh/2oKSsuzoz6Q7ySyB0iE+6UyQf6bLUWUlPvylvLr3FN5hXZ+A3IF0ynCZGe8oXG0fNV3H05H2j0yjfdFPQh4hO/gLRz3Ak/tI3uNczv2n8sn5hI6Eox2aD9qA0rbsOgqrY9ST4ivsCE7xDqW72Mx9bU36z0aQ+gcmdSV0M0bRxMSkcGOoLC0tl5s3bxmw2DbvzOmzZWZmNqxJ6Xr0OGDIxuredELgis7e2o5Zwh0BKFambWMpdWYMeR0l36dmatVun8eIHGNG0bOKAuS1tXUbb+hxFqSx4QMzq7zzyzV4A688G50VXydlQHIO6BtXpOuNS7guHuYAQPdgFudVecoclPUqOfmRabouaPJXzyl8HOIahq5eveapWXbGYMcfQJTvsPGFExgB9TlCzpv0BbpG9OoPkY/Tb5wncc0UAQ+8cWFxxv1ueVQOhOyVeNyQIDxFrDywPuEvHlRj1vOdOPbIVSMxyAKcSodRoOKPqwzzU5PqFP1lY2WxbK8sCQS31RD7BEydCkpqhFZIe268gyWUWUeNGGUyLEU5eCilLcd5BwWAQ4GiNHQ+OqhR6wG7MimunRo3achxxK9/b9MdhbydtvNRGsoz0uGewE0Nflpac1rox3GUTtanQY3yGZdCmRjpc5hJH+lg6piUQfyNwovSG9c1fpyPKT5pEH9aPa8LvAZi0gAE1Kn7kYEAp5YR8LWDP7kol2RQw4wOEObA9zuKO3iw7XzCX+UQX/BhXkhD5TM/KEWlOwrfyndawDYzOWKAm5mkvkY1sNEAzoA3qHpSe1S4YYBDeQzub5WBvS0dd3QNP5K10qbOrACVR9Ql4CL+kIP4HJYMo36oG+oOxUY5FEY8WZnpmjqxkpcb5pp6Uf4ovkGXP+KTHjInjylpv0nJ1MBi2YTMkf2I+Qte3M4oB/HcLvbcHqbUDidoFwrTUXx4hifKQp2SZsYbOtxWPNVB9UfuloeO+NE2gt9oS/DFrjHUd1ce8KO4tCu3LadPWSRD6qfp4EGO9kl+0f5VRjnCu6yD9Bedy89tVI5jlEOAUPsA4aMNxwDQbbmeT0oGTt88Ej/aJmEoA+fUmfOhHWX7VHqTAhjiexAhmQaP4ksOP/cvHSlr1rfzgD9kjjxwOkcnmCfythO/9Zz2v6vBN+1gUgnQXpFt8j/KgEL5R5ohI/Kjbim3ZVZl6L4Kj8iE/iBe3Hbkj8zJb9JOgz8BY9YhciQOadBWqQsDs/hkcMPAhJm2aRkHk9JxzJxMCOQnNRAflB4c0SCCZ7JSkNL7bIKgtDqsxp2Vf+yAduvmbVluPJ4TXzLOWKRp67GCok4DJHdipfXefhg1UtJdSzOPtjSVG+fkZcdUN0fd6/rJ8SiOhUecE5/NEjY3w7rMVxfBK3Q/VvMYU7rS/ywOYmEngNwNlwBaQbMLnIAODqBxRi5QBVBFtAN4RAGWPvG5r8PD54weXnjh+fLss8+WGzduEMWWKvPFWJp8I5O58AROC0mpg+6Api1OCO/AQefFuXPJPPVPGn7AjsNf951a5RkBeNo5wdN+4UgCAcAbUwwzszPl5MJJAymfoWHeHBnw7VGmq5laYWUtVuPuxqoafIzgUUI0QjpKvwCvb3/TnXtKQEWDdae3O5QCl1LXhcOjPGiwKGA1WjoMSgpnZa17hHHnpFO6Y4YjPp3ASm1YHUNxAYf56Y7TRymgvOicdKjoIJKxANdKUfkRFyU7NSpwVYewQqmdMhSGlLzytNIRiMA/5bDCkf+0LqYERsQLq1Ud0x0/wDzTsIIzKEsG9Uj+3KejZjlDFjueAu/bWXeHjrKjTCk/Ckr8oRgYWVsOIa9QjCqHeJphBC83PzlaTsyMCzzHyow6/bT8TnCuMMiyozoasqUGgOxYSVn5wIvuobwoH/lRbvjlOEsdSl7Bt3g0bwEGyAZ+SBsrsF/A3Le74QEW+aBwpwXe00ojFDDhoywDAu8R1dOk0qasDq80KZfrXOnS1gaV1rAsTcAdhQ6fDGJm5OaVtvOnDErLICuHzAFktzHLL4BrUIMF9ciQhY6HO2tlb3O59KmdUKYAcSyVqNuQidovPCkdD7SUVleJ41yPABuDN9qNwtU6oqxcU6ddoIRHHces9KOt21/O/QenNuU25LLF4IH8E8yzbNSLnRqIgdtyC3A16Iv/SQEH18QnX+rBeVQeqXMPghWXfHTpeLQp+gc8ke6w+j7glgNLt28dM03KOSk+LDfzhz5IPqSEJfvb114rt69fKvvba86f2QzkS360TfoC6VpGqlPyYpALCMKfZQiPzjNkZzmZD2QU15aR0kROuGmdc4+Bk9vxAG1Bg3XqTwMXrNAh+fP4AKuZxwx8pQQ3PzdbFhZOSGfGs0t0KDjBdnToWvSxp2nlx1SnVK0wRfdZdKMLwAh/VtCixP3+dLXw0OHETysQf8hAKB0OmIXOF0ag7PUTWv84hVHFwh6miOEFXQ6vAOPYeKywBQN4p9hgqjzALo7sIgZGkSfI57U09VEiLvJXHgQme1tvzEWbuYquGjnEaqU4mtkKUmZbJwFmMBwm8eXLl8szzzxTXvr2S97vj/vEjz07YyMCmDEhWZGZq8LrwTR55NEZ1avMW85xIt4bSMkkUJINAiRv3hvzdIDMeSqQ3WOY62ZOnD0eZW5bgDwnZYsp7vEZHHbMYDUZz08W5qallCc8BTLNVJw6BQqXBj0/1SmPnD5Rzp+aK6fnp8qJ6XEp7dFybmGmnJqdcOekYWORolSxXty56WRqqDFajg5pxYOSQPHYhcKg46OgDNKKd1IggeN8RGnHyDzACcsKBYeipFPPqHPOAJZSIlMeYceo2OCo+wG40SFDIahTMlVEB2V6S/dQUPDRVTpyVszi0cAIGFmhohSjHBwN6uKra1ErLEoeC7BvTx1ta7Xsb64EmNmKifvwMz6AwohBR4ywUd7i28DOs+e9MqB4noqkLiSjnIoyEKlsLidKCDkiW8V3OPGJMiQN0k5FGvIOax0lFIoVcBRfcuZD6aJkATLXi/wpX/ASswvwoWYimasf6HpnY1kDsGWlsW8wD4WOgtbAR3nRPuYE+ChS0mfKUxHKvuTTJ6sQ2ZHXNPeVNnUBb33b6+WAMLubVU5hueCwtJED7YHzAQ3yhgDiPvntaYC4vly2Vm7LBFiLNLNdKB/aJfxhsdBOuG9nIKOea13R3tR+DG4qL/WOfDkif9pXWGwobGRGW49z+AVAaV/ET7D04MVxQ7ZdYNZ9A5LaPOU3v3YDCkeaUR9Oo5bF4XRExgZGwog3nOtadYu8ie/yVZ5JE145jz4RR/zdf+CDtGubob7Nl/NV33be4eCbWaVFgebrLz9fbl19Tdfb4iH4mxyhjTCw23GfYWBDe2MwGenQB6L9GfgoRy0LoEkf8z2FJ77zrTxGPdJPkWX0Kw+cXHcMimM63Osj1EZYUHeo892drbK8tOgjehKw8ToSGyQ6ChwBG1bNolNx4Ad7WrN3LNOwPPJDx6OHOfJpyDNnztjxzWemc3nN5NTpUwLnhdg0Xnod65H80N2kibETIAagVTDjmJglB1ZhrEHEBZewLienJv36CvdBGZxX7IonHtcB7hhaACUzpfBsi7PikzHKhpowa29r3av5YvskRcT5m2eYxWG98WTQq/VYkECGinmgyHsUTI7jvhyTu2yttLq0Um7fuFn2BFD4MvU5qEYxoErrU2M+UGWonGIE8GNjZ9AdC5eFRQJG+TkfOUAS85yzuIL5/sJrQUC+edEdrsnfBQRM9cfrBcMIkjRVyfsS4vbaellfWipLN2+Wy6+9Xr76la8J7K+W1ZW1cvvWYjznPGTVp/iTY1EDqw1ZiYblOTM9UU6d4lt0Y/ZjKTcP/Sc6Q7ImRg2qj549XR45syCwnC/nTs7qOFfOnZgtJwWidA6URG+UHuASAAYwMZ2qRj1Ep1ZHkN+YBl+8ZtrR9aCV067Kw5Taga1MLM4JDRG5Rina4sARVtcaEkgWAlN1ro6UgwaRHlGOqBMOowjUoVj8xAICFhz4WRoKgE6o4ygKU/wNqqMNqUOOSymMyU2SrzQjHY6pHdLh2REWuYKrAwMskqHqm2c/Bjh1VAYf1AnOK/zUQffVBne21uRWHZZObhACfCSPkSHJZVgdXXIBhFBy8ewIZQSIYwEPK7+Ii5U5Jc3JFC48TkhOQ1Isg+Jft/0MkZH4uGTPIIOBBUDPVO+wyj0AGCifqTEBhhwKagCrXSAzLJ5DyUhWLOLQcYxpfpV5WK1xXEKb7oyIR6yIjizVMV8Pqq2sL92W0rxarl96RUB100p4RnyGAlbdyAJA8U10+jzF7mdY4gXrdVfgBjCiVFF+gCVKuF+DDvxXl64JX5cE3Lov3gFkBlIajaizSjEIUA93tyR35SEZeBEXfU7pFQEy99RpdU/lkUx5xki90haofwaKEpvl4ylpyYAyq1qVZiyQGVRd4kcbIjx1SZ0gHzUZg5GByYMwyU/OzzmVJ2sIrMCRJ/EVz+1Q8bg/oHZEPr6ntP3cUfU+qiMuFjTBT4AAzyz9/FRxiB+DIdoh4KO2JF4AWB/Vt4hLvzDI0/ck94HdtdK/s6K600BDbTHar8qp9HJhmvlTHMCLMAZt8wRvsn5wkuOIjiPimwU5UrplU21hffGm+wc8ee3AqMqmuh9ROzdYVz3gZ5sApOUHMMagjSMyo595gOZ2SXlVZ+QpWbGYL+oznFfLWkYRJwfmDBYYQPapHbAB+s7aqtrrYrn6+qXy9a99vVy+Ij25HHqSrUl5hUVVrXak+pfeZWU2qhu9zmYECwLBjgCQ7fI2ZKiopUkOrKmZKHNz8+X06TPl9KnT5cT8iXJS4HlSQHtidq7MYHGyJkXx0Nt8cBoMYnVzrGxX/5QMvZpbR6n40ifejSkqR5+OgnPPGPJME0OIGc9IU/cEwqxc1g2pehYj7fm1IxaNHioAeMK3pfeU367yVuiyq3My6heYknM/Cp8GYLNUVuGBkG3nQCMD5d4/GO/ajMk0j2XuTlLsClh1xpswOxIUi3l3xFDfwJCEcLKcWTitylOnlj/vOR7sq5FoNLytxrcnhb+9s6l0ZcnSiIRGq2sagQu4KQBCj1VQMRIAJDH1AcIEz8HBEa/A2tFIR2MjH71CVneHhkYEBiMW0Aj8S5r9GgD0KfwhlqZM8aVr18vll18uLzz7rfKNb3xL+dCgx6S0Y+Pg0RGloY7OikyAk8VBrNBkSv/EibkyO8tHtEc0guG5reTPalzlhwLxsn91rD5WntXVkxOqNBopoHSwzfTdljs8VgXWH9OojCj76ZxIc3dd6UlBy2+gX5YLI0wpwj515AOF5UPgdMyTJ2bK6ZNzViKHWCJWEB4NuWPQKXjgvytAmlJeu1Kc6xsrZUNKdk/Wxv4BUyBSlCj4yXE3QFbPTY53rECKrJF+5T05Kauaoe4hX35QuVBmUgKzM5NlekoDCBWeZfhjGtWhPPtVbyO1gQOiO7IikSEdmDZER/NzaREDHYj3I9dWV8r2xoas9CkNQGYlC8lEimhAwNk/KMtoUGA2ImASkE3KZATAAXtWF6O8WG2M3PvUFryoRp1oDPAR6wVwkEzURcrOzoZ4UytmNLq2JmtrpRwKuMeZLptkql71N6g0lM8QSkuJM1XaQSmKXco4yohDedF3UPjjajMDKltHg7UpjVbHWVCnNjGscs6Mjel6qCxrMHlNg7UhKYNBVm6qnpSlHdP8TOFhzVNuW6RSilgjB+KXxRx7kuPmqqxCtQHuYU0waDpQe7l59aKtlz61LdKj/hnoMPABYCY0kJhW2WZnJqyIpqTQeOWEfq0GrD7O82GVXb1IQ1X1IRZESBErbr/AgkUitLt08QqJdInkQRzS4FWKPSlI+g3yGZPgO+o0o2oXrDAF+Fj8xKImjiPqD149KvnlynNsAcDIgzjSRmnKqaEK2yUjKdNJDUYmWKgjmbIFHK+PoU/Yazp0iABF1wzQGAhgHBxK0SNzDwoAVbVvAMYDUbWvIcnTYAhftCWB0sQIemO1lK3lMitkAly8CpV2PsBGE+JR9c37suhR1hMM0G8td56hiX+l16/8+tIpbRYfnhCwnJ6fU3sSL/RZ1f2A+v4Bg6DDTfUTXk3aiAFLdbtbK+oP6BX1A4CatCVT2jL99lCKX9UkPUPZ1PZp+ACP5BCbPogfyRn5jiI76XYGevRbBoAdhRtSm+4H5GQ9rty4Ua698kr59nPPhZ7cDz2529CT9Hvq23WmNuN2ofMTJ+fLlMo4xOOviXEBz2HZ4lmmxnGeWVTVeKpUup1HeKyrGUamtCXd5CtPLEaCzykNPOGVD15T1l10qPrDrvrFvrBFDUrgvKM7QgPV667ksy3w31d9Y7TNzM3YqmU2ldlDAJPXhUjfgIy81F7WpIOYyl3f3iy3V5bK7dXlsqbzDWHYOguiVNej4xPKR/WFdSWuYbfuD9h0QXmVJrLNYyWC65PQQWHevxmXGfz+971fwDKn8IHsMOWddPTHB695jsgiHD9DFEPecEDpsCiHdJkHBzCDAi45xq/+VGFcYoqziTsPmlmBBa+Y8aQF6LIxtjJ2JeTL47wYPiKFRoWPauTDp5uYThjtjKlB8AkZmXVY2co/VhZLPJIPD79ZqQWvkrqyD3lQLvQ/DZJ3wmhEvJM3ro5NHiPIh7JLOXVoqOpcvH7QqYqEBk6jw+LiC+QoZJam+/WJevT7cWoYft+Ko/JXdDslYaCms9NwUTSks7u5rkahjqd8ie/l5OKLF5l5f9DPKHTO6HeYwYvi8g4ijSlkFaM4FJA0j+ShcosXCceDhG0pos31VZ3H1LbBQwyhEPxuKQqCHiLn907llL3kJKkpLRyyRK5MpTBt7h1hxL+EpfTrF+EVn844Ki0HTlF+lsQfSsnwSgf5AsZDqoRhdQrkrayVjvhXWvm+m5f7qxx0Mnc0xaXDYO2irL2RhToIr4NsAKIKi2xVHB1JI5QTSh3FwxwH6cJuOPwVttYn6SJP+KI8K7Isnvnq18pXv/SlcuPqZSnN2TI9MRqgpE6OQsDiRtEHgMiiULlz4MXrMbMapM3NTJWZyTEPZGk/tAVWfDJbgP/87JQXb2DpAP4sbqNtDYoxv2+oBuf3fXUe7zxKfij9sVGlIeCnMJJVvFdI+6N9Iz8eXcRCOcqO3L2wQo0EK4N27/eeVd4of08mhPX7mF0/3aeuVdbeO5y6r6ypr/AH0KJ9I392raH9nl44aZAkr+nJSemZKQ8AeB92SP2KXZSmJCd4UsFdPrd7eEUGSps+53onX9qJz5Vn5ZHzPsnfr3Kp3J7qlyypE9oAPFsFUValz7gv0hGvKjsu9YB35RFf3kSDviYdgNUzKT7f957HNYiZcv+kz7rvKi76ZUhM8n4vPNN26cvwQ5pj1dBhIEE7DpmRdxxdnjxXmpaN4rHb0X7VxwwqSJu2ucO0qvq85UI8xaG/ImcGg9aTo6Enx3Tknf7jehJAQp+jI1NPehcmpcu78bwzb3yprl+jh9D57KbFTlySmsKgBzinTbJ/QG4gw8YOxGTxKmVQxjV9yYu2WfPyrGX9IzybM+TsJb8x7So/JC2c2VbZwSCsTc+s6r4/AEL+TNWKP76mhZ+xjspW5YNBGswJqDLjdM6qUvpJUGTCCqVwKDxGC/FgmBdbSfjChQt+CMvzzVu3bntZMF8b5zNOzH0DasxJIyjmrTkieEAP64NpWfLzM0wE5iMHfuLIH4L3nLPvIxB1S/FImjgWBJF2rhQmDHnAmz+8qlEQy6MvXHjEc9+878M2TvFMVA1InQ8gD5mEpc01L/Vi9ufm3Swu4v2fG9euldu3btpq4lkAlQtQ0HnpbExruPFKKXlkrtEOGyUzsmIUhMXlylW8AGYaWDqlwb3qR2P1c2fSluM6tx2kvLtKm0VNPKP1aFP32ZmEBsmm5ix04hg7yyieOhbKyDuKOP1+b63FfcoBnwAmo7KpyQkp8Gl1pPmytrxsC5EXxfVjxUq92GKn4escMGVQxBGAj+kdNVDKSN0rPzrpmBoqChyFDO+7shDoFJQTMI/BS5QLXgBfOjl5bm2sWWkD3pYDZUFmUmgK4PrzM2v4U5th2zeU7LjaAuEP1HGWF2+X69eulKXbsugUHlkiG2TCNTwgb6erc+qCeuI25xzjvCdvlCZ+fP/xpRdfKC99+8WytLhUpqUwZ6enxcO406bud7wrFSCjCEofCxAligKhLuZYwCaZsz1mbrNH8YnPOfdPn1oQII/rum4LSJtVepaLnNuMyqVGGGWUnNjoIbcD9HZ+8kNhIRvy4Qv5HGkvODb8nhH/bL9GvTIQjWmwqGv6MmTZ6JT8jzjJj2PIEmCMdmc/6s33KhArAEdPo0l3UE6mCOkvB+pH1KmVnpQg9ch3XHkNDtnDhaK6bVHf8Jf56l8u8nTf0jVhmeqzH9y7zgHfGBAAat7ZSWH1r2NVtOmcpu6p7ugPfHYrXAzW8OOrS3yGC93x6CMXLGP6/9LiovUlmy5sqi3wuIi2ijzhgYEd8mRAgAyQCfxl/do15IXcLT/52xpXPMA8HIM1eMT6AzACgMlDitJp0VbYOaepJx95AD0Jjiixrp7ke7ScoxN4i4GvEl27es3f4+RdSZ6LggdJiQk8k2QGEhD2GpMtWX3Ssbyt4e34DNqRv/7rsZ5Xf8gAR6WK8OGaZ6HgFKt0wSzA2jhEfVPX8Ko+B6jTLzjmc1XuG4dE/ax6ckY1s6CauVz6EmEMQaJw6EhybJOEIO0vx2qos+fOlrNnz9rqJDNe9Ziajq9NEA4/0oUJzg14Sh+hkSeNMR7A0lgj36Mu/OCb+1ROrsxCCKzaQhC5GAkhk7ZiWQC8GsMD4gmZ3HSyCxfOSxlMOg0eSPuht/jovrcjQVuYSo93UdlPkXAdjZR4TxXlh3KDGd4hYoUZ+zPGyCikR0m4ppNzjAYWZAnTOchXjSinqD2gwamcBn85wpAPygm+INIORSMlbXXRqzvOLWu7uERmlCetc+TPPRpcxiHMAFP1XCnPfVn08I0/YVBi+zu7kt+Ml5+Pj024TnjAzmCqO/qUkiC+O6vuW5krP4/opIT5ADor60bHNLoTyFCXdG6UghuysouBD5ZmXLvs8Kw/9ikeGhiSXCVr7ikAPEdZGaGidLCS4X/XPJA37ZcP2E5IKVCn5MU+zWwXdlsAipwIm20u5Z/ycf1RZ9X5XPzZYTWIAcrq0bL4VXPWvX2BzaRBiDTpCwAcvLHloxemkTF8S5FRnyQV8ZEdMwS8T03dAVLYaBrMKh4DMsKgVHWw4ytHWb/JP3KEx5DBuNsyQEq9LS0tluWVJfefmAngazwxMEbBbW2w6EPKXYMAptiQK3nCn6cB5VhUke3ZsldeXPYdIoA62OCnlrN5bqryDb/eKbKknigLYI1iJyjpK3vrCw/sxEPsPVrzU3jeKURWxMWv2zdqnXH0Ne1fp2xMTp2SHoPvsFoYF9b+h+vyp/Qcr5cuZULHjGuwg7Oe7ISuxGLDeuNrLmfPxsKYGQ2EAD0GJQA/+1GjM/GDN8rmhTCSHnlQjwZNlzvkCagiyq7r+r1RT1Jf99STKj/vvFMG2gf9hA3fH1RPxm5B0oupJxXe1+hJ1R3MWE+qXWGAwYNlZ77ZTagaPsw82j9K5RC6tgzI2+7O564TpQW+GG9MtFWua1tIiqxNkVP9VfwjelJy407yGhYnmVWmSKneO8qsnC1LdSZbmzhVAPPTHNkFgpECGczNzvr1DjLFrAekmMZllRLAQGVSiPxCO34oWvjgmsKm0vJfnh9z8ImQfK0GBp8WusqU11k+Ck3aVDyvnPj9UjVq5r6ZPo5OGUugLTrFz2nhFC4NhCldyoV/Pjs4o07w+GOPl1MnT7ms+ImlLsGHR6eqNJRWWL1SXJLJlBrj5OSUwTwq/7irjYKyuMChRJ1HTR+Z07mQA+fI2coMOeqPeCH3GM2RTDQEpVDTBQyi/ilXrJyjXpEL5SYswH/z5o3yzW8+W7729a+W3/viF8qXvvz75Wtf/Ur5+jNfL88991y5pdEkfPBeFGWkPixHxXejRUnoHmWnYzH7wEbPvJzMqjxW0cEHdcXWWZzTuQEaZA8vKA/aHbwBfnRoFIK5r3WFbBJAVTj7O03KIv480pUfo0sPpKTMOGfk786mMORN2KQ4j/5g0ExrVg4lF9fIGiCPkTeEDKj3Rx9/tFx49IL40OBBeXGfvuDBEnyKnLbqPM9Jh5V+DEIYhdvC0v3sI14lLjBjNocVgrltGOCK0oo8VPfqB9EGZJ0pbwaNyI0csHiuX79eFmVto1DpM7TRjpS5+4v6Sr7nxhQW9ULewV9Qc6CBP+3WieuayvA910r6xbl9fa/n3/WrLvUCVkqms7a2WpaXllVfmy7/yupafbk99AgETx6I13SSLGOfcM4hrvnNYKG8eV7KwCWmIknXcV1ujhHWh+pPPYaejJm5B9KT6q/31JNDf/B6kkdSBmSVn4EG1tZ3qyfZECG8oi+c1kDh8celJxekJ1VOyiCWugQfb9CTdYDHYGNSg4rvXk+GzO6oJxXfcpds7qcnbXG6QdTECUxBfSR/LiuhwOh0OLaxY4rGUzwCEqZ3YBAFyDUjJ4TgSqoKm4bDkcxR9HRuj1KVP50+BKeRK8zWSj/u9OMjBYZvXnSlcco3LBbzgZUQnacrVKctENB9woQSDbMcpQuPmS/HKHt0Bng230qHQiJcRuG83EsnYXRGJ8CScUXVmuJIQ+RoGavcKHOmq5gehY+wHhitoWQVhjwIm84Vxbl4kaNsybsbrXhEZvj5fSPxnhZJTtsoAZU/d9ugHNFJYjFFuMhHaYk3Hu6zyAIJePpN6ShzTz1tCtwWF2/5fSfyZKoOee1qQLWqut+REiM/poldr8qT8pN+WgK0FZQ6cam7q1ev1M2hl60YiOfOp/uADPn7OYf4ZRoLBX9NcZgW5x6d3LeRkWRoC1tn+IVVlC7aGiCzsrJc1jfWzNOcrObz586VU6dOUW3+Yo5ZVVqkT/niiLwRC6BwzPXJKQbl4/kJ5YV3FBIfSef8nAZY73nsUVtPXFPfxKGu3H/Ea9Y74Jv1wvQk5d6pg9ZQ6OIFZpQf4LmxuW5QZVcX6hFwc/9SOHd20nJf3y/Li0vqizEzwECBKTDSREn625adUd9japxvLTLFGO0jeME6B7i8Ep9Bgvil6JQI2cMTskNYyDF5Tf1KONplgK386j2HJY30qw4wJO/1deWpMmINLy7eLjduCux1xFq+eeO63x1fWlpyGyJP+gMUvPPYwleRLnyqMzL4xdvthSM/uoc86LNY7rSd7L8EIghEXB/rj9PVKTMDnsaWAwBYfIfzlLYc5USGXLOClP4GX/vqc8gU/j1AUn70YR6RsMiIdgbYwZ+tJwnRgwMc5U2na3QD5/4IteJRj9Qn94bhRe0NSKBNkPvbpSeZoerOPDqeDiJ4gBKPSBdemckAgIOPADnK4/qA3+OOTRRUFlIEgAf6B6NilBEAb5BEbi6j0lS69O0IQh2o3avuKQf8k2Zz0Bn5SEbROSm9JSDKwlgcvWv9xDWnOnJtF9eRKbtC7KpiRsr0zIxHDBTWI2J1UDKGYRzxYIJ4XLsRyJEfRMWko1Q+5y/9dE4lAsYoZwih4KIBZadBkKHE4T/z8khLfxaGwlCx8JNCDWUTvISwiE+u0YmYxoqpycgfZ4ugdjgo+Iz47hCSTYQViO0qvOIyAvVUmGQUjbfnEixJLq4jTW9qLOdpJfEDv/6aOtpH1JRROCqJg9KQo8zmFx7giUZSlb3TJz0aGYCsfNAPLpfiUX4AjYECCsJTrVK4njpU2sjW52QnxsP6ik4UyphnKyFP6s8gJsBFljRsOmuSAVP5IyvqB7nBA1OGWEmrKyjSkLenIpWej9Sd4lNydz7xRDr4wwcghGWF3JEHVhQjWZ7nkD/AYTkpP+SR8TnHXzUSx3T8+Rz/CrZW2tSdyizFj7Lg/bRzAmgUKrJhxxSqydadwJ/w2R5tpSgeioR6Cv+QG478FFx5xcIKfyBaaeHvfqC6c4eXsyKVbGnz0DUNUvjoAqsImSYmbaYJz545G+/QVcWGDKkryu1BnhQYeTEzsCqwpU4oW74Lhxwgs8YP1zAlivZYjz7tXdtxjVdeE85+UvRqZ+TvGQrVBflRN24XkhN7Yl+TxXzp9Uu2nKlXA4fihvxDCQZPQT7rXfo0+I86trxVJvKDlyN60kR916Pj1Wv9xDWnOnJtF9dOm/pq9aTvQ8HnHy49KeAkUA3v32Nkr7jjcE40z/NOEPfIiCPKE0uIRr4oJXfr1i1bh1QYjQQhIUyYY6MFpm0pWDRYilkL5X8KJWqcZyEghENY0iQ+SoJpBcJGg5BDml1WlYbOUUrJAw2CaytapeeKUBwrzWoRetTjUTwNmryiQZOsK0r+jI56D8aZ4ok88j4NkWIRyw1F5XCjUP4hW/KNo/7DZR3xI95ZlZYPvcmc8jptjSEJ4vIqbSvyCBCKRGGSd297RSOlgVrmIZ/kE1IUywKJY0XRiHMk7ue6Cs9olOe9fv7metQIW+UHbAnndEXRCHkgL8uplhfQROEjX/ZLnpvjY7QzVpLBf/Bjy0b5kgfPy6cmp3Qez2uoLwKi4D1apU5UfnjjXg4AcIBqyPAo4U/9M53GNBSOYIAOBAji4AXZcdN/3bTi2pnKz5aG6j+J8pw8eaKcWjhZ5uZn5ROdks5Imgw+vK+zyOUW/8jIgwwr7AAvKzvKK4r2IetdMsn68tST2qetV1Ue8akz4oVjBD7QbfNZJ7RrnrXx7VqsTvpwtBOUfMggpr0A6UMPOlisgdXqPGqbCJ4c3KKAgtvmL8d6XcuShH/Th9tcky9pwyP5UFchcZ7xxvO629IvfNiYhSfcp97pFylnjiYzmC6ItJtEuuSDg0dcU0/2CtmguOGDw+knjtVFABP3Wj35h1tPeq9aCusE4RQx+oA4dcJ5/DgSwnKBlCiZcJ0ZIbCIp0NND2HwjAYlSSNPMrPK24XERRa+Jv000enocBr+EYjOzEorGp+VonggfoaBD5QIwiAKfvxxPy0Sh6Ms+kO5RMoaacnPwhG5XLr2aFuVbBnpj/uUDwXLaA6lTuWjxMibczd65YfAzTcOosLMR8NyEBEGJcboKBpoyI1NKMgX5cqzUM7dYBXN8pFC29+Lxkke3Itp30iHPLAI8Yc/8kk50ajw5xyZEB4XwCPpKUkUY/ARoy86DkcaMtOxLByiUJTJ5RS5XG7EUgySHcKlvmPqaMiWVHZEAIlnbWyyzHMUrB3CEJ4wOfpEbsiWxwVYZ4RD7vjDK3LhWKUME3FPRLkhOgpl9ihU5Dgi0mc0ixUWZdxyx6cc8Bj1EnWUjrjwg0XtctfySRKWZWQeMoFfViGjJFKJ03eCoh7iWmnrSNrE5ggPyINzHMoz+1b2P08BogDlb8UqmSbBWo8oRPEWk25DkgeyYVEfi1dIk/zoW1aIOqd/UU73HUBU8d2uXS9YtNGX4IF0sP6oO8I5DepE55ZRTd9gbP8qS47iHSI8aRIOaip75ITsmG0AZFilidWMVYM/nzK8du26z6PPxsxH9Il43manPML1+iBH86b6pM1TPsh51/CpJykHBYyDjhSW8/hxOtGvyKvVk+9GPWngpMA5BUDnj78knfsiRkmZIMx6Gkd3SMyNRRkw2iW9eB6KAjw0Q2ZGaXNt5hXTAlZ6dBTStqAro65UNfwoPA1bhXBu4kMVSEMj30wDQXPusihOdE5kFAKkAkmfQpOeBSTLwB/Zlh9H/JAD16QJD64AOc6Zxohpj23fp5LoZF6hpjgQcUM5RplsKanhIKtYrVgXVzFa10iGxoHicPri159A00iJdLc2FVZKgVEPFc9CGPODTMRLLq6iLvZ2yT/SwZ9G6ZGewvnrN5IpfFgoImSLBedGrLTxduMW/yhI8oEvnkFSnux4lNvPRyRX6oGpJRovwEN5cYSnppAbliFpU3+Ugek28mAUTJrwy8ITVl0zZQV35I0scg/MnD5CofBq066OdDgWh8TSfWfglZ/I2ypYXo4nR1lpD/COooE3+IRoU+QHH/CNY8k7soGHLE+0zRqDdKwAhnQ/nqfBn+tFkZhKNl9qn2RGOBZYUOfLy0tdJUOepGl50Jd0npYdsiMMcqOOnDP5Ui8NR34oPyxW0iFu9JeD7jMcztNxb25uzueUizaB7OGdqWOIe8iLI32E9uR2jWyVJ/xwzGl4rpmKBjix/CgLfZi8kD8E75DTVt3T7tOPgnfvKx9bSTVtygtvIYsAJMDF3/dV22NxEHqAPU6pE9oLBH8MMpA1cVCSNTfxhZOMcPBj+Ysn99HQLdleFNRtynJGtyjdkD0th78kysCx1ZPU+btdTxo4EdSDEgXGUUALR8zANI0ZRRcVHtNLUI6YJEFfd+kNlz0P4jgP8ZWuOfLCUXBPTalDUGFUEP5R6VSEeKiFD4pz/6Z3vTB/SUqHtHCe7jFflTf846weezwfJ6dZk20mfy+iPGOj43X12KQbN6DElwauXL7i0XSkRVlruoeVJ/30eA2llI7rniwyTBx81vSqR0/FSK5M3bGU3CtPdRyVguZ1EDKvQXXs5cwUbZ6TJfWWCuNODqLTQlxn/UKRaowYPTKlXSkMdc8m0xB+xF5eXimXL13ye5Kkk1OrODoXljGdCbLYqgC5T3r5fhrlpPNx3x1V513FJKVkq6sry+ax5+jsLNaJ/gC/MYrFhbKMhUDfETXjKbuuLOkflh/XkmF1SNGKTvJAKTRl0CNdWeZxJB5KLZV0DKjqoAp5iwfSJJ8YZEXf87NqgEsskt8byngkU+q56pOqOH0uvQJA+ChH/m4fSgveE6RZgWoFpywIgx/Pjy88csF8M/hB8dKGAI/4SkePgShug6F6TlmoIwZ85AdPWDjEJZ8HpShLqyfj2OP5ODnNmmwz+XvR94KedC+ykH15D1IAprBokH7GIcdUCavD2Cj9xs2bvseI3mhPhalAKCFWaHmVmRE+rBYz32S6yxSmsypVjZ/RSTTA2jDcKKJ4jBboOB4BKS/SoByEp6HT8Y9UtMilDCnWK/0dCVL5Ef+UIZ3Zw99BklFf+dqpKaFMq3v0X5yFuwfpNjJl1M+7Z2x6fPLkgl8+RpFdvXatXLz4muRAo695ZZLigcbLCNRcyh9+rbzEP5SyQDF4tOzyKCzHes6Rcvno9NXxVF/UG88tXZ9KLxSdRpv6Q4kSy10n0yJ/MlMi7szUnTt4T5lkRycf0oC/rp8o0vJpAE+dAmIUjfMrLQI6OhFyW5UFcuXyZU/jqaE4zSwDiwvI14rDXsgPJoNfysWgAEss3qsTSCocR6w2l1s8UJseoXPXKyrTJYU/q3WZSqRv0GfIi3wpP+2SEXTWxz2JSFUGUF42vGJQQnmQHeeNvoIjMFZXuABP502crqsl4ZyjXLZ95IvciE9bQCaAFFYqlhIzDWxysiFAYJoWWRHH9STFTFpJkXoQeeIDr0eUv/t48BWchN7ZAnAEhPgzLU3ds6AJXhiIUE9M+bNoDcsDgCIOacDzUYp0nYPLXMutc0AaC4tXcQCd0ENh/UbY+5ACtHqSIMmor3zt1JRQptU9+i/Owt2DdPt7QU+qvDLNJfDjwrsTESbM61SCMY1FI2VJOw2VqZNVnXtkpYbuBuxVVTzcjWk/E7zEmamyBH/Kh86kBlA7VHc01qV4pkKDQKHSwCkHgiA8I06UExQVFY77pGJXT3zPPpaNHUqX9Nx4Jbwup9zMQ3rFoVLNp6bng/OOy/sRjRz5MA3FO2tU/DgbNUgZTE1Oq7yd2hgaaYoZcatDumigtXLjWoEtR/1lmPs5KC08jvBlZSjZMmVKG8hypgy61mamo79eAw6e44irdaoIKGXSyjrHP9IQrySsYGx2wJQJbZWFKdS7P5YuJcrqWpJi1AmfEYf0pLiVd4C8spI8FMxlSiIf2g9TyMgZQACoiW/g1D1cKt9eXKcUp8fIeap/8LoPzZLNHVDslIv3MeHrbnGbFBJEDuG6lNd4UXC5elCq9RqZy0EAH4BJGfz800GIc9yFPxba1atXvfqWVzw4v3rlarl85Yq/fnRbgwKsQmYCAClPq8maYrVtyKu+O6q6Mkc1XSjzwp9/yOWzooLPeO6VcgdMqBtmPrA2PQMCQM7PlYVTp8rp06f9fuAjFy7oqHNds8E4wGdwkCMdwAnKcsZFPVbiHrzQtpj6Jh5pIMdWT+qefaivcA+znuzP5z/35VqBmcai4dKQeWEcB8OMABn15U5CKDhPp6iB8+4O54wQcVSikqqC7DHSpChwNIIQcINhKkqOUS2dgcZghUCDUDJZ+Ls2cryqv+8fCxMjEjkpGDsLleJXjn0UL3le/Xu89tLmL+hoHncjd3Q15Ox0EA3figJrSKOr40AEuZLh2Y038o5ryUX3HFZxYMNlq40C3jn6L8+rQ0kxCuacd73y3TIyJT0/K2yEV4q9o7kIivucxHWX7BnyZsRHABRAPgMxn7UzMqrmXoJnWo4oIT5QS/0DeAAp7Q2QoP79LE3xCGvgE99WMsjHfNF5JBQFoLy8h+vnrLWMUffBQ1dmUFqbvqzndkG0d28wYKsods1iq0Len2MVJe22m9abocpzk7i+o5PsaAOcN4nrLN9xpx8fecbE6lRAk1WefJz+ylWB5qXL5fVLl+zHs23aKf0PmSEr6gM/LJnom8icXEM2zqOSs9OfQV1p5LNd4mEdxcrkWK2NzuAeMegX2TcIa92CXhIP8VqPAE91TXuHF6bpAYgAlmb+5E55Ky/1mjyQHQMdykQdU45WTx4N87DryX4q+HijuhuRMaMnInYXMaBA9Zfx6VAeSWlE5fflNuPDpYxi0yJQSnZKpkucJ1M4PMxgLSiVTp4c6WhZWU0Hf0lOQxSCa7haTclv+kOZL2l1R+g6T8o0I1jl1T49IqlMD2qe34sIhZyoRFaF4WjwyAvZKUdf2wKsDQISt+YjGnKAGakxGowpCOompvSIYZ5Rqhy7rlGe6uJ5nBSZOh5KxApOjjqwYpFsyL1JedVMp1c/kqX4sUwbdef61D3KYytNHYFzRSUhHxlVMyqn7bFxAoqF8l189aJ3KuKa7/uxMjdX1FFo0kFeed1VujpHNuSNUFJ5JG/5TItz+gaK19e1DD1ConIGUiiuUbT0DcoPcUD+KHGsCfYrJr37UVOO6fTTPXedpzxdnpRvyJT6Qk6WQ3XZ15tOP0eukRfPEAEk9ifFqk+LhTRR8oCC604u5UrbYLoUYgDkdopMnEWUN/PoUpYHXl2OyrvSov2RZ+oPW1finwQpO22BjVawNOCJdhADvoEKlgGeMcDiGecd8g/m6jmWGIMr5SEvt0/xgo5s9WT4Q5kvaT2serIfsxaUvT/bsVqMLfdgEiXneHJ0GjoKCeZIjSMv+HrEIxcjx+h8SBEmOMk/e1YyY7WSXTk0gtoAEQqj9ixA0yGEjBOCuEupqj+l5szhatBuWpk/jaz63ZHwjkS6aUCRZng8SKNQDlZGjEZp+AAFy+t5LsKcPjLgHmmFO5Jdl29Siux6ZYCCh7S0ohHdyUE6izrdVefXH50jOmA85/PUnDo3wbnvXB3XHmbM07byi+ditSPXTnbUJY+0o1CMwWvyg4tRJlPE3IcPlAK716AUCaES2brjNZUsC+nrxOe03VDw0THcgeTIK++RNkqT9o0/9/EzcOoP5Qdw3JlINY7xLJOVxrG/K1YxnR2HknR6UUnfHalcntakb1jG4ULm4QgTr3dE2XOQkE4/R65xyAugoP+iHwAzeVmpwDv1hUVEPyQPZiOY8mN19OzcrO7z6gIrkRmk8B9ldX5JNS/kG/XCoEm8VWWXcSDygJ9coMYrD9wPZRl1hcVJ8rRNLDc2taBt8epT1qeZSSIP51N9ua//5IcjRJ1jybZ6kkv91qDdtDL/h0xP9rsROnUFxjmpyKpRRXYwpWhmmEpm2iEsk6ikQHpGbDSW6KDxoLo+F9I1fpEuDPhw1EHJYFYKDgXrhiHH6E33s0JNxM0Rgo4piCDKl6fdGOHHtb1SWOH0o/9oDD3GOGue553go/tb84jfO1HzTp6jCFC4PHfA4kFhRGdAfiw42NzacNrd9HU4rEz4k3AAAUduugzIIK4dRYGzMSTnQXHuKPUWSt4P4VPp8K8j/Pn9udVV+0XwRnzO49KHrL+uNZTX9uO61qXTl2I3o6RFSjVdOrdOdzWKZ2QOIAEOLN8nBACKbJiu4V1JPkbbp/ysfIivtLyylqlbFKLy8GhS4mErNixApn5ot10lDhsKANigCBm9Bu9hpZqznvDjWCnkG6CQ+QWFVZvvut2RSK4elVDjWM8bRD5hcebAJuSc1+SFDGP0DShFX6SdkkfzmL8QbQQ5Rv9mcVDWUZQpyhdWpcFV9YBOIH/uIS/n7zJG2uE4ZC4inXpxi1wuwvEKXoENIEpeAfpVf4h4Cf727VvlpZdeKl/72tfLF//lF8sXfvd3y+/+9m+XX/nlz5df/7Vf8/aNbD1o8BaPAC5T56Zj+SdbXSJP8RB5MmgE2Dqus+gHajs4343IvWoJ35R7qyeDeneaLS3KGL53o+adPP/e0JP9r1+6qpOBMt4Z9cdjR5SGvyKOyaCKVTWUgSF2NdHopTC6ZcWclMseHVF5qIFby8jtCv25ZtrEHVUNMD4npUpUJXnUe6DRtnLmI6N8GVw154rPJejmCsJfAnE3J7ziMs3FNzj7JKQDBeM7bwfiM77Urc6maDvKk7LTqVlY4BWMJOcGlQIW34rLp4j8yR7x4lE6eUpgBxLc3r4sKxStyj84MioZ8II5o0AJWAkQX5Hj01gqG9NzjLS5Rydgr1c+fcUCEQlH+aoyJFv0rrKSP52TnWok+wnS16h6bLxsbO+VHfJ15Ypf8UjaSlV5i+eOeO6TcilqOIe7ZWNns2wprT2lvb63U9ZUB3ylr/QPy40orDp80xV1WtyhwijcgOqTBpKfIlOlq/FtWsZRZpQwHZ9t9aREJY+97d3y2qsXy9rKityqFACWaYAR5VCQsr2/o/oRX9S56iKn7ZAPlixWGKsweXXDfkoDoKbxww/TLm5D+kOCe9R3lS1h+ATTyflZ8UV9qY4H1H4GlM+Q0hpUW2TvWOpbbYBOPDw4Ugb7pLgkl2GVh08uHextKciu2onAcZ93zCQ78cvH0PsUdv+Atsl7dXxaWnVG06R9UBWS30AffUL1pOtQ9ChVxZEff4PsXKIrFGS+m0gSfAGGo9tROv35vcLGOQMFAwcyUCZ8jZ4v0R+I9/4R1YWU8Z7ypNsoCx2RI9fwUi0nOdpqWNiEo98dlE3JXdHUJqIf8SF4voDPu5oMOOAJZU+/wKJ0fHHN3q2A0u3by2V1bausrGyUa9dvlRu3bpfFpeWyvLJs/vnmK8902c/V33NVbnwLFIuKdAwY8ChnWeiPPOifEH3Vr0qID6Zkw7qM7d449/ZrrLbVcWVpqVy7/HpZuX2zLN287m+b+hu3cnxnkm+1ShD+yDYAvaV2xm5X9Fu3W9QQf/Cktr+zzvdgWbCzUy5KP27tHJSjenKg1ZP0g4dYT/bv7PLiLe/njfir4XyVnS+BDyI1CRkB9UtxyEdCGy4jUkAoBhSEtzSiweAQJJ1U8ZjGqVL3p35io3AaKUJkxBKdHMGhbOnRdBwq3wKnTeBPQ/AdwqvSVbk0FJwbCXFIS0caVzQOhCk/pc3ICwWU0xceORNfflQoFcm36VCi8IhCZkECYKGWp38pTTkaAx/rdoOgmysOZYtvZ9Z03JjgWWnDgx1N1Fy6sVTWlQ5louFKSQ1JmaiSaayd0XEpSwCCVJEJYemQ6ogKx0enO2NDpV/a4LAfBSqFr0aicXXZ4Si2dxRrSw1qWw16d79fyrCU1fXtsrzKSAxeWF3I1xckQ5S/yhcvNfNStBRCRwpZCgF5UfZ98UJdKUPXP6vWTi+cLjM67u+oUaIE6BxK2SNmiQAZ7NPgdUQmMbKVo0eIkAtAaSsQpaO83TqkEDxKB+wUzyN0jfQR2i51qvRoF/ovu7KIJ3hlQGXuE2ge9KvMh1tlWxLYkkS2BNw77pDiRfKglaolSpEKDBgMUE8HUjAA5yB1tSUXi58GVM4i4Dw4lAwG1B50HTVNKal6uHWrV/sRA7qOfo9/9IUhtRWsC+flQtNeBA46bU730pRCdrSJSJ98aMMedOjK7Zvy61wlUlnFngrePzQoOSusXB4Bb+oL5WrLjTzFD5+eI1dbU/LbwcJWujiUKYqU2YVUoMT3bID+Ysoe0avU1IXqbWNtU0qEepYylxuW0hyVQuNVDl54Z1Nzvg/Jh7D9wQC1BytO9UlqW8xVhqON0HDoQ+6juiIf9x8EpPvIB8ayTaBj8v1if6xZ9Tmp44jkgh6zxlIcvtfMB5v3AF3KpvbGBhqexiQnkpejbADiKOAuHvkiSb8GRrsase0faLBwRE+WVk8+5Hqyn23OmG6B3HlxnPu34YcQjlCEOkK6dDiHzRQswnASWHaSejDFwc2463dfqvGJFWlVD7sgRnOMnLxCr06PwZ9H4zh1XqJ5Oy5d85I0o2w6AR2Lzb6ZqnLSzqeXR5aFv6Ba2ih6VwZJ0TgUkzRU4e5o6lCk5VsKaok14hGWhhTPBhVeZQneYpUcjmc/hMFCQ9ngxxLt69eulytXrvjdRl4hwPF6QX5AlikvRu4QyohRvS2Mmi4NkfyRF+GYAmG0zvMeXjT/viefdBzkiwRsyei+lYKurQR1D3KZKWctF/cASPJxmUghgjhEtjWOdvqzpJE3joCE909c1+gmsuuG5bze/06om2Y9PihFCYLc5lTJti7q8WiIO1OWqse/jhTIV3L6j9F/tJNumR1WpCxi8YPqQZ60eSxfJ1EJLnypE/cL1R/T1vAZvNY60P3kmPDUCQnRHubn5/xtyTNnTpfZ2VkDAorY5XTEjCmqpxycxgMQ7dVtRu00pjxjcMV1lFltjbYkGZAmsu62ncpHyPzeRHsk/VyhSx7zc/MeeDX1JOVx2pzWMjTzO0oR6gjp0uEcNlMIudq5THFVD6Y41PqtfvelGp9YkVb1sAtCNq2efHN6sp+L7rQYwpJDOG4EebSLThUKUp0rz+loPsos1tGdrcbRjzNUKVw4CyNlWk/CryfWPN6PMj2iRzpNv3Dwkp2Bo/1oCLjKM+WmofBMj4UmUc4oC8wcT1P/vXPn2+Q4KjP+4jJFcLzjEpcK5gx+COY0VbkJOuGi4mm0KEEqkykJGjjhqT/CM41FPRB+TwAWrxHEptc8k+TdMV68pow0BhQo9U7YIKZd9uIdMznqz7JT+lgJyMMNSY5CxcKRWCAiRgyYTPNZbrpP2eDLmw/gL0d+bmtYG1Vs1Ac8YNX4uQV8Vd5wTDtZdk0xUwf8uS7iuievu7sHIida060U5+Fff+5DwVuS24NkQjnSRQO5D5El6WRa9WgW5bzIQ+XCoTSwLI+2x8ib/JAt9be+saEwDOfpH40GKiIci21cR8mr+oPDwXA3aMSlTnlWR57IN5//0gZy04mM0shGVC+O+N2ZCEKbID/6BjxlfpxTJp55Rz8gf8qLHqv6TGHgg+P9iDbIFpP0jWiPu0pXCnY1PpXYlQvpyrV68uHVk/0IiEae0wc4Nwz5HznKkXF3DhymjfA4+ekcK8UjVAqo8EnILAsbgqx+cbt7jLPe1b2IVJwS6d3FwXMImLnv6ND4UUuUC2FQGQpa1tbXbVWxSovXERAaL3V7tMXfsbSbDkrZ9Urt9hBHnRgsnI5GcxyRHVMah4BO3GtWfhx7zgAl4jNQ9lOHjn1ieUaoTi+e6eg0fnbRYG9UdlaZmp62FTA7N1f4KnuuPGWEriz579YhStBbgylNGh7KA9nFyD6+HE+DWtZojMbF1EWO+t1G6GTUvdK0paP2wL2UP1N8Bl81Xr+aUfPx9W40TuoFnmhrLndt8JKY00Lclrh/IE7UmBWX8ht4lTbp+bpx/iAUqdXfRmZxmtf3Jvhm9xemsxh4MLWYo9/s6A+STvDRy/cNUcQUaXn6ExlVeZvZSrQt6g1AQOnRZni9pKO68wrOrhOf4o9nktSj9QF1eRBKnkYmdWoe1KWcH22IFo9snTZ79CofFCpkNugTNFBCcqjH9HsQokzUL0qM9kdbpy/TBlF8ONo9siBd8w/vOse53+v6fuSPgot/y6sqWNoz162ebPVk1iF6sp8bKEDIlU9l1gr1eRZUgaPxVusARbUXiiotBe5HGj3hWGgWgBqNhOHnXBYi3CCg3rGePhBlZdzJobQ5Qsk3lU0HgD/fE3PxHEf8iAhDhVCWEL4UgqesVH01PaI1j5zktaTnOIrQlVmccy/yUgT9KT81AqYfeOAsFRT35IfcOUfxMKqBJ+QK34ALILOxHi+es5Dm1YsXy8WLr3oHDe6F8uLZ045zYnqCxkOjpzOQHvwCRihbwlAvNKJ8eZypCM6xLEmLaTvInVlhiW+lKUfaNCYrbYWJIke5XVb5szrTlqkaMJTytGLRfdoRZWGxUNYR5Utl5/SOUJU7fxzjMn58Hc7hupR+D0A1XIZWzF56D5gEvEe/oN7k1GlzkJD1RNnuS2TZ5ccXvk7nZ5fIPx314HuOYtkxsPFrHHJ8pBqFcOH8eblz/rA27rzOz587W06fPlVOnjhhRRLfNsWiRB9U8ESVBRuuTxa3sMMOgwL3I90wkKNTcsovWKlU+0WlOD1ev0eJotA+abu8AgVYIluUNa8g8P1NjoQhP3SPn+3WtsNCmwTa+xGyC+VIGfgua/SfsdFQoK2ebPVk6sl+BMRN+M5CMNrIRsExGwYIzM7zduO8UxUdMvwmlGhH4RqNyC6E52klZW5BQsgzzoIsX//Exf2ohj/qGmngRAiCkTAdjlcZKAsdg9vZOFDaKAIUPDyOjbPF12gXGAh8NJ9eXjjI8qtOd/zLiAkPZEAnUWiFB2TiSAMk/j4rO/QfIygUYFSWR7B0/No4UMJUPh/tff2118u3vvWt8s1nny2vvf6apxrYDICpBiydbOg0Hub2WUhB+agTrEr2Fl1dW/U2aYSBCEdjYbsy72wyImVE+UWUCFnQeAywakDkAYByDOUd9YsMaAfwzAve0bGUhtInLiO7M6dP+1npI488Uh5//HEdL8jvjJ8lodwJly+Nm5B1nkPdU05i0Qm8v8GJX8Cb8wchp0adkl919ser/t2PkBEjWd4nDFcHJel4NxLF+KB0tyzlj9wZBUc9iDtcIwJygYdxgFNyZRcj7nrlptoVLiw0tTOAfos9XtVP8JMDNPVTHW04HOe0JfIDVCgz1jVtgXbLgCsUXVMXhD7I8wclpttoe/TljIuC5DnU2uqa8yN/91XxhmVC38alguX8vlR5o7KxVHI2hbokfqsnWz0JEa4/LmC8V4nN87ikkRxYqEzTrays6pyjXN0vkGsSR8jxfMF5BKXwsmNzbn/fqNf2eWByjIzbdHlf5wgFQa6qcyFIRh/wh7LhPoLGjwfDVD7CJw7KjZFFdNhoxPrvposzBxwzwxCUXMjL5W8IIToVZ1QUaUrhqeI5P1CDUHvxBsVX2BNU/Lx+6fXy2muvlVdffbW88vIrfm+Nr3+QNl+h4Dt7JJjZG6Q0mmK0zdQb+bH5Nu+8AV5+yVqKgA6Sjq+pU2eMvrCImOIkHcqQSp847shyHBNIu1NWOvd0lPxRLNkQGb3Rtmh4sbdtKC/uI1sUOACKFcS0JkoK4CUMvMAX5VxcWvRI0uVE3LUiqOmsFxxxqMuwXmMXlnDhhzIws98BRZaR74MQss1nhUyRYh3x6kTP6oxPYd2Psq31yhouCfBF7n6+Sd2gbDJMDUa+WGT005hm21Z4gR2dX+FweQ4gYmUCoPSFdEdBM5IGKPxMW9ZctG2UV4zYqXesQ87vJfJsP/cjdAZthj5KuwGgyRdH/8RKpp1S7uQDCwrimraI3/2IsNQZz26RJxYjUqF9t3qy1ZNNPdmPuc2IHMVIBr2G4JKpfPVaHJMhU3ixI0pMO/FMIMxfmfjqLKaGMCyzKkS7bhGCjl69BVTz8an+XHDxR8VTaMpCR6C8dBAa9CVVACMdBEejIDqjCk4sh0qZLpSnx8sThX8jkUzK4PBQcXCsFtORa0ZWJ+ZP+IPH7Lc4NztnYGH3fyyFqcmwFriHBbOwsFDe/8QT5fu+7wPlscceKydPniiTk/FJLBqHFanc+vpGuXnrlhsRioBG4W3KZmZkhcTm2bSB7CTpQvnxLDIUIGkRl45DiXn+g2wcvuaVLsob97z/q/jNF8hpdDRAPyuV7JfkGNExtQLAIH/AAL4YoVNurIkmke5RsYelbKunOq7tp3ztp+MbquoPiOA/ZdV0Bjk7ZPidM5N11DzvyeRouuRDngxMYhq+QyT357AoAZUKkrqm7eDyuSaayn0AFx2b6C4Pz0opJ32FMA7HPZUPmTMQeiuIdGlDrNycVbtFuaGXaGvMfPB1DMrYbXv5V3lKq/B+xAwHaVA2pmkpF7MvVqbya/VkqydTT/az6wejLE9DBNeeeklHoggV8xXhYR5zTiOjsaIAl5aWlNGgv48WSkuKQQIFzYkLgxy5hjyHT6UgVYSEUBtypVI8wtO9fOUBh/J1Y5TjPoXzyjWlz31GdIw44IGGz2gbf+ayrbyssJS/OnSMYiQA3X/iifeHkE8tKMt+C4/RVygUVu71vuUXZYlpDGSGJYWSYVqTURdh9/fEm/JjpEs0dBB5MVdPhXHuKYlDLAZWfQ2qM+35U1RsJ0VF0UnhlwSoHyw3OiSNg8o8MT9f3ve+93mq84RG3HNz8yr3iMLyPcTYfo4GwtQEI2A26U5FhuyQR4LSiu4zokI4gBp1pYzdtOETher6k7NykD9ytAwop/yRBQoGIpwbpPigrrkmH8qDjOCT6ZUc3VuJS0gegeucPJA7eXOebYcj8oeISx48a0FGbsy6hifaaLYv4hCWtkC5s91wL6eAKBB+bje2bGhv0UaJ63Bqz1zzniJ5uD3IER6ZkQ4u+KbeQ1kjq/ilWpCanP5JC6VD22QwkfJFnsQlLGBPNkwbQmHdxbMolBxxXA/i1x+cVnh4Iy7tm2lq+iplozzwQRpYwVlW8nJa8qd/xasFsbqS8Fjq9E8WzlBXlr94Shnwl2XP6TXXpfoOYVnQ4+d8qidf49Rn4J1RvxeJScYoa47u9yJ4ZsaD/Wdpv4TLzc+RNzI+d/5c+YAUIv2BvoMuor6QGfxke4h6jj2Io/5DaWZdoRSJA0+Wn+LBC4NDysrNVk+2erKpJ1Uv6lC1IfjoU1eRXBzxt+KQAGL++9APzGEMx0a77ExPR3TnqR0IIm46N0LItzKP+GlcRf5yee77OmaBGAnRYel47rpKOxsGHRVF4OcT+msqRDcgNUwKv7h42xYPFYeyIC6yQJnFNInrwg0CxzmMxLHHV147nq7Nkzw556Zv64eRJlM3t27d9tcmXn/9crn42qXymtzFV18rr7z8qu9Tjq68FBFesvHBKw0myjPm0TebcFO2/LJH1OdBt9xUPIqST3GRNn6kB3vcI7zLJwfQRSMmb0JAUYbgKY4mhfX0npz9uFZakGPXexAgyT23IZQB/k4v4jWJuJkHOUe+nIU/jhi0QeLmPShTIsnkK55/hGKKegyZmr96jDg66h6dBQWb9Q5gWAnIcQ35ntJDVhBxMv1ePr7l/LoMNsnZhmLogiy8VX4gSoZS6lG0qyM8y/mPIzLmVg3jgUuVO3/wQV7w57oATOUXA6Lqh1Md0ceIz0AG/64sXb5oo71y1fyDrZqPuFdc4kT5emXMwRHhvFer22rMENAmKQdJpzwBIMJTD57yVv9G5raWlS6gSzinKQoRJDNQzbfygH5KKxT5R7uNMBkr6lB+/ouBDtcU0kefRi78cnR8y7XVk3Hs8ZXX7xY9qex6ZEaqgIOdONePjwjzhedfKC+//LJRnwZLgmTO/VyB+d0SDJMuHNDxzIwIhikEI0RGQhSETg6h4Kghj/g0oqJcdCoqDv54iM2onPSYFmRjYBoGIw5G5qRF+UiDBs1oycvrt+Ir8paDGImKV+ohlqh4O/3I8df15Lr6syhgfGy8jAyz2w2Nlc4ruUr3HhzI8lBlMV3ASJeKy0bIyDV2Y4nKZhUhH2q9dv2a38mDP5QIPDPqRB6eatEf5WaqwvUjjrK+3CDgzY0tRrV0do7m90HpWNhaarsktyGVE3Jd6aZlLQdlfhGvnsNbvX5QdpxPPQ+qV9l+OFimcR1p9xIPgI32huJh1O5nr2pvyIsRcFqbtBO7qoQYTXf96sj6raAA7GwLFEKtptZf8hX+onrIst6LzB/y5yhHGiGXzCem6Wgb7GQzIDm5l+k+oBmDiCagfxdUeaVtoPQoF0fqh3Jj9dF3sNy4po6YnmU6js91eQpN7Tvl4QUjVatRFrc1pYEuSD8f4yLPguqp216jbWR7TIpYIbPmOelxJL9WT9b+FWLRuaPEiZwlmp5cV/8/LHqyDlFFyt1FhgvO7+CI8NLLL5UXXnyhXLp0yY2CkUtm4ATeAiI9HES+li0/Ivw9BeICyKlA5M1KOlig8IwaEBLPEnLqhobkqSyVQaVxWox2mQ5idIFAXU53zlgRSnyOJNyUAY40uLZgcUrPHJpXjvj5zL8oXvi1ApZCHrJS1mhHPHFN/lQYI3qTqyHSh3caLWVmlMiUj6evVEYvdd/ZFc/7rlQAiecUzNMT7/z58/5iBSMwOo3zAMiULo0neApHueT9wETQriNiw+W1iiAXSisVGqNNl1OXdHInED8RL6nhf1+KKvUh8oxrKOu7a00rycg2+HRdGjQBkgAN2gSO9sTUretA9YWc3BYa6fpapz7SycP7uyOlQdtjWjMswhidU0fwku+wHSHy757enYkYQFgTxdHnqg9d+1wOxWfwxFlpSFakL1680Cvb6XdJbr8MEGoZcdH/6nu+skAoM30ExzmAwLStlaTaMHFDJoCneJVfNJtIy8oV5xwhnTVlhUNexHHDcOR6Gefp53jVNc+bDh5bPfnu1pNWZWSKiLLQR5z9g0Eqgt0VmA++eeum5+25xTQLmfvB+VtAXaGTsZwFq39GN/hRcK6pXHg36QAvxPNoaXPTSocKpaNDTldxaQDMa9P5WP1HJ6Ui3MlQHCLKw8iWZxsojZQHabhRmbUYqXWVfz0g7GwiwTtz+qz65L1IHqrHiHpvjxG18pSjUilfWDuxkpX0nUek4mcpXomq0R8NGcWBEqFhU7GM1FEcKBIaC+Xh9Y75eeb255wKDQq5mDuUo+JQVuIiGxqmbz4IudzVcenfYyRBwQe1Q5mQF/zh4Md+xCRyTcB1Kuc/36o37kPZXsgL5zrzHV/V+sWHdOVo/STtaNRD8zlTWCmkQQdCZnQ+0qD+3ZaazuASx26b/C6JdkGbgGeXQ+lmfvEctoJ4ve8w9TpO8Y/zJrldqRwcAcl8T9N+1JXO0QiIJ1fg4iiX06zh3wqKaS/qIR4ToLRQaMvLK14NfPPmDR+xcr2tm+JQbnRRWAjxbKtbD3LUa9TBsXpALpaPDv//wYVAfEQYweIOnObgbCgG8kEqYXpQMFgcRIyWk2C7gWYM33KSmQEAAQ82LdslItUAAAAASUVORK5CYII=&quot; style=&quot;margin: 0px; padding: 0px; border: none; vertical-align: baseline; width: 462px; height: 296px;&quot;&gt;&lt;span class=&quot;WACImageBorder SCXW198942429 BCX0&quot; style=&quot;margin: 0px; padding: 0px; display: block; position: absolute; transform: rotate(0deg); width: 462px; height: 296px; left: -1px; top: -1px;&quot;&gt;&lt;/span&gt;&lt;/span&gt;&lt;span lang=&quot;EN-GB&quot; class=&quot;TextRun EmptyTextRun SCXW198942429 BCX0&quot; style=&quot;margin: 0px; padding: 0px; color: rgb(0, 0, 0); font-style: normal; font-weight: 400; letter-spacing: normal; text-align: center; text-indent: 0px; text-transform: none; word-spacing: 0px; background-color: rgb(255, 255, 255); font-size: 11pt; line-height: 25.5px; font-family: calibri, calibri_embeddedfont, calibri_msfontservice, sans-serif;&quot;&gt;&lt;br class=&quot;Apple-interchange-newline&quot;&gt;&#xa;&#xa;&lt;/span&gt;" style="text;whiteSpace=wrap;html=1;" parent="1" vertex="1">
          <mxGeometry x="193" y="31" width="465" height="306" as="geometry" />
        </mxCell>
      </root>
    </mxGraphModel>
  </diagram>
</mxfile>
